<?xml version="1.0" encoding="UTF-8" standalone="no"?>
<svg
   xmlns:dc="http://purl.org/dc/elements/1.1/"
   xmlns:cc="http://creativecommons.org/ns#"
   xmlns:rdf="http://www.w3.org/1999/02/22-rdf-syntax-ns#"
   xmlns:svg="http://www.w3.org/2000/svg"
   xmlns="http://www.w3.org/2000/svg"
   xmlns:xlink="http://www.w3.org/1999/xlink"
   xmlns:sodipodi="http://sodipodi.sourceforge.net/DTD/sodipodi-0.dtd"
   xmlns:inkscape="http://www.inkscape.org/namespaces/inkscape"
   width="170"
   height="170"
   fill="none"
   version="1.1"
   id="svg980"
   sodipodi:docname="qods.svg"
   inkscape:version="0.92.3 (2405546, 2018-03-11)"
   inkscape:export-filename="/home/sem/Dropbox/Разное/qods_big.png"
   inkscape:export-xdpi="564.70587"
   inkscape:export-ydpi="564.70587">
  <metadata
     id="metadata984">
    <rdf:RDF>
      <cc:Work
         rdf:about="">
        <dc:format>image/svg+xml</dc:format>
        <dc:type
           rdf:resource="http://purl.org/dc/dcmitype/StillImage" />
        <dc:title />
      </cc:Work>
    </rdf:RDF>
  </metadata>
  <sodipodi:namedview
     pagecolor="#ffffff"
     bordercolor="#666666"
     borderopacity="1"
     objecttolerance="10"
     gridtolerance="10"
     guidetolerance="10"
     inkscape:pageopacity="1"
     inkscape:pageshadow="2"
     inkscape:window-width="1853"
     inkscape:window-height="1025"
     id="namedview982"
     showgrid="true"
     inkscape:snap-grids="true"
     inkscape:zoom="3.9265224"
     inkscape:cx="64.680911"
     inkscape:cy="93.548388"
     inkscape:window-x="67"
     inkscape:window-y="27"
     inkscape:window-maximized="1"
     inkscape:current-layer="svg980">
    <inkscape:grid
       type="xygrid"
       id="grid5266" />
  </sodipodi:namedview>
  <path
     d="m 85.28505,136.90811 a 49.411764,49.411764 0 1 0 0,-98.82353 49.411763,49.411763 0 0 0 0,98.82353 z"
     id="path961"
     inkscape:connector-curvature="0"
     style="fill:#ffffff;stroke-width:0.58823496" />
  <path
     d="M 44.637987,90.731626 Z"
     id="path963"
     inkscape:connector-curvature="0"
     style="fill:#000000;stroke-width:0.58823496" />
  <path
     d="m 128.63794,109.08454 a 48.705875,48.705875 0 1 0 -73.705831,15.94117 c 1.058818,-8.64698 1.647055,-16.29403 1.352941,-17.64698 -1.705886,-8.000003 -6.470588,-8.823574 -3.235298,-23.058881 6.76471,-29.294099 28.647061,-33.117624 40.470585,-30.352919 9.294143,2.176471 16.352943,9.411759 20.470533,21.529415 4,12.117611 3.11773,18.411761 1.58827,22.470511 -0.41178,1.176471 -0.35286,1.117681 5.88243,5.706064 2.58813,1.88224 4.94118,3.58814 7.17637,5.41162 z"
     id="path965"
     style="fill:url(#paint0_linear);stroke-width:0.58823496"
     inkscape:connector-curvature="0" />
  <path
     d="m 54.814462,126.31987 a 1.1764705,1.1764705 0 0 1 -0.76471,-0.29416 50,50 0 1 1 75.588188,-16.35279 c -0.23519,0.29394 -0.58824,0.58814 -0.88223,0.58814 -0.41184,0.11767 -0.76484,0 -1.05895,-0.17652 -2,-1.58821 -4.11761,-3.11768 -6.29401,-4.76467 l -2.35305,-1.76471 a 42.941176,42.941176 0 0 1 -4.35294,-3.2941 c -1,-1.058773 -0.76464,-1.941194 -0.5294,-2.705904 1.29421,-3.41181 2.5294,-9.4118 -1.58822,-21.588226 -3.88233,-11.529409 -10.58826,-18.647066 -19.529388,-20.764705 -2.82353,-0.588242 -12.82353,-2.352946 -22.764702,3.882359 -8,5 -13.529418,13.588225 -16.235298,25.529396 -2.176467,9.352926 -0.705882,12.529346 1,16.23538 0.76471,1.7058 1.70588,3.64697 2.235298,6.29397 0.411763,1.94121 -0.764713,13.2354 -1.294123,18 -0.05878,0.4706 -0.35294,0.82353 -0.823515,1 0,0.11773 -0.176485,0.17654 -0.35295,0.17654 z M 85.108577,39.437521 A 47.529418,47.529418 0 0 0 53.814462,122.61393 c 1,-8.76457 1.294115,-14.1176 1.176465,-14.94101 -0.588234,-2.35305 -1.35294,-4.11776 -2.117642,-5.76481 -1.823533,-3.941254 -3.529415,-7.647054 -1.176472,-17.82353 2.823524,-12.647059 8.70588,-21.764716 17.352939,-27.11765 a 33.294125,33.294125 0 0 1 24.70588,-4.117651 c 9.764728,2.235305 17.117648,10 21.294068,22.352946 4.35305,12.941131 2.94117,19.411721 1.58824,23.235261 v 0.11767 c 0.35293,0.470551 1.76481,1.529384 3.88239,3.058774 l 2.35294,1.70594 5.17643,3.82346 A 47.529418,47.529418 0 0 0 85.108577,39.378688 Z"
     id="path967"
     inkscape:connector-curvature="0"
     style="fill:#000000;stroke-width:0.58823496" />
  <path
     d="m 89.637987,97.790526 c -1.176462,0 -2.352937,-1.1766 -3.64706,-3.70596 a 45.705875,45.705875 0 0 1 -2.941175,-8.17646 34.470582,34.470582 0 0 1 -1.176467,-10.17648 c 0.117642,-4 1.058824,-5.294105 1.411765,-5.647042 0.176475,-0.176481 3.588235,-3.529421 9.647059,-2.470601 6.000056,1.058826 6.176471,4.29412 6.294133,6.235296 v 0.52941 c 0.411731,4.352937 -3.294114,18.058817 -6.941192,22.000027 -0.94118,1 -1.764713,1.41181 -2.647063,1.41181 z M 85.108577,71.79046 c -0.11765,0.17647 -0.647052,1.23529 -0.705884,4 -0.117643,3.411765 0.29412,6.470585 1.058832,9.529412 1.764697,6.470614 3.588227,9.411784 4.294107,9.999974 0.647061,-0.29411 2.47059,-2.52936 4.470585,-8.52936 1.588245,-4.823556 2.647071,-10.000026 2.47057,-12.176503 V 74.02575 c -0.117632,-1.647061 -0.235258,-3.176471 -4.235262,-3.882349 a 8.4705823,8.4705823 0 0 0 -7.352948,1.647059 z m 0,0 c 0,0 -0.05879,0.05875 0,0 -0.05879,0.05875 0,0 0,0 z m -8.352945,43.11765 h -0.0588 C 66.461533,114.49633 59.049758,111.20229 54.637998,105.08454 49.932115,98.613926 49.932115,90.496336 51.343875,85.496311 a 1.2941176,1.2941176 0 0 1 1.529416,-0.82347 c 0.647052,0.176477 1.058824,0.82347 0.882347,1.529405 -1,3.52939 -1.529408,11.17647 2.941185,17.411684 3.941175,5.47061 10.705876,8.41178 20.117647,8.82356 0.647063,0 1.176466,0.58822 1.176466,1.29419 0,0.64705 -0.588237,1.17643 -1.235297,1.17643 z"
     id="path969"
     inkscape:connector-curvature="0"
     style="fill:#000000;stroke-width:0.58823496" />
  <path
     d="m 47.28505,64.672809 h 79.64707 c 0,0 -7.11763,12.235294 -18.52941,13.058817 -6.47057,0.529419 -11.235304,-5.176463 -13.941185,-7.529401 -2.058832,-1.764704 -3.941188,-2.117641 -8.294113,0 -2.94119,1.470584 -2.882362,4.352938 -9.823542,6.823525 -0.764706,0.235295 -12.470585,3.294114 -20.176458,-2.117647 -1.176485,-0.823519 -4.705887,-3 -7.058835,-6.235294 -2.352945,-3.117646 -1.764707,-3.941183 -1.764707,-4 z"
     id="path971"
     inkscape:connector-curvature="0"
     style="fill:#000000;stroke-width:0.58823496" />
  <defs
     id="defs978">
    <linearGradient
       id="paint0_linear"
       x1="43.8"
       y1="13.2"
       x2="120"
       y2="145.2"
       gradientUnits="userSpaceOnUse"
       gradientTransform="matrix(0.58823532,0,0,0.58823532,35.108577,36.908104)">
      <stop
         stop-color="#EF645E"
         id="stop973" />
      <stop
         offset="1"
         stop-color="#EB1E6F"
         id="stop975" />
    </linearGradient>
    <linearGradient
       inkscape:collect="always"
       xlink:href="#paint0_linear"
       id="linearGradient5240"
       x1="12.485535"
       y1="80.862602"
       x2="24.951153"
       y2="80.862602"
       gradientUnits="userSpaceOnUse"
       gradientTransform="translate(1.060241,1.78826)" />
    <linearGradient
       gradientTransform="translate(127.01141,1.7882609)"
       inkscape:collect="always"
       xlink:href="#paint0_linear"
       id="linearGradient5240-3"
       x1="12.485535"
       y1="80.862602"
       x2="22.98859"
       y2="83.211739"
       gradientUnits="userSpaceOnUse" />
  </defs>
  <path
     style="fill:url(#linearGradient5240);fill-opacity:1;stroke:none;stroke-width:1px;stroke-linecap:butt;stroke-linejoin:miter;stroke-opacity:1"
     d="M 14.048834,19.999999 15,140 H 25 V 20 Z"
     id="path5232"
     inkscape:connector-curvature="0"
     sodipodi:nodetypes="ccccc" />
  <path
     style="fill:url(#linearGradient5240-3);fill-opacity:1;stroke:none;stroke-width:1px;stroke-linecap:butt;stroke-linejoin:miter;stroke-opacity:1"
     d="m 140,20 10,60 -10,60 h 10 l 10,-60 -9.04884,-59.999999 z"
     id="path5232-5"
     inkscape:connector-curvature="0"
     sodipodi:nodetypes="ccccccc" />
  <g
     inkscape:groupmode="layer"
     id="layer1"
     inkscape:label="Layer 1" />
</svg>
