<?xml version="1.0" encoding="utf-8" standalone="no"?>
<!DOCTYPE svg PUBLIC "-//W3C//DTD SVG 1.1//EN"
  "http://www.w3.org/Graphics/SVG/1.1/DTD/svg11.dtd">
<!-- Created with matplotlib (https://matplotlib.org/) -->
<svg height="288pt" version="1.1" viewBox="0 0 432 288" width="432pt" xmlns="http://www.w3.org/2000/svg" xmlns:xlink="http://www.w3.org/1999/xlink">
 <metadata>
  <rdf:RDF xmlns:cc="http://creativecommons.org/ns#" xmlns:dc="http://purl.org/dc/elements/1.1/" xmlns:rdf="http://www.w3.org/1999/02/22-rdf-syntax-ns#">
   <cc:Work>
    <dc:type rdf:resource="http://purl.org/dc/dcmitype/StillImage"/>
    <dc:date>2021-08-29T11:50:17.491079</dc:date>
    <dc:format>image/svg+xml</dc:format>
    <dc:creator>
     <cc:Agent>
      <dc:title>Matplotlib v3.3.4, https://matplotlib.org/</dc:title>
     </cc:Agent>
    </dc:creator>
   </cc:Work>
  </rdf:RDF>
 </metadata>
 <defs>
  <style type="text/css">*{stroke-linecap:butt;stroke-linejoin:round;}</style>
 </defs>
 <g id="figure_1">
  <g id="patch_1">
   <path d="M 0 288
L 432 288
L 432 0
L 0 0
z
" style="fill:none;"/>
  </g>
  <g id="axes_1">
   <g id="patch_2">
    <path d="M 54 252
L 388.8 252
L 388.8 34.56
L 54 34.56
z
" style="fill:#ffffff;"/>
   </g>
   <g id="matplotlib.axis_1">
    <g id="xtick_1">
     <g id="line2d_1">
      <defs>
       <path d="M 0 0
L 0 3.5
" id="mdf25462947" style="stroke:#000000;stroke-width:0.8;"/>
      </defs>
      <g>
       <use style="stroke:#000000;stroke-width:0.8;" x="72.876399" xlink:href="#mdf25462947" y="252"/>
      </g>
     </g>
     <g id="text_1">
      <text style="font-family:DejaVu Sans;font-size:10px;font-stretch:normal;font-style:normal;font-weight:normal;text-anchor:middle;" transform="rotate(-0, 72.876399, 266.598437)" x="72.876399" y="266.598437">200</text>
     </g>
    </g>
    <g id="xtick_2">
     <g id="line2d_2">
      <g>
       <use style="stroke:#000000;stroke-width:0.8;" x="146.040734" xlink:href="#mdf25462947" y="252"/>
      </g>
     </g>
     <g id="text_2">
      <text style="font-family:DejaVu Sans;font-size:10px;font-stretch:normal;font-style:normal;font-weight:normal;text-anchor:middle;" transform="rotate(-0, 146.040734, 266.598437)" x="146.040734" y="266.598437">400</text>
     </g>
    </g>
    <g id="xtick_3">
     <g id="line2d_3">
      <g>
       <use style="stroke:#000000;stroke-width:0.8;" x="219.20507" xlink:href="#mdf25462947" y="252"/>
      </g>
     </g>
     <g id="text_3">
      <text style="font-family:DejaVu Sans;font-size:10px;font-stretch:normal;font-style:normal;font-weight:normal;text-anchor:middle;" transform="rotate(-0, 219.20507, 266.598437)" x="219.20507" y="266.598437">600</text>
     </g>
    </g>
    <g id="xtick_4">
     <g id="line2d_4">
      <g>
       <use style="stroke:#000000;stroke-width:0.8;" x="292.369406" xlink:href="#mdf25462947" y="252"/>
      </g>
     </g>
     <g id="text_4">
      <text style="font-family:DejaVu Sans;font-size:10px;font-stretch:normal;font-style:normal;font-weight:normal;text-anchor:middle;" transform="rotate(-0, 292.369406, 266.598437)" x="292.369406" y="266.598437">800</text>
     </g>
    </g>
    <g id="xtick_5">
     <g id="line2d_5">
      <g>
       <use style="stroke:#000000;stroke-width:0.8;" x="365.533741" xlink:href="#mdf25462947" y="252"/>
      </g>
     </g>
     <g id="text_5">
      <text style="font-family:DejaVu Sans;font-size:10px;font-stretch:normal;font-style:normal;font-weight:normal;text-anchor:middle;" transform="rotate(-0, 365.533741, 266.598437)" x="365.533741" y="266.598437">1000</text>
     </g>
    </g>
    <g id="text_6">
     <text style="font-family:DejaVu Sans;font-size:10px;font-stretch:normal;font-style:normal;font-weight:normal;text-anchor:middle;" transform="rotate(-0, 221.4, 280.276563)" x="221.4" y="280.276563">Время принятого сигнала, нс</text>
    </g>
   </g>
   <g id="matplotlib.axis_2">
    <g id="ytick_1">
     <g id="line2d_6">
      <defs>
       <path d="M 0 0
L -3.5 0
" id="m67bc5f80b0" style="stroke:#000000;stroke-width:0.8;"/>
      </defs>
      <g>
       <use style="stroke:#000000;stroke-width:0.8;" x="54" xlink:href="#m67bc5f80b0" y="248.431106"/>
      </g>
     </g>
     <g id="text_7">
      <text style="font-family:DejaVu Sans;font-size:10px;font-stretch:normal;font-style:normal;font-weight:normal;text-anchor:end;" transform="rotate(-0, 47, 252.230325)" x="47" y="252.230325">0.000</text>
     </g>
    </g>
    <g id="ytick_2">
     <g id="line2d_7">
      <g>
       <use style="stroke:#000000;stroke-width:0.8;" x="54" xlink:href="#m67bc5f80b0" y="222.186531"/>
      </g>
     </g>
     <g id="text_8">
      <text style="font-family:DejaVu Sans;font-size:10px;font-stretch:normal;font-style:normal;font-weight:normal;text-anchor:end;" transform="rotate(-0, 47, 225.98575)" x="47" y="225.98575">0.025</text>
     </g>
    </g>
    <g id="ytick_3">
     <g id="line2d_8">
      <g>
       <use style="stroke:#000000;stroke-width:0.8;" x="54" xlink:href="#m67bc5f80b0" y="195.941957"/>
      </g>
     </g>
     <g id="text_9">
      <text style="font-family:DejaVu Sans;font-size:10px;font-stretch:normal;font-style:normal;font-weight:normal;text-anchor:end;" transform="rotate(-0, 47, 199.741176)" x="47" y="199.741176">0.050</text>
     </g>
    </g>
    <g id="ytick_4">
     <g id="line2d_9">
      <g>
       <use style="stroke:#000000;stroke-width:0.8;" x="54" xlink:href="#m67bc5f80b0" y="169.697383"/>
      </g>
     </g>
     <g id="text_10">
      <text style="font-family:DejaVu Sans;font-size:10px;font-stretch:normal;font-style:normal;font-weight:normal;text-anchor:end;" transform="rotate(-0, 47, 173.496602)" x="47" y="173.496602">0.075</text>
     </g>
    </g>
    <g id="ytick_5">
     <g id="line2d_10">
      <g>
       <use style="stroke:#000000;stroke-width:0.8;" x="54" xlink:href="#m67bc5f80b0" y="143.452809"/>
      </g>
     </g>
     <g id="text_11">
      <text style="font-family:DejaVu Sans;font-size:10px;font-stretch:normal;font-style:normal;font-weight:normal;text-anchor:end;" transform="rotate(-0, 47, 147.252027)" x="47" y="147.252027">0.100</text>
     </g>
    </g>
    <g id="ytick_6">
     <g id="line2d_11">
      <g>
       <use style="stroke:#000000;stroke-width:0.8;" x="54" xlink:href="#m67bc5f80b0" y="117.208234"/>
      </g>
     </g>
     <g id="text_12">
      <text style="font-family:DejaVu Sans;font-size:10px;font-stretch:normal;font-style:normal;font-weight:normal;text-anchor:end;" transform="rotate(-0, 47, 121.007453)" x="47" y="121.007453">0.125</text>
     </g>
    </g>
    <g id="ytick_7">
     <g id="line2d_12">
      <g>
       <use style="stroke:#000000;stroke-width:0.8;" x="54" xlink:href="#m67bc5f80b0" y="90.96366"/>
      </g>
     </g>
     <g id="text_13">
      <text style="font-family:DejaVu Sans;font-size:10px;font-stretch:normal;font-style:normal;font-weight:normal;text-anchor:end;" transform="rotate(-0, 47, 94.762879)" x="47" y="94.762879">0.150</text>
     </g>
    </g>
    <g id="ytick_8">
     <g id="line2d_13">
      <g>
       <use style="stroke:#000000;stroke-width:0.8;" x="54" xlink:href="#m67bc5f80b0" y="64.719086"/>
      </g>
     </g>
     <g id="text_14">
      <text style="font-family:DejaVu Sans;font-size:10px;font-stretch:normal;font-style:normal;font-weight:normal;text-anchor:end;" transform="rotate(-0, 47, 68.518304)" x="47" y="68.518304">0.175</text>
     </g>
    </g>
    <g id="ytick_9">
     <g id="line2d_14">
      <g>
       <use style="stroke:#000000;stroke-width:0.8;" x="54" xlink:href="#m67bc5f80b0" y="38.474511"/>
      </g>
     </g>
     <g id="text_15">
      <text style="font-family:DejaVu Sans;font-size:10px;font-stretch:normal;font-style:normal;font-weight:normal;text-anchor:end;" transform="rotate(-0, 47, 42.27373)" x="47" y="42.27373">0.200</text>
     </g>
    </g>
    <g id="text_16">
     <text style="font-family:DejaVu Sans;font-size:10px;font-stretch:normal;font-style:normal;font-weight:normal;text-anchor:middle;" transform="rotate(-90, 12.292187, 143.28)" x="12.292187" y="143.28">Сигнал приёмника, отн. ед.</text>
    </g>
   </g>
   <g id="line2d_15">
    <path clip-path="url(#p65f8cd5f6f)" d="M 69.218182 239.69872
L 69.949825 227.807212
L 70.681469 226.601269
L 71.413112 135.950456
L 72.144755 98.36986
L 72.876399 140.303122
L 73.608042 72.805609
L 74.339685 44.443636
L 75.071329 82.770421
L 75.802972 106.329386
L 76.534615 89.965283
L 77.266259 76.604258
L 77.997902 120.489036
L 78.729545 133.269005
L 79.461189 81.011043
L 80.192832 129.310337
L 80.924476 150.302497
L 81.656119 98.85638
L 82.387762 117.845098
L 83.119406 159.346948
L 83.851049 120.532088
L 84.582692 113.968599
L 85.314336 139.696071
L 86.045979 157.969096
L 86.777622 88.719252
L 87.509266 115.504785
L 88.240909 162.888135
L 88.972552 122.786823
L 89.704196 132.129385
L 90.435839 166.118878
L 91.899126 125.023215
L 92.630769 153.5657
L 93.362413 172.365322
L 94.094056 119.330423
L 95.557343 173.747872
L 96.288986 138.976117
L 97.020629 134.477609
L 97.752273 177.542094
L 98.483916 148.84302
L 99.215559 139.016208
L 100.678846 175.497503
L 101.41049 133.828494
L 102.142133 151.937357
L 102.873776 192.969695
L 103.60542 150.477462
L 104.337063 162.806879
L 105.068706 186.161474
L 106.531993 149.75393
L 107.263636 171.89261
L 107.99528 184.716228
L 108.726923 151.752635
L 109.458566 179.844409
L 110.19021 202.344441
L 110.921853 161.933551
L 111.653497 166.640701
L 112.38514 186.570469
L 113.116783 179.82705
L 113.848427 158.003086
L 114.58007 184.68495
L 115.311713 179.234859
L 116.043357 151.758106
L 116.775 167.438388
L 117.506643 203.275282
L 118.238287 163.422148
L 118.96993 170.564937
L 119.701573 206.844739
L 120.433217 192.440283
L 121.16486 169.901917
L 121.896503 202.613156
L 122.628147 203.8275
L 123.35979 169.906973
L 124.091434 185.111126
L 124.823077 215.183111
L 125.55472 179.80765
L 126.286364 182.247388
L 127.018007 204.437216
L 127.74965 195.650044
L 128.481294 193.401435
L 129.212937 189.892769
L 129.94458 192.91686
L 130.676224 193.324005
L 131.407867 186.201329
L 132.13951 196.82526
L 132.871154 189.793814
L 133.602797 192.127148
L 134.334441 197.96867
L 135.066084 199.839197
L 135.797727 194.07719
L 136.529371 194.253183
L 137.261014 207.40333
L 137.992657 197.424059
L 138.724301 192.588166
L 139.455944 200.999206
L 140.187587 197.393256
L 140.919231 196.244047
L 141.650874 203.343046
L 142.382517 198.693931
L 143.114161 203.252231
L 143.845804 158.827442
L 144.577448 136.579929
L 145.309091 129.713941
L 146.040734 107.624362
L 146.772378 79.330093
L 147.504021 88.18044
L 148.235664 112.789812
L 148.967308 112.401955
L 149.698951 111.299157
L 151.162238 152.301629
L 151.893881 137.603413
L 152.625524 139.910131
L 153.357168 156.493751
L 154.088811 147.204196
L 154.820455 141.301072
L 155.552098 153.103317
L 156.283741 166.974612
L 157.015385 152.269302
L 157.747028 151.17539
L 158.478671 163.998997
L 159.210315 165.026396
L 159.941958 146.28753
L 160.673601 162.366984
L 161.405245 166.792717
L 162.136888 161.65104
L 162.868531 170.517261
L 163.600175 175.100587
L 164.331818 162.769809
L 165.063462 158.56582
L 165.795105 165.172492
L 166.526748 163.344876
L 167.258392 163.077315
L 167.990035 171.394821
L 168.721678 168.854513
L 169.453322 169.917073
L 170.184965 171.325448
L 170.916608 168.93976
L 171.648252 164.84065
L 172.379895 165.356769
L 173.111538 171.85972
L 173.843182 171.230629
L 174.574825 170.818376
L 175.306469 179.967868
L 176.038112 175.098378
L 176.769755 167.231583
L 177.501399 172.309544
L 178.233042 184.526559
L 178.964685 167.609735
L 179.696329 169.674545
L 180.427972 184.477323
L 181.159615 173.903861
L 181.891259 174.023561
L 182.622902 174.945025
L 183.354545 173.27798
L 184.086189 173.086286
L 184.817832 182.449425
L 185.549476 179.574929
L 186.281119 174.097903
L 187.012762 178.335755
L 187.744406 183.820933
L 188.476049 169.014538
L 189.939336 181.672598
L 190.670979 188.594171
L 191.402622 172.155432
L 192.134266 183.749447
L 192.865909 182.816045
L 193.597552 182.70012
L 194.329196 184.927697
L 195.060839 194.307783
L 195.792483 177.643319
L 196.524126 178.666548
L 197.255769 191.692506
L 197.987413 182.412403
L 198.719056 178.344851
L 199.450699 184.708036
L 200.182343 189.132897
L 200.913986 183.248459
L 201.645629 184.69849
L 202.377273 195.494044
L 203.108916 189.820618
L 203.840559 195.196844
L 204.572203 188.086836
L 205.303846 193.503578
L 206.03549 189.364968
L 206.767133 194.605359
L 207.498776 197.111417
L 208.23042 183.850514
L 208.962063 191.203407
L 209.693706 189.639973
L 210.42535 189.813443
L 211.156993 192.827958
L 211.888636 203.232399
L 212.62028 190.891517
L 213.351923 191.978065
L 214.81521 203.07169
L 215.546853 191.657676
L 216.278497 195.562596
L 217.01014 196.543515
L 217.741783 192.666717
L 218.473427 201.785927
L 219.20507 198.963761
L 219.936713 190.855767
L 220.668357 196.456115
L 221.4 199.560081
L 222.131643 199.57449
L 222.863287 199.185963
L 223.59493 203.46211
L 224.326573 203.480014
L 225.058217 193.006633
L 225.78986 203.311076
L 226.521503 207.258923
L 227.253147 199.457627
L 227.98479 198.414519
L 228.716434 200.161001
L 229.448077 199.739891
L 230.17972 196.936757
L 230.911364 200.033119
L 231.643007 198.935622
L 232.37465 203.993258
L 233.106294 201.862364
L 233.837937 207.895216
L 234.56958 202.307048
L 235.301224 200.08416
L 236.032867 207.954405
L 236.76451 208.906953
L 237.496154 203.051227
L 238.227797 205.462883
L 238.959441 209.67681
L 239.691084 207.217355
L 240.422727 206.186942
L 241.154371 206.321025
L 241.886014 205.683032
L 242.617657 199.830507
L 243.349301 212.456777
L 244.080944 212.058811
L 244.812587 200.874626
L 245.544231 207.776213
L 246.275874 211.741486
L 247.007517 204.835601
L 247.739161 205.548465
L 248.470804 215.810377
L 249.202448 207.141913
L 249.934091 208.954956
L 250.665734 214.212398
L 251.397378 215.178475
L 252.129021 205.157081
L 252.860664 208.273506
L 253.592308 209.405412
L 254.323951 210.051252
L 255.055594 209.117742
L 255.787238 218.973003
L 256.518881 208.956742
L 257.250524 209.241816
L 257.982168 207.022272
L 258.713811 214.326684
L 259.445455 205.169262
L 260.177098 215.831067
L 260.908741 213.34085
L 261.640385 208.438791
L 262.372028 206.890129
L 263.103671 218.692824
L 263.835315 218.694718
L 264.566958 215.251138
L 266.030245 214.62679
L 266.761888 215.440751
L 267.493531 213.670518
L 268.225175 213.957648
L 268.956818 218.123013
L 269.688462 214.187757
L 270.420105 219.210507
L 271.151748 211.503596
L 271.883392 209.476844
L 272.615035 215.896801
L 273.346678 217.74798
L 274.078322 216.533147
L 274.809965 214.365554
L 275.541608 215.934283
L 276.273252 217.059366
L 277.004895 210.015387
L 277.736538 216.050261
L 278.468182 213.423264
L 279.199825 214.218789
L 279.931469 215.598292
L 280.663112 215.048833
L 281.394755 215.194725
L 282.126399 219.232658
L 282.858042 218.214377
L 283.589685 205.256303
L 284.321329 213.298753
L 285.052972 218.741981
L 285.784615 216.659281
L 286.516259 213.411782
L 287.247902 221.619945
L 287.979545 218.899143
L 288.711189 217.691639
L 289.442832 222.931485
L 290.174476 223.707581
L 290.906119 214.778818
L 291.637762 210.656689
L 292.369406 220.762959
L 293.101049 218.640027
L 293.832692 221.931222
L 294.564336 223.088214
L 296.027622 218.667236
L 296.759266 222.94077
L 297.490909 225.215953
L 298.222552 213.138368
L 298.954196 226.097325
L 301.149126 214.801103
L 302.612413 232.640041
L 303.344056 220.73244
L 304.075699 227.747236
L 304.807343 220.120649
L 305.538986 219.73583
L 306.270629 220.08485
L 307.002273 224.858729
L 308.465559 215.424923
L 309.197203 232.175451
L 309.928846 227.569632
L 310.66049 221.10868
L 311.392133 224.383679
L 312.123776 225.331599
L 312.85542 219.228193
L 313.587063 222.95066
L 314.318706 225.124839
L 315.05035 222.861626
L 315.781993 216.368717
L 316.513636 221.807495
L 317.24528 225.760649
L 317.976923 223.891414
L 318.708566 220.77171
L 319.44021 225.575589
L 320.171853 226.210742
L 320.903497 223.443689
L 321.63514 228.437887
L 322.366783 221.913517
L 323.83007 226.798944
L 324.561713 227.691233
L 325.293357 225.000541
L 326.025 218.684512
L 326.756643 229.878468
L 327.488287 222.589035
L 328.21993 218.32963
L 328.951573 221.661522
L 329.683217 219.72889
L 330.41486 224.464093
L 331.146503 225.308433
L 331.878147 228.693203
L 332.60979 224.110572
L 333.341434 225.589211
L 334.073077 232.30768
L 334.80472 221.36338
L 335.536364 223.47593
L 336.268007 226.921618
L 336.99965 227.290998
L 337.731294 222.049395
L 338.462937 226.718844
L 339.19458 229.746986
L 339.926224 222.666954
L 340.657867 229.344729
L 341.38951 231.367478
L 342.121154 224.727494
L 342.852797 226.283082
L 343.584441 230.687348
L 344.316084 230.952717
L 345.047727 228.610612
L 345.779371 222.662383
L 346.511014 234.225968
L 347.242657 231.19819
L 347.974301 236.931908
L 348.705944 229.271457
L 349.437587 230.271112
L 350.169231 223.890644
L 350.900874 221.555757
L 351.632517 226.377638
L 352.364161 234.108516
L 353.095804 231.053714
L 353.827448 231.784631
L 354.559091 232.691172
L 355.290734 234.072166
L 356.022378 228.922304
L 356.754021 231.236016
L 357.485664 231.182059
L 358.217308 228.838486
L 358.948951 225.424649
L 359.680594 231.191009
L 360.412238 224.490089
L 361.143881 228.069002
L 361.875524 226.966705
L 362.607168 229.462303
L 363.338811 232.717741
L 364.070455 225.670145
L 364.802098 227.091182
L 366.265385 233.036101
L 366.997028 225.963915
L 367.728671 226.957127
L 368.460315 231.152011
L 369.191958 225.92117
L 369.923601 230.745361
L 370.655245 237.780474
L 371.386888 230.956385
L 372.118531 226.134376
L 372.850175 228.994946
L 373.581818 235.723365
L 373.581818 235.723365
" style="fill:none;stroke:#1f77b4;stroke-linecap:square;stroke-width:1.5;"/>
   </g>
   <g id="line2d_16">
    <path clip-path="url(#p65f8cd5f6f)" d="M 69.218182 236.358131
L 69.949825 219.2957
L 70.681469 228.915288
L 71.413112 140.255499
L 72.144755 100.512791
L 72.876399 134.049466
L 73.608042 76.389143
L 74.339685 47.646788
L 75.802972 108.860825
L 76.534615 88.430587
L 77.266259 74.783037
L 77.997902 120.458264
L 78.729545 135.348375
L 79.461189 83.572215
L 80.192832 127.625534
L 80.924476 137.586347
L 81.656119 101.836645
L 82.387762 117.56596
L 83.119406 154.70174
L 83.851049 123.526184
L 84.582692 100.042811
L 86.045979 161.407002
L 86.777622 87.47966
L 87.509266 106.965957
L 88.240909 163.642834
L 88.972552 128.042808
L 89.704196 122.885191
L 90.435839 160.047242
L 91.167483 143.821806
L 91.899126 122.28656
L 92.630769 150.447775
L 93.362413 166.302582
L 94.094056 119.164708
L 95.557343 173.065725
L 96.288986 131.12745
L 97.020629 132.510412
L 97.752273 166.051656
L 98.483916 141.255125
L 99.215559 128.050111
L 99.947203 158.246816
L 100.678846 167.561405
L 101.41049 136.72266
L 102.142133 148.922045
L 102.873776 181.019163
L 103.60542 141.387128
L 104.337063 151.508752
L 105.068706 178.998803
L 105.80035 167.179128
L 106.531993 139.684782
L 107.263636 170.019677
L 107.99528 174.89998
L 108.726923 138.979471
L 109.458566 164.297333
L 110.19021 194.87723
L 110.921853 151.996516
L 111.653497 144.706823
L 112.38514 175.977682
L 113.116783 163.097166
L 113.848427 136.311545
L 114.58007 164.377373
L 115.311713 172.813262
L 116.043357 140.787863
L 116.775 150.503569
L 117.506643 182.105439
L 118.238287 149.94991
L 118.96993 156.192115
L 119.701573 178.280258
L 120.433217 172.060949
L 121.16486 142.46258
L 121.896503 159.282584
L 122.628147 181.217194
L 123.35979 151.462199
L 124.091434 151.772679
L 124.823077 192.714545
L 125.55472 164.672265
L 126.286364 156.87686
L 127.018007 169.176505
L 127.74965 163.627328
L 128.481294 153.661656
L 129.94458 163.481716
L 130.676224 155.076309
L 131.407867 151.660978
L 132.13951 158.170329
L 132.871154 159.900626
L 133.602797 150.422323
L 134.334441 148.457748
L 135.066084 156.516013
L 135.797727 147.662088
L 136.529371 152.790291
L 137.261014 159.833734
L 137.992657 156.339499
L 138.724301 139.056186
L 139.455944 158.011971
L 140.187587 158.986215
L 140.919231 146.870676
L 141.650874 153.089796
L 142.382517 154.056461
L 143.114161 154.565363
L 143.845804 115.955571
L 144.577448 102.716909
L 145.309091 112.744366
L 146.040734 83.312234
L 146.772378 76.303274
L 147.504021 103.819157
L 148.235664 139.196801
L 148.967308 127.084069
L 149.698951 135.055521
L 150.430594 166.679482
L 151.162238 173.243949
L 151.893881 156.800097
L 152.625524 170.253156
L 153.357168 178.781369
L 154.088811 159.569285
L 154.820455 161.393134
L 155.552098 188.880449
L 157.015385 176.733993
L 157.747028 185.112278
L 158.478671 178.3456
L 159.210315 168.078809
L 159.941958 178.163467
L 160.673601 179.439451
L 162.136888 180.435883
L 162.868531 186.417516
L 163.600175 182.663158
L 164.331818 176.506879
L 165.063462 184.822912
L 165.795105 189.293375
L 166.526748 188.005596
L 167.258392 182.751759
L 167.990035 185.770564
L 168.721678 173.590157
L 169.453322 184.548949
L 170.184965 188.053642
L 170.916608 185.80842
L 171.648252 181.08891
L 172.379895 191.726546
L 173.111538 187.598447
L 173.843182 184.805986
L 174.574825 193.081313
L 175.306469 199.66744
L 176.038112 181.734573
L 176.769755 197.800418
L 177.501399 195.049558
L 178.233042 196.61746
L 178.964685 201.41632
L 179.696329 197.328106
L 180.427972 197.466328
L 181.159615 198.834973
L 181.891259 199.114597
L 182.622902 190.439311
L 183.354545 193.353451
L 184.086189 202.958301
L 184.817832 202.203242
L 185.549476 189.893421
L 186.281119 202.483898
L 187.012762 200.025199
L 187.744406 195.619039
L 188.476049 203.097498
L 189.207692 204.132065
L 189.939336 199.388127
L 190.670979 198.427348
L 191.402622 213.277707
L 192.134266 208.460432
L 192.865909 204.998135
L 193.597552 206.986024
L 194.329196 209.982419
L 195.060839 206.049958
L 195.792483 207.11017
L 196.524126 207.042472
L 197.255769 203.441473
L 197.987413 212.605903
L 198.719056 212.299498
L 199.450699 206.30251
L 200.182343 209.440756
L 200.913986 215.962946
L 201.645629 208.286157
L 202.377273 202.724801
L 203.108916 215.820514
L 203.840559 213.011497
L 204.572203 212.204816
L 205.303846 215.945997
L 206.03549 216.131392
L 206.767133 220.554359
L 207.498776 215.028797
L 208.23042 216.649504
L 208.962063 216.094988
L 209.693706 218.529961
L 210.42535 216.375991
L 211.156993 216.525463
L 211.888636 214.834224
L 212.62028 219.752829
L 213.351923 226.489418
L 214.083566 220.828935
L 214.81521 219.154336
L 215.546853 230.422102
L 216.278497 220.154683
L 217.01014 224.379905
L 217.741783 217.381888
L 218.473427 225.488254
L 219.20507 220.904662
L 219.936713 223.445284
L 220.668357 225.188342
L 221.4 225.927137
L 222.131643 230.742963
L 222.863287 225.598192
L 223.59493 229.918994
L 224.326573 224.82743
L 225.058217 223.779123
L 225.78986 225.280492
L 226.521503 228.996206
L 227.253147 225.48255
L 227.98479 229.559906
L 228.716434 227.909316
L 229.448077 232.909852
L 230.17972 218.558221
L 230.911364 225.732488
L 231.643007 231.748833
L 232.37465 224.066808
L 233.106294 234.587994
L 233.837937 228.95316
L 234.56958 230.306656
L 235.301224 226.928638
L 236.032867 225.62034
L 236.76451 232.836077
L 237.496154 230.277785
L 238.227797 232.899662
L 238.959441 239.522445
L 239.691084 229.46819
L 240.422727 232.276705
L 241.154371 231.722051
L 241.886014 230.922787
L 242.617657 228.958192
L 243.349301 237.587894
L 244.080944 237.858605
L 244.812587 232.160532
L 245.544231 232.937926
L 246.275874 235.350508
L 247.007517 234.570342
L 247.739161 234.288807
L 248.470804 234.260812
L 249.934091 230.338871
L 250.665734 235.976289
L 251.397378 232.801207
L 252.129021 237.663737
L 252.860664 234.168524
L 253.592308 241.551903
L 254.323951 230.082211
L 255.055594 239.678695
L 255.787238 235.393225
L 256.518881 232.701566
L 257.250524 235.983358
L 257.982168 237.754551
L 258.713811 233.2775
L 259.445455 235.828918
L 260.177098 239.130398
L 260.908741 237.817097
L 261.640385 225.61651
L 262.372028 240.859344
L 263.103671 235.757499
L 263.835315 231.998228
L 264.566958 233.963848
L 266.030245 236.531484
L 266.761888 230.805227
L 267.493531 235.325738
L 268.225175 230.135407
L 268.956818 230.902437
L 269.688462 240.131393
L 270.420105 239.013226
L 271.151748 238.605156
L 271.883392 235.505661
L 273.346678 233.353143
L 274.078322 234.252501
L 275.541608 230.792942
L 276.273252 240.88456
L 277.004895 237.384912
L 277.736538 228.73392
L 278.468182 236.012084
L 279.199825 229.743181
L 279.931469 228.852796
L 280.663112 233.585584
L 281.394755 237.489017
L 282.126399 237.149356
L 282.858042 234.069247
L 283.589685 235.92904
L 284.321329 234.964474
L 285.052972 231.380769
L 285.784615 232.345177
L 286.516259 228.501104
L 287.247902 231.185378
L 287.979545 230.861619
L 288.711189 235.043591
L 289.442832 237.74167
L 290.174476 233.974855
L 290.906119 237.224673
L 291.637762 236.558448
L 292.369406 230.429849
L 293.101049 236.671205
L 293.832692 226.806512
L 294.564336 234.798456
L 295.295979 232.054815
L 296.027622 235.07799
L 296.759266 230.747726
L 297.490909 230.720748
L 298.222552 228.071787
L 298.954196 233.984047
L 299.685839 223.135816
L 300.417483 232.53081
L 301.149126 229.03997
L 302.612413 237.536061
L 303.344056 233.937162
L 304.075699 232.813839
L 304.807343 228.07949
L 306.270629 232.460813
L 307.002273 224.183389
L 307.733916 236.066139
L 308.465559 236.669547
L 309.197203 226.753074
L 309.928846 236.032975
L 310.66049 233.665399
L 311.392133 233.705022
L 312.123776 236.014174
L 312.85542 236.851111
L 313.587063 228.380983
L 314.318706 230.348741
L 315.05035 229.689906
L 315.781993 225.785191
L 316.513636 233.930915
L 317.24528 226.442585
L 317.976923 232.006671
L 318.708566 231.969632
L 319.44021 229.870064
L 320.171853 234.686396
L 320.903497 230.843217
L 321.63514 228.553564
L 322.366783 233.553901
L 323.098427 236.674149
L 323.83007 225.203047
L 324.561713 232.904836
L 325.293357 228.694243
L 326.025 229.534337
L 326.756643 229.71482
L 327.488287 238.814425
L 328.21993 226.355966
L 328.951573 229.58149
L 329.683217 237.105232
L 330.41486 228.204531
L 331.146503 229.248328
L 331.878147 233.679903
L 332.60979 231.806133
L 333.341434 234.058599
L 334.073077 234.940221
L 334.80472 230.700334
L 335.536364 231.737763
L 336.268007 229.794045
L 336.99965 233.959128
L 337.731294 236.117145
L 338.462937 228.151881
L 339.19458 233.501347
L 339.926224 226.173455
L 340.657867 229.544286
L 341.38951 236.887905
L 342.121154 229.527337
L 342.852797 228.691207
L 343.584441 230.131741
L 344.316084 231.971048
L 345.047727 224.298896
L 346.511014 233.478102
L 347.242657 235.099601
L 347.974301 229.997742
L 348.705944 230.871027
L 349.437587 227.818121
L 350.169231 231.086842
L 350.900874 231.245972
L 351.632517 231.701216
L 352.364161 237.414046
L 353.095804 227.048977
L 353.827448 229.439003
L 354.559091 233.63271
L 355.290734 233.870495
L 356.022378 235.533914
L 356.754021 233.606844
L 357.485664 227.309591
L 358.217308 230.918011
L 358.948951 237.044569
L 359.680594 236.261289
L 360.412238 237.47134
L 361.143881 231.183151
L 361.875524 232.218743
L 362.607168 235.698577
L 363.338811 233.524478
L 364.070455 232.393577
L 364.802098 242.116364
L 365.533741 230.388301
L 366.265385 234.973357
L 366.997028 237.129241
L 367.728671 236.796932
L 368.460315 234.831963
L 369.191958 234.552581
L 369.923601 233.340711
L 370.655245 239.245124
L 371.386888 227.563239
L 372.118531 235.226616
L 372.850175 238.181703
L 373.581818 235.182127
L 373.581818 235.182127
" style="fill:none;stroke:#ff7f0e;stroke-linecap:square;stroke-width:1.5;"/>
   </g>
   <g id="patch_3">
    <path d="M 54 252
L 54 34.56
" style="fill:none;stroke:#000000;stroke-linecap:square;stroke-linejoin:miter;stroke-width:0.8;"/>
   </g>
   <g id="patch_4">
    <path d="M 388.8 252
L 388.8 34.56
" style="fill:none;stroke:#000000;stroke-linecap:square;stroke-linejoin:miter;stroke-width:0.8;"/>
   </g>
   <g id="patch_5">
    <path d="M 54 252
L 388.8 252
" style="fill:none;stroke:#000000;stroke-linecap:square;stroke-linejoin:miter;stroke-width:0.8;"/>
   </g>
   <g id="patch_6">
    <path d="M 54 34.56
L 388.8 34.56
" style="fill:none;stroke:#000000;stroke-linecap:square;stroke-linejoin:miter;stroke-width:0.8;"/>
   </g>
  </g>
 </g>
 <defs>
  <clipPath id="p65f8cd5f6f">
   <rect height="217.44" width="334.8" x="54" y="34.56"/>
  </clipPath>
 </defs>
</svg>
