<?xml version="1.0" encoding="UTF-8" standalone="no"?>
<!-- Created with matplotlib (https://matplotlib.org/) -->

<svg
   height="148.97885pt"
   version="1.1"
   viewBox="0 0 358.29159 148.97885"
   width="358.2916pt"
   id="svg628"
   sodipodi:docname="external-drive.svg"
   inkscape:version="1.1 (c68e22c387, 2021-05-23)"
   xmlns:inkscape="http://www.inkscape.org/namespaces/inkscape"
   xmlns:sodipodi="http://sodipodi.sourceforge.net/DTD/sodipodi-0.dtd"
   xmlns="http://www.w3.org/2000/svg"
   xmlns:svg="http://www.w3.org/2000/svg"
   xmlns:rdf="http://www.w3.org/1999/02/22-rdf-syntax-ns#"
   xmlns:cc="http://creativecommons.org/ns#"
   xmlns:dc="http://purl.org/dc/elements/1.1/">
  <metadata
     id="metadata632">
    <rdf:RDF>
      <cc:Work
         rdf:about="">
        <dc:format>image/svg+xml</dc:format>
        <dc:type
           rdf:resource="http://purl.org/dc/dcmitype/StillImage" />
      </cc:Work>
    </rdf:RDF>
  </metadata>
  <sodipodi:namedview
     pagecolor="#ffffff"
     bordercolor="#666666"
     borderopacity="1"
     objecttolerance="10"
     gridtolerance="10"
     guidetolerance="10"
     inkscape:pageopacity="0"
     inkscape:pageshadow="2"
     inkscape:window-width="1920"
     inkscape:window-height="1017"
     id="namedview630"
     showgrid="true"
     inkscape:zoom="1.8884063"
     inkscape:cx="270.86332"
     inkscape:cy="106.17419"
     inkscape:window-x="-8"
     inkscape:window-y="-8"
     inkscape:window-maximized="1"
     inkscape:current-layer="svg628"
     fit-margin-top="0"
     fit-margin-left="0"
     fit-margin-right="0"
     fit-margin-bottom="0"
     inkscape:pagecheckerboard="0"
     inkscape:document-units="pt">
    <inkscape:grid
       type="xygrid"
       id="grid5109"
       originx="-62.39839"
       originy="-151.45377" />
  </sodipodi:namedview>
  <defs
     id="defs4"
     style="stroke-linecap:butt;stroke-linejoin:round">
    <style
       type="text/css"
       id="style2">
*{stroke-linecap:butt;stroke-linejoin:round;}
  </style>
  </defs>
  <g
     id="patch_2"
     style="stroke:#c00000;stroke-linecap:butt;stroke-linejoin:round;stroke-opacity:1"
     transform="matrix(0.9,0,0,0.9,-104.94001,-134.60878)">
    <path
       clip-path="url(#pc8666e03fe)"
       d="m 245.34,184.082 c 0.64444,0 1.26258,-0.22475 1.71827,-0.62474 0.45569,-0.4 0.71173,-0.94258 0.71173,-1.50826 0,-0.56568 -0.25604,-1.10826 -0.71173,-1.50826 -0.45569,-0.39999 -1.07383,-0.62474 -1.71827,-0.62474 -0.64444,0 -1.26258,0.22475 -1.71827,0.62474 -0.45569,0.4 -0.71173,0.94258 -0.71173,1.50826 0,0.56568 0.25604,1.10826 0.71173,1.50826 0.45569,0.39999 1.07383,0.62474 1.71827,0.62474 z"
       style="stroke:#c00000;stroke-width:2;stroke-linecap:butt;stroke-linejoin:miter;stroke-opacity:1"
       id="path9"
       inkscape:connector-curvature="0" />
  </g>
  <g
     id="patch_3"
     style="stroke-linecap:butt;stroke-linejoin:round"
     transform="matrix(0.9,0,0,0.9,-78.209996,-134.60878)">
    <path
       clip-path="url(#pc8666e03fe)"
       d="m 115.74,184.082 c 0.64444,0 1.26258,-0.22475 1.71827,-0.62474 0.45569,-0.4 0.71173,-0.94258 0.71173,-1.50826 0,-0.56568 -0.25604,-1.10826 -0.71173,-1.50826 -0.45569,-0.39999 -1.07383,-0.62474 -1.71827,-0.62474 -0.64444,0 -1.26258,0.22475 -1.71827,0.62474 -0.45569,0.4 -0.71173,0.94258 -0.71173,1.50826 0,0.56568 0.25604,1.10826 0.71173,1.50826 0.45569,0.39999 1.07383,0.62474 1.71827,0.62474 z"
       style="stroke:#000000;stroke-width:2;stroke-linecap:butt;stroke-linejoin:miter"
       id="path12"
       inkscape:connector-curvature="0"
       transform="translate(23.309996)" />
  </g>
  <g
     id="patch_5"
     style="stroke:#0000c0;stroke-linecap:butt;stroke-linejoin:round;stroke-opacity:1"
     transform="matrix(0.9,0,0,0.9,-100.08439,-134.60878)">
    <path
       clip-path="url(#pc8666e03fe)"
       d="m 423.54,184.082 c 0.64444,0 1.26258,-0.22475 1.71827,-0.62474 0.45569,-0.4 0.71173,-0.94258 0.71173,-1.50826 0,-0.56568 -0.25604,-1.10826 -0.71173,-1.50826 -0.45569,-0.39999 -1.07383,-0.62474 -1.71827,-0.62474 -0.64444,0 -1.26258,0.22475 -1.71827,0.62474 -0.45569,0.4 -0.71173,0.94258 -0.71173,1.50826 0,0.56568 0.25604,1.10826 0.71173,1.50826 0.45569,0.39999 1.07383,0.62474 1.71827,0.62474 z"
       style="stroke:#0000c0;stroke-width:2;stroke-linecap:butt;stroke-linejoin:miter;stroke-opacity:1"
       id="path18"
       inkscape:connector-curvature="0" />
  </g>
  <g
     id="patch_7"
     style="stroke-linecap:butt;stroke-linejoin:round"
     transform="matrix(0.9,0,0,0.9,-104.94001,-134.60878)">
    <path
       clip-path="url(#pc8666e03fe)"
       d="m 399.24,240.962 c 0.64444,0 1.26258,-0.22475 1.71827,-0.62474 0.45569,-0.4 0.71173,-0.94258 0.71173,-1.50826 0,-0.56568 -0.25604,-1.10826 -0.71173,-1.50826 -0.45569,-0.39999 -1.07383,-0.62474 -1.71827,-0.62474 -0.64444,0 -1.26258,0.22475 -1.71827,0.62474 -0.45569,0.4 -0.71173,0.94258 -0.71173,1.50826 0,0.56568 0.25604,1.10826 0.71173,1.50826 0.45569,0.39999 1.07383,0.62474 1.71827,0.62474 z"
       style="stroke:#000000;stroke-width:2;stroke-linecap:butt;stroke-linejoin:miter"
       id="path24"
       inkscape:connector-curvature="0" />
  </g>
  <g
     id="patch_8"
     style="stroke-linecap:butt;stroke-linejoin:round"
     transform="matrix(0.9,0,0,0.9,-101.91439,-134.60878)">
    <path
       clip-path="url(#pc8666e03fe)"
       d="m 431.64,238.829 c 0,0.94248 0.42699,1.84733 1.18622,2.51377 0.75923,0.66643 1.79006,1.04123 2.86378,1.04123 1.07371,0 2.10455,-0.3748 2.86378,-1.04123 0.75923,-0.66644 1.18622,-1.57129 1.18622,-2.51377"
       style="fill:none;stroke:#000000;stroke-width:2;stroke-linecap:butt;stroke-linejoin:miter"
       id="path27"
       inkscape:connector-curvature="0" />
  </g>
  <g
     id="patch_9"
     style="stroke-linecap:butt;stroke-linejoin:round"
     transform="matrix(0.9,0,0,0.9,-101.91439,-134.60878)">
    <path
       clip-path="url(#pc8666e03fe)"
       d="m 423.54,238.829 c 0,0.94248 0.42699,1.84733 1.18622,2.51377 0.75923,0.66643 1.79006,1.04123 2.86378,1.04123 1.07372,0 2.10455,-0.3748 2.86378,-1.04123 0.75923,-0.66644 1.18622,-1.57129 1.18622,-2.51377"
       style="fill:none;stroke:#000000;stroke-width:2;stroke-linecap:butt;stroke-linejoin:miter"
       id="path30"
       inkscape:connector-curvature="0" />
  </g>
  <g
     id="patch_10"
     style="stroke-linecap:butt;stroke-linejoin:round"
     transform="matrix(0.9,0,0,0.9,-101.91439,-134.60878)">
    <path
       clip-path="url(#pc8666e03fe)"
       d="m 415.44,238.829 c 0,0.94248 0.42699,1.84733 1.18622,2.51377 0.75923,0.66643 1.79007,1.04123 2.86378,1.04123 1.07371,0 2.10455,-0.3748 2.86378,-1.04123 0.75923,-0.66644 1.18622,-1.57129 1.18622,-2.51377"
       style="fill:none;stroke:#000000;stroke-width:2;stroke-linecap:butt;stroke-linejoin:miter"
       id="path33"
       inkscape:connector-curvature="0" />
  </g>
  <g
     id="patch_11"
     style="stroke-linecap:butt;stroke-linejoin:round"
     transform="matrix(0.9,0,0,0.9,-101.91439,-134.60878)">
    <path
       clip-path="url(#pc8666e03fe)"
       d="m 407.34,238.829 c 0,0.94248 0.42699,1.84733 1.18622,2.51377 0.75923,0.66643 1.79006,1.04123 2.86378,1.04123 1.07371,0 2.10455,-0.3748 2.86378,-1.04123 0.75923,-0.66644 1.18622,-1.57129 1.18622,-2.51377"
       style="fill:none;stroke:#000000;stroke-width:2;stroke-linecap:butt;stroke-linejoin:miter"
       id="path36"
       inkscape:connector-curvature="0" />
  </g>
  <g
     id="line2d_1"
     style="stroke-linecap:butt;stroke-linejoin:round"
     transform="matrix(0.9,0,0,0.9,-104.94001,-134.60878)">
    <path
       clip-path="url(#pc8666e03fe)"
       d="M 245.34,181.949"
       style="fill:none;stroke:#000000;stroke-width:2;stroke-linecap:round;stroke-linejoin:round"
       id="path57"
       inkscape:connector-curvature="0" />
  </g>
  <g
     id="line2d_2"
     style="stroke:#c00000;stroke-linecap:butt;stroke-linejoin:round;stroke-opacity:1"
     transform="matrix(0.9,0,0,0.9,-104.94001,-134.60878)">
    <path
       clip-path="url(#pc8666e03fe)"
       d="m 245.34,181.949 h -16.2 -16.2"
       style="fill:none;stroke:#c00000;stroke-width:2;stroke-linecap:round;stroke-linejoin:round;stroke-opacity:1"
       id="path60"
       inkscape:connector-curvature="0" />
  </g>
  <path
     style="fill:none;stroke:#c00000;stroke-width:1.8;stroke-linecap:round;stroke-linejoin:round;stroke-opacity:1"
     d="M 107.68501,29.145318 H 66.569404"
     id="path5886"
     inkscape:connector-curvature="0" />
  <path
     style="fill:none;stroke:#c00000;stroke-width:1.8;stroke-linecap:round;stroke-linejoin:round;stroke-opacity:1"
     d="m 66.569404,35.544318 v -12.798"
     id="path5884"
     inkscape:connector-curvature="0" />
  <path
     style="fill:none;stroke:#000000;stroke-width:1.8;stroke-linecap:round;stroke-linejoin:round"
     d="m 61.320604,35.544318 v -12.798"
     id="path5882"
     inkscape:connector-curvature="0" />
  <g
     id="line2d_4"
     style="stroke-linecap:butt;stroke-linejoin:round"
     transform="matrix(0.9,0,0,0.9,-64.709996,-134.60878)">
    <path
       clip-path="url(#pc8666e03fe)"
       d="M 115.74,181.949"
       style="fill:none;stroke:#000000;stroke-width:2;stroke-linecap:round;stroke-linejoin:round"
       id="path66"
       inkscape:connector-curvature="0" />
  </g>
  <g
     id="line2d_5"
     style="stroke-linecap:butt;stroke-linejoin:round"
     transform="matrix(0.9,0,0,0.9,-65.924996,-134.60878)">
    <path
       clip-path="url(#pc8666e03fe)"
       d="M 118.10845,181.949 H 83.34 l -16.2,14.22 h -16.2 v -28.44 h 16.2 l 16.2,14.22"
       style="fill:none;stroke:#000000;stroke-width:2;stroke-linecap:round;stroke-linejoin:round"
       id="path69"
       inkscape:connector-curvature="0"
       transform="translate(23.309996)"
       sodipodi:nodetypes="ccccccc" />
  </g>
  <path
     style="fill:none;stroke:#c00000;stroke-width:1.8;stroke-linecap:round;stroke-linejoin:round;stroke-opacity:1"
     d="m 86.706004,29.145318 v 25.596"
     id="path5987"
     inkscape:connector-curvature="0" />
  <path
     style="fill:none;stroke:#000000;stroke-width:1.8;stroke-linecap:round;stroke-linejoin:round"
     d="m 93.996004,48.342318 -14.58,12.798"
     id="path5985"
     inkscape:connector-curvature="0" />
  <path
     style="fill:none;stroke:#000000;stroke-width:1.8;stroke-linecap:round;stroke-linejoin:round"
     d="m 93.996004,61.140318 -14.58,-12.798"
     id="path5983"
     inkscape:connector-curvature="0" />
  <path
     style="fill:none;stroke:#000000;stroke-width:1.8;stroke-linecap:round;stroke-linejoin:round"
     d="m 86.706004,54.741318 v 25.596"
     id="path72"
     inkscape:connector-curvature="0" />
  <g
     id="line2d_7"
     style="stroke-linecap:butt;stroke-linejoin:round"
     transform="matrix(0.9,0,0,0.9,-104.94001,-134.60878)">
    <path
       clip-path="url(#pc8666e03fe)"
       d="m 212.94,238.829 h 16.2 16.2"
       style="fill:none;stroke:#000000;stroke-width:2;stroke-linecap:round;stroke-linejoin:round"
       id="path75"
       inkscape:connector-curvature="0" />
  </g>
  <g
     id="line2d_8"
     style="stroke-linecap:butt;stroke-linejoin:round"
     transform="matrix(0.9,0,0,0.9,-104.94001,-134.60878)">
    <path
       clip-path="url(#pc8666e03fe)"
       d="m 245.34,238.829 v 11.376 h -8.1 l 8.1,11.376 8.1,-11.376 h -8.1"
       style="fill:none;stroke:#000000;stroke-width:2;stroke-linecap:round;stroke-linejoin:round"
       id="path78"
       inkscape:connector-curvature="0" />
  </g>
  <g
     id="line2d_9"
     style="stroke:#c00000;stroke-linecap:butt;stroke-linejoin:round;stroke-opacity:1"
     transform="matrix(0.9,0,0,0.9,-104.94001,-134.60878)">
    <path
       clip-path="url(#pc8666e03fe)"
       d="m 245.34,181.949 h 16.2 16.2"
       style="fill:none;stroke:#c00000;stroke-width:2;stroke-linecap:round;stroke-linejoin:round;stroke-opacity:1"
       id="path81"
       inkscape:connector-curvature="0" />
  </g>
  <path
     style="fill:none;stroke:#c00000;stroke-width:1.8;stroke-linecap:round;stroke-linejoin:round;stroke-opacity:1"
     d="m 145.026,29.145318 v 23.29236"
     id="path5878"
     inkscape:connector-curvature="0" />
  <path
     style="fill:none;stroke:#c00000;stroke-width:1.8;stroke-linecap:round;stroke-linejoin:round;stroke-opacity:1"
     d="m 152.316,52.437678 h -14.58"
     id="path5876"
     inkscape:connector-curvature="0" />
  <path
     style="fill:none;stroke:#000000;stroke-width:1.8;stroke-linecap:round;stroke-linejoin:round"
     d="m 152.316,57.044958 h -14.58"
     id="path5874"
     inkscape:connector-curvature="0" />
  <path
     style="fill:none;stroke:#000000;stroke-width:1.8;stroke-linecap:round;stroke-linejoin:round"
     d="m 145.026,57.044958 v 23.29236"
     id="path84"
     inkscape:connector-curvature="0" />
  <g
     id="line2d_11"
     style="stroke-linecap:butt;stroke-linejoin:round"
     transform="matrix(0.9,0,0,0.9,-104.94001,-134.60878)">
    <path
       clip-path="url(#pc8666e03fe)"
       d="m 277.74,238.829 h -16.2 -16.2"
       style="fill:none;stroke:#000000;stroke-width:2;stroke-linecap:round;stroke-linejoin:round"
       id="path87"
       inkscape:connector-curvature="0" />
  </g>
  <path
     style="fill:none;stroke:#0000c0;stroke-width:1.8;stroke-linecap:round;stroke-linejoin:round;stroke-opacity:1"
     d="m 254.37599,29.145318 h 21.87"
     id="path132"
     inkscape:connector-curvature="0"
     sodipodi:nodetypes="cc" />
  <g
     id="line2d_27"
     style="stroke-linecap:butt;stroke-linejoin:round"
     transform="matrix(0.9,0,0,0.9,-100.08439,-134.60878)">
    <path
       clip-path="url(#pc8666e03fe)"
       d="M 423.54,181.949"
       style="fill:none;stroke:#000000;stroke-width:2;stroke-linecap:round;stroke-linejoin:round"
       id="path135"
       inkscape:connector-curvature="0" />
  </g>
  <g
     id="line2d_28"
     style="stroke:#0000c0;stroke-linecap:butt;stroke-linejoin:round;stroke-opacity:1"
     transform="matrix(0.9,0,0,0.9,-104.94001,-134.60878)">
    <path
       clip-path="url(#pc8666e03fe)"
       d="m 423.54,181.949 h 16.2 16.2"
       style="fill:none;stroke:#0000c0;stroke-width:2;stroke-linecap:round;stroke-linejoin:round;stroke-opacity:1"
       id="path138"
       inkscape:connector-curvature="0" />
  </g>
  <path
     style="fill:none;stroke:#0000c0;stroke-width:1.8;stroke-linecap:round;stroke-linejoin:round;stroke-opacity:1"
     d="m 254.37599,29.145318 v 25.596"
     id="path5996"
     inkscape:connector-curvature="0" />
  <path
     style="fill:none;stroke:#000000;stroke-width:1.8;stroke-linecap:round;stroke-linejoin:round"
     d="m 261.66599,48.342318 -14.58,12.798"
     id="path5994"
     inkscape:connector-curvature="0" />
  <path
     style="fill:none;stroke:#000000;stroke-width:1.8;stroke-linecap:round;stroke-linejoin:round"
     d="m 261.66599,61.140318 -14.58,-12.798"
     id="path5992"
     inkscape:connector-curvature="0" />
  <path
     style="fill:none;stroke:#000000;stroke-width:1.8;stroke-linecap:round;stroke-linejoin:round"
     d="m 254.37599,54.741318 v 25.596"
     id="path180"
     inkscape:connector-curvature="0" />
  <g
     id="line2d_43"
     style="stroke-linecap:butt;stroke-linejoin:round"
     transform="matrix(0.9,0,0,0.9,-104.94001,-134.60878)">
    <path
       clip-path="url(#pc8666e03fe)"
       d="M 399.24,238.829"
       style="fill:none;stroke:#000000;stroke-width:2;stroke-linecap:round;stroke-linejoin:round"
       id="path183"
       inkscape:connector-curvature="0" />
  </g>
  <g
     id="line2d_44"
     style="stroke-linecap:butt;stroke-linejoin:round"
     transform="matrix(0.9,0,0,0.9,-104.94001,-134.60878)">
    <path
       clip-path="url(#pc8666e03fe)"
       d="m 399.24,238.829 v 28.44 l 16.2,14.22 v 14.22 h -32.4 v -14.22 l 16.2,-14.22"
       style="fill:none;stroke:#000000;stroke-width:2;stroke-linecap:round;stroke-linejoin:round"
       id="path186"
       inkscape:connector-curvature="0" />
  </g>
  <path
     style="fill:none;stroke:#0000c0;stroke-width:1.8;stroke-linecap:round;stroke-linejoin:round;stroke-opacity:1"
     d="m 305.31161,29.145318 v 25.596"
     id="path5916"
     inkscape:connector-curvature="0" />
  <path
     style="fill:none;stroke:#000000;stroke-width:1.8;stroke-linecap:round;stroke-linejoin:round"
     d="m 312.60161,48.342318 -14.58,12.798"
     id="path5914"
     inkscape:connector-curvature="0" />
  <path
     style="fill:none;stroke:#000000;stroke-width:1.8;stroke-linecap:round;stroke-linejoin:round"
     d="m 312.60161,61.140318 -14.58,-12.798"
     id="path5912"
     inkscape:connector-curvature="0" />
  <path
     style="fill:none;stroke:#000000;stroke-width:1.8;stroke-linecap:round;stroke-linejoin:round"
     d="m 305.31161,54.741318 v 25.596"
     id="path189"
     inkscape:connector-curvature="0" />
  <g
     id="line2d_46"
     style="stroke-linecap:butt;stroke-linejoin:round"
     transform="matrix(0.9,0,0,0.9,-97.744392,-134.60878)">
    <path
       clip-path="url(#pc8666e03fe)"
       d="m 447.84,238.829 v 11.376 h -8.1 l 8.1,11.376 8.1,-11.376 h -8.1"
       style="fill:none;stroke:#000000;stroke-width:2;stroke-linecap:round;stroke-linejoin:round"
       id="path192"
       inkscape:connector-curvature="0" />
  </g>
  <g
     id="line2d_47"
     style="stroke-linecap:butt;stroke-linejoin:round"
     transform="matrix(0.9,0,0,0.9,-104.94001,-134.60878)">
    <path
       clip-path="url(#pc8666e03fe)"
       d="m 447.84,238.829 h -4.7382 m -32.4,0 H 399.24"
       style="fill:none;stroke:#000000;stroke-width:2;stroke-linecap:round;stroke-linejoin:round"
       id="path195"
       inkscape:connector-curvature="0"
       sodipodi:nodetypes="cccc" />
  </g>
  <g
     id="line2d_48"
     style="stroke:#0000c0;stroke-linecap:butt;stroke-linejoin:round;stroke-opacity:1"
     transform="matrix(0.9,0,0,0.9,-104.94001,-134.60878)">
    <path
       clip-path="url(#pc8666e03fe)"
       d="m 455.94,181.949 h 16.2 33.4618"
       style="fill:none;stroke:#0000c0;stroke-width:2;stroke-linecap:round;stroke-linejoin:round;stroke-opacity:1"
       id="path198"
       inkscape:connector-curvature="0"
       sodipodi:nodetypes="ccc" />
  </g>
  <path
     style="fill:none;stroke:#0000c0;stroke-width:1.8;stroke-linecap:round;stroke-linejoin:round;stroke-opacity:1"
     d="m 350.10161,29.145318 v 23.29236"
     id="path5925"
     inkscape:connector-curvature="0" />
  <path
     style="fill:none;stroke:#0000c0;stroke-width:1.8;stroke-linecap:round;stroke-linejoin:round;stroke-opacity:1"
     d="m 357.39161,52.437678 h -14.58"
     id="path5923"
     inkscape:connector-curvature="0" />
  <path
     style="fill:none;stroke:#000000;stroke-width:1.8;stroke-linecap:round;stroke-linejoin:round"
     d="m 357.39161,57.044958 h -14.58"
     id="path5921"
     inkscape:connector-curvature="0" />
  <path
     style="fill:none;stroke:#000000;stroke-width:1.8;stroke-linecap:round;stroke-linejoin:round"
     d="m 350.10161,57.044958 v 23.29236"
     id="path201"
     inkscape:connector-curvature="0" />
  <g
     id="line2d_50"
     style="stroke-linecap:butt;stroke-linejoin:round"
     transform="matrix(0.9,0,0,0.9,-104.94001,-134.60878)">
    <path
       clip-path="url(#pc8666e03fe)"
       d="M 505.6018,238.829 H 468.09 447.84"
       style="fill:none;stroke:#000000;stroke-width:2;stroke-linecap:round;stroke-linejoin:round"
       id="path204"
       inkscape:connector-curvature="0"
       sodipodi:nodetypes="ccc" />
  </g>
  <g
     id="text_1"
     style="stroke-linecap:butt;stroke-linejoin:round"
     transform="matrix(0.9,0,0,0.9,-104.94001,-134.60878)">
    <text
       style="font-style:normal;font-weight:normal;font-size:16px;font-family:'DejaVu Sans';text-anchor:middle;stroke-linecap:butt;stroke-linejoin:round"
       x="245.34"
       y="173.6445"
       id="text306">q1</text>
  </g>
  <g
     id="text_2"
     style="stroke-linecap:butt;stroke-linejoin:round"
     transform="matrix(0.9,0,0,0.9,-101.34001,-134.60878)">
    <!-- $C_{g1}$ -->
    <g
       transform="translate(151.3,167.035)"
       id="g315"
       style="stroke-linecap:butt;stroke-linejoin:round">
      <text
         id="text313"
         style="font-size:16px;stroke-width:1.33333;stroke-linecap:butt;stroke-linejoin:round"
         x="21.09408"
         y="0.81396401">C<tspan
   style="font-size:10.4px;baseline-shift:sub;stroke-width:1.33333"
   id="tspan76566">g</tspan></text>
    </g>
  </g>
  <g
     id="text_3"
     style="stroke-linecap:butt;stroke-linejoin:round"
     transform="matrix(0.9,0,0,0.9,-77.935436,-109.58768)">
    <text
       style="font-style:normal;font-weight:normal;font-size:16px;font-family:'DejaVu Sans';text-anchor:middle;stroke-linecap:butt;stroke-linejoin:round"
       x="139.04999"
       y="173.6445"
       id="text318">ex1</text>
  </g>
  <g
     id="text_4"
     style="stroke-linecap:butt;stroke-linejoin:round"
     transform="matrix(0.9,0,0,0.9,-85.941876,-134.60878)">
    <!-- $Z_0$ -->
    <g
       transform="translate(73.98,161.5575)"
       id="g327"
       style="stroke-linecap:butt;stroke-linejoin:round">
      <text
         id="text325"
         style="stroke-linecap:butt;stroke-linejoin:round"
         x="23.309996"
         y="-2.5579538e-13"><tspan
           style="font-size:16px;font-family:'DejaVu Sans';stroke-linecap:butt;stroke-linejoin:round"
           x="23.309996"
           y="-0.328125"
           id="tspan321">Z<tspan
   style="font-size:65%;baseline-shift:sub"
   id="tspan77440">0</tspan></tspan></text>
    </g>
  </g>
  <g
     id="text_5"
     style="stroke-linecap:butt;stroke-linejoin:round"
     transform="matrix(0.9,0,0,0.9,-98.94001,-134.60878)">
    <!-- $I_{C1}$ -->
    <g
       transform="translate(181.28,214.804)"
       id="g336"
       style="stroke-linecap:butt;stroke-linejoin:round">
      <text
         id="text334"
         style="font-size:16px;stroke-width:1.33333;stroke-linecap:butt;stroke-linejoin:round"
         x="-2.400974"
         y="1.0395986">I<tspan
   style="font-size:10.4px;baseline-shift:sub;stroke-width:1.33333"
   id="tspan81080">C1</tspan></text>
    </g>
  </g>
  <g
     id="text_6"
     style="stroke-linecap:butt;stroke-linejoin:round"
     transform="matrix(1.1999997,0,0,1.1999997,-184.06096,-198.16885)">
    <!-- $C_{QS}$ -->
    <g
       transform="translate(238.56,214.309)"
       id="g345"
       style="stroke-linecap:butt;stroke-linejoin:round">
      <text
         id="text343"
         style="stroke-linecap:butt;stroke-linejoin:round"
         x="8.333333">C<tspan
   style="font-size:65%;baseline-shift:sub"
   id="tspan82326">qs</tspan></text>
    </g>
  </g>
  <g
     id="text_14"
     style="stroke-linecap:butt;stroke-linejoin:round"
     transform="matrix(0.9,0,0,0.9,-100.08439,-134.60878)">
    <text
       style="font-style:normal;font-weight:normal;font-size:16px;font-family:'DejaVu Sans';text-anchor:middle;stroke-linecap:butt;stroke-linejoin:round"
       x="423.54001"
       y="173.6445"
       id="text405">c</text>
  </g>
  <g
     id="text_21"
     style="stroke-linecap:butt;stroke-linejoin:round"
     transform="matrix(1.1999997,0,0,1.1999997,-223.14605,-198.11428)">
    <!-- $I_{Cc1}$ -->
    <g
       transform="translate(361.34,214.804)"
       id="g462"
       style="stroke-linecap:butt;stroke-linejoin:round">
      <text
         id="text460"
         style="stroke-linecap:butt;stroke-linejoin:round"
         x="8.333333">I<tspan
   style="font-size:65%;baseline-shift:sub"
   id="tspan71264">Cc1</tspan></text>
    </g>
  </g>
  <g
     id="text_22"
     style="stroke-linecap:butt;stroke-linejoin:round"
     transform="matrix(0.9,0,0,0.9,-104.94001,-134.60878)">
    <text
       style="font-style:normal;font-weight:normal;font-size:16px;font-family:'DejaVu Sans';text-anchor:end;stroke-linecap:butt;stroke-linejoin:round"
       x="393.57001"
       y="243.244"
       id="text465">cpl</text>
  </g>
  <g
     id="text_23"
     style="stroke-linecap:butt;stroke-linejoin:round"
     transform="matrix(1.1999997,0,0,1.1999997,-220.88455,-226.8862)">
    <!-- $Z_0$ -->
    <g
       transform="translate(389.88,310.7105)"
       id="g474"
       style="stroke-linecap:butt;stroke-linejoin:round">
      <text
         id="text472"
         style="stroke-linecap:butt;stroke-linejoin:round">Z<tspan
   style="font-size:65%;baseline-shift:sub"
   id="tspan68012">0</tspan></text>
    </g>
  </g>
  <g
     id="text_24"
     style="stroke-linecap:butt;stroke-linejoin:round"
     transform="matrix(1.1999997,0,0,1.1999997,-230.21689,-198.11428)">
    <!-- $I_{Cc2}$ -->
    <g
       transform="translate(409.94,214.804)"
       id="g483"
       style="stroke-linecap:butt;stroke-linejoin:round">
      <text
         id="text481"
         style="stroke-linecap:butt;stroke-linejoin:round"
         x="8.333333">I<tspan
   style="font-size:65%;baseline-shift:sub"
   id="tspan73332">Cc2</tspan></text>
    </g>
  </g>
  <g
     id="text_25"
     style="stroke-linecap:butt;stroke-linejoin:round"
     transform="matrix(1.1999997,0,0,1.1999997,-227.40009,-207.45521)">
    <!-- $L_c$ -->
    <g
       transform="translate(415.7,260.9405)"
       id="g492"
       style="stroke-linecap:butt;stroke-linejoin:round">
      <text
         id="text490"
         style="stroke-linecap:butt;stroke-linejoin:round"
         y="-5"
         x="1.6666666">L<tspan
   style="font-size:65%;baseline-shift:sub"
   id="tspan75998">c</tspan></text>
    </g>
  </g>
  <g
     id="text_26"
     style="stroke-linecap:butt;stroke-linejoin:round"
     transform="matrix(1.1999997,0,0,1.1999997,-236.58149,-197.82205)">
    <!-- $C_{CJ}$ -->
    <g
       transform="translate(453.96,213.909)"
       id="g501"
       style="stroke-linecap:butt;stroke-linejoin:round">
      <text
         id="text499"
         style="stroke-linecap:butt;stroke-linejoin:round"
         x="9.5833349">C<tspan
   style="font-size:65%;baseline-shift:sub"
   id="tspan75038">cs</tspan></text>
    </g>
  </g>
  <defs
     id="defs626">
    <clipPath
       id="pc8666e03fe"
       style="stroke-linecap:butt;stroke-linejoin:round">
      <rect
         height="302.88599"
         width="897.47998"
         x="7.1999998"
         y="9.1759996"
         id="rect623"
         style="stroke-linecap:butt;stroke-linejoin:round" />
    </clipPath>
  </defs>
</svg>
