<?xml version="1.0" encoding="UTF-8" standalone="no"?>
<!-- Created with matplotlib (https://matplotlib.org/) -->

<svg
   height="288pt"
   version="1.1"
   viewBox="0 0 432 288"
   width="432pt"
   id="svg315"
   sodipodi:docname="transmon-wavefunctions.svg"
   inkscape:version="1.1 (c68e22c387, 2021-05-23)"
   xmlns:inkscape="http://www.inkscape.org/namespaces/inkscape"
   xmlns:sodipodi="http://sodipodi.sourceforge.net/DTD/sodipodi-0.dtd"
   xmlns:xlink="http://www.w3.org/1999/xlink"
   xmlns="http://www.w3.org/2000/svg"
   xmlns:svg="http://www.w3.org/2000/svg"
   xmlns:rdf="http://www.w3.org/1999/02/22-rdf-syntax-ns#"
   xmlns:cc="http://creativecommons.org/ns#"
   xmlns:dc="http://purl.org/dc/elements/1.1/">
  <sodipodi:namedview
     id="namedview317"
     pagecolor="#ffffff"
     bordercolor="#666666"
     borderopacity="1.0"
     inkscape:pageshadow="2"
     inkscape:pageopacity="0.0"
     inkscape:pagecheckerboard="0"
     inkscape:document-units="pt"
     showgrid="true"
     fit-margin-top="0"
     fit-margin-left="0"
     fit-margin-right="0"
     fit-margin-bottom="0"
     inkscape:zoom="1.8368056"
     inkscape:cx="131.47826"
     inkscape:cy="191.90926"
     inkscape:window-width="1920"
     inkscape:window-height="1017"
     inkscape:window-x="-8"
     inkscape:window-y="-8"
     inkscape:window-maximized="1"
     inkscape:current-layer="svg315">
    <inkscape:grid
       type="xygrid"
       id="grid319"
       originx="0"
       originy="0" />
  </sodipodi:namedview>
  <metadata
     id="metadata2">
    <rdf:RDF>
      <cc:Work>
        <dc:type
           rdf:resource="http://purl.org/dc/dcmitype/StillImage" />
        <dc:date>2021-08-29T09:09:29.981339</dc:date>
        <dc:format>image/svg+xml</dc:format>
        <dc:creator>
          <cc:Agent>
            <dc:title>Matplotlib v3.3.4, https://matplotlib.org/</dc:title>
          </cc:Agent>
        </dc:creator>
      </cc:Work>
    </rdf:RDF>
  </metadata>
  <defs
     id="defs6">
    <style
       type="text/css"
       id="style4">*{stroke-linecap:butt;stroke-linejoin:round;}</style>
  </defs>
  <g
     id="patch_1">
    <path
       d="M 0,288 H 432 V 0 H 0 Z"
       style="fill:none"
       id="path8" />
  </g>
  <g
     id="axes_1">
    <g
       id="patch_2">
      <path
         d="M 54,252 H 388.8 V 34.56 H 54 Z"
         style="fill:#ffffff"
         id="path11" />
    </g>
    <g
       id="PolyCollection_1">
      <path
         clip-path="url(#p8cb09bd837)"
         d="m 69.218182,227.23292 v 0 l 2.029091,-6e-5 2.029091,-1.6e-4 2.029091,-2.9e-4 2.02909,-4.1e-4 2.029091,-5.5e-4 2.029091,-7.3e-4 2.029091,-9.1e-4 2.029091,-10e-4 2.029091,-0.001 2.029091,-0.002 2.029091,-0.002 2.029091,-0.003 2.029091,-0.003 2.029091,-0.004 2.02909,-0.005 2.029095,-0.005 2.02909,-0.007 2.02909,-0.008 2.02909,-0.009 2.02909,-0.0113 2.02909,-0.0135 2.02909,-0.0161 2.02909,-0.019 2.02909,-0.0226 2.02909,-0.0266 2.0291,-0.0314 2.02909,-0.0368 2.02909,-0.0431 2.02909,-0.0504 2.02909,-0.0586 2.02909,-0.068 2.02909,-0.0787 2.02909,-0.0908 2.02909,-0.10437 2.02909,-0.11955 2.02909,-0.13646 2.02909,-0.15518 2.0291,-0.17581 2.02909,-0.19842 2.02909,-0.22304 2.02909,-0.24971 2.02909,-0.27841 2.02909,-0.30907 2.02909,-0.34161 2.02909,-0.37586 2.02909,-0.41164 2.02909,-0.44869 2.02909,-0.48667 2.0291,-0.52522 2.02909,-0.56388 2.02909,-0.60216 2.02909,-0.63949 2.02909,-0.67526 2.02909,-0.70882 2.02909,-0.73948 2.02909,-0.76654 2.02909,-0.78929 2.02909,-0.80701 2.0291,-0.81906 2.02909,-0.82479 2.02909,-0.82363 2.02909,-0.81511 2.02909,-0.79886 2.02909,-0.77459 2.02909,-0.74219 2.02909,-0.70166 2.02909,-0.65315 2.02909,-0.59698 2.02909,-0.53359 2.02909,-0.46362 2.0291,-0.38779 2.02909,-0.30699 2.02909,-0.22221 2.02909,-0.13451 2.02909,-0.045 2.02909,0.045 2.02909,0.13451 2.02909,0.22221 2.02909,0.30699 2.02909,0.38779 2.02909,0.46362 2.0291,0.53359 2.02909,0.59698 2.02909,0.65315 2.02909,0.70166 2.02909,0.74219 2.02909,0.77459 2.02909,0.79886 2.02909,0.81511 2.02909,0.82363 2.02909,0.82479 2.02909,0.81906 2.0291,0.80701 2.02909,0.78929 2.02909,0.76654 2.02909,0.73948 2.02909,0.70882 2.02909,0.67526 2.02909,0.63949 2.02909,0.60216 2.02909,0.56388 2.02909,0.52522 2.02909,0.48667 2.0291,0.44869 2.02909,0.41164 2.02909,0.37586 2.02909,0.34161 2.02909,0.30907 2.02909,0.27841 2.02909,0.24971 2.02909,0.22304 2.02909,0.19842 2.02909,0.17581 2.02909,0.15518 2.0291,0.13646 2.02909,0.11955 2.02909,0.10437 2.02909,0.0908 2.02909,0.0787 2.02909,0.068 2.02909,0.0586 2.02909,0.0504 2.02909,0.0431 2.02909,0.0368 2.02909,0.0314 2.0291,0.0266 2.02909,0.0226 2.02909,0.019 2.02909,0.0161 2.02909,0.0135 2.02909,0.0113 2.02909,0.009 2.02909,0.008 2.02909,0.007 2.0291,0.005 2.02909,0.005 2.02909,0.004 2.02909,0.003 2.02909,0.003 2.02909,0.002 2.02909,0.002 2.02909,0.001 2.02909,10e-4 2.02909,9.1e-4 2.02909,7.3e-4 2.0291,5.5e-4 2.02909,4.1e-4 2.02909,2.9e-4 2.02909,1.6e-4 2.02909,6e-5 v 0 0.003 h -2.02909 -2.02909 -2.02909 -2.02909 -2.0291 -2.02909 -2.02909 -2.02909 -2.02909 -2.02909 -2.02909 -2.02909 -2.02909 -2.02909 -2.02909 -2.0291 -2.02909 -2.02909 -2.02909 H 333 h -2.02909 -2.02909 -2.02909 -2.02909 -2.0291 -2.02909 -2.02909 -2.02909 -2.02909 -2.02909 -2.02909 -2.02909 -2.02909 -2.02909 -2.02909 -2.0291 -2.02909 -2.02909 -2.02909 -2.02909 -2.02909 -2.02909 -2.02909 -2.02909 -2.02909 -2.02909 -2.0291 -2.02909 -2.02909 -2.02909 -2.02909 -2.02909 -2.02909 -2.02909 -2.02909 -2.02909 -2.02909 -2.0291 -2.02909 -2.02909 -2.02909 -2.02909 -2.02909 -2.02909 -2.02909 -2.02909 -2.02909 -2.02909 -2.0291 -2.02909 -2.02909 -2.02909 -2.02909 -2.02909 -2.02909 -2.02909 -2.02909 -2.02909 -2.02909 -2.0291 -2.02909 -2.02909 -2.02909 -2.02909 -2.02909 -2.02909 -2.02909 -2.02909 -2.02909 -2.02909 -2.02909 -2.0291 -2.02909 -2.02909 -2.02909 -2.02909 -2.02909 -2.02909 -2.02909 -2.02909 -2.02909 -2.0291 -2.02909 -2.02909 -2.02909 -2.02909 -2.02909 -2.02909 -2.02909 -2.02909 -2.02909 -2.02909 -2.0291 -2.02909 -2.02909 -2.02909 -2.02909 -2.02909 -2.02909 -2.02909 -2.02909 -2.02909 -2.02909 -2.02909 -2.0291 -2.02909 -2.02909 -2.02909 -2.02909 -2.02909 -2.02909 -2.02909 -2.02909 -2.02909 -2.029095 -2.02909 H 95.596364 93.567273 91.538182 89.509091 87.48 85.450909 83.421818 81.392727 79.363636 77.334545 75.305455 73.276364 71.247273 69.218182 Z"
         style="fill:#016e82"
         id="path14" />
    </g>
    <g
       id="PolyCollection_2">
      <path
         clip-path="url(#p8cb09bd837)"
         d="m 69.218182,188.92189 2.029091,-0.004 2.029091,-0.004 2.029091,-0.005 2.02909,-0.005 2.029091,-0.006 2.029091,-0.006 2.029091,-0.007 2.029091,-0.009 2.029091,-0.01 2.029091,-0.0117 2.029091,-0.0137 2.029091,-0.0161 2.029091,-0.0188 2.029091,-0.0222 2.02909,-0.026 2.029095,-0.0305 2.02909,-0.0357 2.02909,-0.0417 2.02909,-0.0486 2.02909,-0.0565 2.02909,-0.0657 2.02909,-0.076 2.02909,-0.0878 2.02909,-0.10106 2.02909,-0.11602 2.0291,-0.13278 2.02909,-0.15147 2.02909,-0.1722 2.02909,-0.19506 2.02909,-0.22016 2.02909,-0.24751 2.02909,-0.27714 2.02909,-0.30903 2.02909,-0.34306 2.02909,-0.37911 2.02909,-0.41694 2.02909,-0.45627 2.0291,-0.4967 2.02909,-0.53773 2.02909,-0.57882 2.02909,-0.61925 2.02909,-0.65825 2.02909,-0.69493 2.02909,-0.72831 2.02909,-0.75736 2.02909,-0.78091 2.02909,-0.79782 2.02909,-0.80688 2.0291,-0.80692 2.02909,-0.79678 2.02909,-0.77539 2.02909,-0.74177 2.02909,-0.69516 2.02909,-0.6349 2.02909,-0.56066 2.02909,-0.4723 2.02909,-0.37001 2.02909,-0.25434 2.0291,-0.12614 2.02909,0.0134 2.02909,0.16268 2.02909,0.31981 2.02909,0.4826 2.02909,0.64856 2.02909,0.815 2.02909,0.97906 2.02909,1.13777 2.02909,1.28817 2.02909,1.42734 2.02909,1.55251 2.0291,1.66113 2.02909,1.75094 2.02909,1.82002 2.02909,1.86694 2.02909,1.89064 2.02909,1.89064 2.02909,1.86694 2.02909,1.82002 2.02909,1.75094 2.02909,1.66113 2.02909,1.55251 2.0291,1.42734 2.02909,1.28817 2.02909,1.13777 2.02909,0.97906 2.02909,0.815 2.02909,0.64856 2.02909,0.4826 2.02909,0.31981 2.02909,0.16268 2.02909,0.0134 2.02909,-0.12614 2.0291,-0.25434 2.02909,-0.37001 2.02909,-0.4723 2.02909,-0.56065 2.02909,-0.63491 2.02909,-0.69516 2.02909,-0.74177 2.02909,-0.77539 2.02909,-0.79677 2.02909,-0.80693 2.02909,-0.80688 2.0291,-0.79782 2.02909,-0.78091 2.02909,-0.75736 2.02909,-0.72831 2.02909,-0.69493 2.02909,-0.65825 2.02909,-0.61925 2.02909,-0.57881 2.02909,-0.53774 2.02909,-0.4967 2.02909,-0.45627 2.0291,-0.41694 2.02909,-0.37911 2.02909,-0.34306 2.02909,-0.30903 2.02909,-0.27714 2.02909,-0.24751 2.02909,-0.22016 2.02909,-0.19506 2.02909,-0.1722 2.02909,-0.15147 2.02909,-0.13278 2.0291,-0.11602 2.02909,-0.10105 2.02909,-0.0878 2.02909,-0.076 2.02909,-0.0656 2.02909,-0.0566 2.02909,-0.0486 2.02909,-0.0417 2.02909,-0.0357 2.0291,-0.0305 2.02909,-0.026 2.02909,-0.0221 2.02909,-0.0189 2.02909,-0.016 2.02909,-0.0137 2.02909,-0.0117 2.02909,-0.01 2.02909,-0.009 2.02909,-0.007 2.02909,-0.006 2.0291,-0.006 2.02909,-0.005 2.02909,-0.005 2.02909,-0.004 2.02909,-0.004 h -2.02909 -2.02909 -2.02909 -2.02909 -2.0291 -2.02909 -2.02909 -2.02909 -2.02909 -2.02909 -2.02909 -2.02909 -2.02909 -2.02909 -2.02909 -2.0291 -2.02909 -2.02909 -2.02909 H 333 h -2.02909 -2.02909 -2.02909 -2.02909 -2.0291 -2.02909 -2.02909 -2.02909 -2.02909 -2.02909 -2.02909 -2.02909 -2.02909 -2.02909 -2.02909 -2.0291 -2.02909 -2.02909 -2.02909 -2.02909 -2.02909 -2.02909 -2.02909 -2.02909 -2.02909 -2.02909 -2.0291 -2.02909 -2.02909 -2.02909 -2.02909 -2.02909 -2.02909 -2.02909 -2.02909 -2.02909 -2.02909 -2.0291 -2.02909 -2.02909 -2.02909 -2.02909 -2.02909 -2.02909 -2.02909 -2.02909 -2.02909 -2.02909 -2.0291 -2.02909 -2.02909 -2.02909 -2.02909 -2.02909 -2.02909 -2.02909 -2.02909 -2.02909 -2.02909 -2.0291 -2.02909 -2.02909 -2.02909 -2.02909 -2.02909 -2.02909 -2.02909 -2.02909 -2.02909 -2.02909 -2.02909 -2.0291 -2.02909 -2.02909 -2.02909 -2.02909 -2.02909 -2.02909 -2.02909 -2.02909 -2.02909 -2.0291 -2.02909 -2.02909 -2.02909 -2.02909 -2.02909 -2.02909 -2.02909 -2.02909 -2.02909 -2.02909 -2.0291 -2.02909 -2.02909 -2.02909 -2.02909 -2.02909 -2.02909 -2.02909 -2.02909 -2.02909 -2.02909 -2.02909 -2.0291 -2.02909 -2.02909 -2.02909 -2.02909 -2.02909 -2.02909 -2.02909 -2.02909 -2.02909 -2.029095 -2.02909 H 95.596364 93.567273 91.538182 89.509091 87.48 85.450909 83.421818 81.392727 79.363636 77.334545 75.305455 73.276364 71.247273 Z"
         style="fill:#333795"
         id="path17" />
    </g>
    <g
       id="PolyCollection_3">
      <path
         clip-path="url(#p8cb09bd837)"
         d="m 69.218182,152.7861 v 0 l 2.029091,-0.002 2.029091,-0.005 2.029091,-0.009 2.02909,-0.0126 2.029091,-0.0166 2.029091,-0.0211 2.029091,-0.0259 2.029091,-0.0313 2.029091,-0.0373 2.029091,-0.0441 2.029091,-0.0516 2.029091,-0.0602 2.029091,-0.0698 2.029091,-0.0806 2.02909,-0.0928 2.029095,-0.10645 2.02909,-0.1217 2.02909,-0.13866 2.02909,-0.15749 2.02909,-0.17828 2.02909,-0.20114 2.02909,-0.22615 2.02909,-0.25333 2.02909,-0.28271 2.02909,-0.31424 2.0291,-0.34785 2.02909,-0.38334 2.02909,-0.42052 2.02909,-0.45903 2.02909,-0.49848 2.02909,-0.53834 2.02909,-0.57798 2.02909,-0.61665 2.02909,-0.65349 2.02909,-0.6875 2.02909,-0.7176 2.02909,-0.74259 2.0291,-0.76118 2.02909,-0.77201 2.02909,-0.77373 2.02909,-0.76491 2.02909,-0.74423 2.02909,-0.71042 2.02909,-0.66236 2.02909,-0.59909 2.02909,-0.51996 2.02909,-0.42457 2.02909,-0.31289 2.0291,-0.18535 2.02909,-0.0428 2.02909,0.1135 2.02909,0.28162 2.02909,0.45921 2.02909,0.64344 2.02909,0.83097 2.02909,1.01807 2.02909,1.20065 2.02909,1.3744 2.0291,1.53487 2.02909,1.67759 2.02909,1.79823 2.02909,1.89277 2.02909,1.95755 2.02909,1.98953 2.02909,1.98634 2.02909,1.94642 2.02909,1.86915 2.02909,1.75481 2.02909,1.60472 2.02909,1.4212 2.0291,1.20749 2.02909,0.96777 2.02909,0.70692 2.02909,0.43051 2.02909,0.14457 2.02909,-0.14457 2.02909,-0.43051 2.02909,-0.70692 2.02909,-0.96777 2.02909,-1.20749 2.02909,-1.4212 2.0291,-1.60472 2.02909,-1.75481 2.02909,-1.86915 2.02909,-1.94642 2.02909,-1.98634 2.02909,-1.98953 2.02909,-1.95755 2.02909,-1.89277 2.02909,-1.79823 2.02909,-1.67759 2.02909,-1.53487 2.0291,-1.3744 2.02909,-1.20065 2.02909,-1.01807 2.02909,-0.83097 2.02909,-0.64344 2.02909,-0.45921 2.02909,-0.28162 2.02909,-0.1135 2.02909,0.0428 2.02909,0.18535 2.02909,0.31289 2.0291,0.42457 2.02909,0.51996 2.02909,0.59909 2.02909,0.66236 2.02909,0.71042 2.02909,0.74423 2.02909,0.76491 2.02909,0.77373 2.02909,0.77201 2.02909,0.76118 2.02909,0.74259 2.0291,0.7176 2.02909,0.6875 2.02909,0.65349 2.02909,0.61665 2.02909,0.57798 2.02909,0.53834 2.02909,0.49848 2.02909,0.45903 2.02909,0.42052 2.02909,0.38334 2.02909,0.34785 2.0291,0.31424 2.02909,0.28271 2.02909,0.25333 2.02909,0.22615 2.02909,0.20114 2.02909,0.17828 2.02909,0.15749 2.02909,0.13866 2.02909,0.1217 2.0291,0.10645 2.02909,0.0928 2.02909,0.0806 2.02909,0.0698 2.02909,0.0602 2.02909,0.0516 2.02909,0.0441 2.02909,0.0373 2.02909,0.0313 2.02909,0.0259 2.02909,0.0211 2.0291,0.0166 2.02909,0.0126 2.02909,0.009 2.02909,0.005 2.02909,0.002 v 0 0.14655 h -2.02909 -2.02909 -2.02909 -2.02909 -2.0291 -2.02909 -2.02909 -2.02909 -2.02909 -2.02909 -2.02909 -2.02909 -2.02909 -2.02909 -2.02909 -2.0291 -2.02909 -2.02909 -2.02909 H 333 h -2.02909 -2.02909 -2.02909 -2.02909 -2.0291 -2.02909 -2.02909 -2.02909 -2.02909 -2.02909 -2.02909 -2.02909 -2.02909 -2.02909 -2.02909 -2.0291 -2.02909 -2.02909 -2.02909 -2.02909 -2.02909 -2.02909 -2.02909 -2.02909 -2.02909 -2.02909 -2.0291 -2.02909 -2.02909 -2.02909 -2.02909 -2.02909 -2.02909 -2.02909 -2.02909 -2.02909 -2.02909 -2.0291 -2.02909 -2.02909 -2.02909 -2.02909 -2.02909 -2.02909 -2.02909 -2.02909 -2.02909 -2.02909 -2.0291 -2.02909 -2.02909 -2.02909 -2.02909 -2.02909 -2.02909 -2.02909 -2.02909 -2.02909 -2.02909 -2.0291 -2.02909 -2.02909 -2.02909 -2.02909 -2.02909 -2.02909 -2.02909 -2.02909 -2.02909 -2.02909 -2.02909 -2.0291 -2.02909 -2.02909 -2.02909 -2.02909 -2.02909 -2.02909 -2.02909 -2.02909 -2.02909 -2.0291 -2.02909 -2.02909 -2.02909 -2.02909 -2.02909 -2.02909 -2.02909 -2.02909 -2.02909 -2.02909 -2.0291 -2.02909 -2.02909 -2.02909 -2.02909 -2.02909 -2.02909 -2.02909 -2.02909 -2.02909 -2.02909 -2.02909 -2.0291 -2.02909 -2.02909 -2.02909 -2.02909 -2.02909 -2.02909 -2.02909 -2.02909 -2.02909 -2.029095 -2.02909 H 95.596364 93.567273 91.538182 89.509091 87.48 85.450909 83.421818 81.392727 79.363636 77.334545 75.305455 73.276364 71.247273 69.218182 Z"
         style="fill:#2e5eac"
         id="path20" />
    </g>
    <g
       id="PolyCollection_4">
      <path
         clip-path="url(#p8cb09bd837)"
         d="m 69.218182,119.54063 2.029091,-0.0867 2.029091,-0.0881 2.029091,-0.0909 2.02909,-0.0952 2.029091,-0.10094 2.029091,-0.10822 2.029091,-0.11708 2.029091,-0.12761 2.029091,-0.13984 2.029091,-0.15388 2.029091,-0.16978 2.029091,-0.18761 2.029091,-0.20744 2.029091,-0.2293 2.02909,-0.25322 2.029095,-0.27919 2.02909,-0.30716 2.02909,-0.33705 2.02909,-0.36873 2.02909,-0.40197 2.02909,-0.43652 2.02909,-0.47198 2.02909,-0.50793 2.02909,-0.54379 2.02909,-0.57891 2.0291,-0.6125 2.02909,-0.64368 2.02909,-0.67143 2.02909,-0.69464 2.02909,-0.71208 2.02909,-0.72249 2.02909,-0.72447 2.02909,-0.71667 2.02909,-0.6977 2.02909,-0.66623 2.02909,-0.62103 2.02909,-0.56104 2.0291,-0.48541 2.02909,-0.39355 2.02909,-0.28526 2.02909,-0.1607 2.02909,-0.0205 2.02909,0.13404 2.02909,0.30131 2.02909,0.47897 2.02909,0.66409 2.02909,0.85321 2.02909,1.0423 2.0291,1.22689 2.02909,1.40214 2.02909,1.56291 2.02909,1.70404 2.02909,1.82035 2.02909,1.90696 2.02909,1.95939 2.02909,1.97385 2.02909,1.94733 2.02909,1.8779 2.0291,1.76471 2.02909,1.60829 2.02909,1.41049 2.02909,1.17457 2.02909,0.90518 2.02909,0.60826 2.02909,0.29093 2.02909,-0.0387 2.02909,-0.37192 2.02909,-0.69936 2.02909,-1.0117 2.02909,-1.29971 2.0291,-1.55477 2.02909,-1.76905 2.02909,-1.93594 2.02909,-2.05022 2.02909,-2.10827 2.02909,-2.10827 2.02909,-2.05022 2.02909,-1.93594 2.02909,-1.76905 2.02909,-1.55477 2.02909,-1.29971 2.0291,-1.0117 2.02909,-0.69937 2.02909,-0.37191 2.02909,-0.0387 2.02909,0.29093 2.02909,0.60826 2.02909,0.90518 2.02909,1.17457 2.02909,1.41049 2.02909,1.60829 2.02909,1.76471 2.0291,1.8779 2.02909,1.94733 2.02909,1.97385 2.02909,1.95939 2.02909,1.90696 2.02909,1.82035 2.02909,1.70403 2.02909,1.56292 2.02909,1.40213 2.02909,1.2269 2.02909,1.0423 2.0291,0.85321 2.02909,0.66409 2.02909,0.47897 2.02909,0.30131 2.02909,0.13404 2.02909,-0.0206 2.02909,-0.1607 2.02909,-0.28525 2.02909,-0.39355 2.02909,-0.48541 2.02909,-0.56104 2.0291,-0.62103 2.02909,-0.66623 2.02909,-0.6977 2.02909,-0.71667 2.02909,-0.72447 2.02909,-0.72249 2.02909,-0.71208 2.02909,-0.69464 2.02909,-0.67143 2.02909,-0.64368 2.02909,-0.6125 2.0291,-0.57891 2.02909,-0.54379 2.02909,-0.50793 2.02909,-0.47198 2.02909,-0.43652 2.02909,-0.40197 2.02909,-0.36873 2.02909,-0.33706 2.02909,-0.30716 2.0291,-0.27918 2.02909,-0.25322 2.02909,-0.2293 2.02909,-0.20744 2.02909,-0.18761 2.02909,-0.16978 2.02909,-0.15388 2.02909,-0.13985 2.02909,-0.1276 2.02909,-0.11709 2.02909,-0.10821 2.0291,-0.10094 2.02909,-0.0952 2.02909,-0.0909 2.02909,-0.0881 2.02909,-0.0867 h -2.02909 -2.02909 -2.02909 -2.02909 -2.0291 -2.02909 -2.02909 -2.02909 -2.02909 -2.02909 -2.02909 -2.02909 -2.02909 -2.02909 -2.02909 -2.0291 -2.02909 -2.02909 -2.02909 H 333 h -2.02909 -2.02909 -2.02909 -2.02909 -2.0291 -2.02909 -2.02909 -2.02909 -2.02909 -2.02909 -2.02909 -2.02909 -2.02909 -2.02909 -2.02909 -2.0291 -2.02909 -2.02909 -2.02909 -2.02909 -2.02909 -2.02909 -2.02909 -2.02909 -2.02909 -2.02909 -2.0291 -2.02909 -2.02909 -2.02909 -2.02909 -2.02909 -2.02909 -2.02909 -2.02909 -2.02909 -2.02909 -2.0291 -2.02909 -2.02909 -2.02909 -2.02909 -2.02909 -2.02909 -2.02909 -2.02909 -2.02909 -2.02909 -2.0291 -2.02909 -2.02909 -2.02909 -2.02909 -2.02909 -2.02909 -2.02909 -2.02909 -2.02909 -2.02909 -2.0291 -2.02909 -2.02909 -2.02909 -2.02909 -2.02909 -2.02909 -2.02909 -2.02909 -2.02909 -2.02909 -2.02909 -2.0291 -2.02909 -2.02909 -2.02909 -2.02909 -2.02909 -2.02909 -2.02909 -2.02909 -2.02909 -2.0291 -2.02909 -2.02909 -2.02909 -2.02909 -2.02909 -2.02909 -2.02909 -2.02909 -2.02909 -2.02909 -2.0291 -2.02909 -2.02909 -2.02909 -2.02909 -2.02909 -2.02909 -2.02909 -2.02909 -2.02909 -2.02909 -2.02909 -2.0291 -2.02909 -2.02909 -2.02909 -2.02909 -2.02909 -2.02909 -2.02909 -2.02909 -2.02909 -2.029095 -2.02909 H 95.596364 93.567273 91.538182 89.509091 87.48 85.450909 83.421818 81.392727 79.363636 77.334545 75.305455 73.276364 71.247273 Z"
         style="fill:#4498d3"
         id="path23" />
    </g>
    <g
       id="PolyCollection_5">
      <path
         clip-path="url(#p8cb09bd837)"
         d="m 69.218182,86.904735 v 0 l 2.029091,-0.01297 2.029091,-0.03897 2.029091,-0.06519 2.02909,-0.09178 2.029091,-0.11886 2.029091,-0.146543 2.029091,-0.174921 2.029091,-0.204063 2.029091,-0.233998 2.029091,-0.264721 2.029091,-0.296181 2.029091,-0.328271 2.029091,-0.360828 2.029091,-0.393615 2.02909,-0.426325 2.029095,-0.458564 2.02909,-0.489852 2.02909,-0.519615 2.02909,-0.547179 2.02909,-0.571775 2.02909,-0.592533 2.02909,-0.608495 2.02909,-0.618622 2.02909,-0.621801 2.02909,-0.616878 2.0291,-0.602673 2.02909,-0.578015 2.02909,-0.541784 2.02909,-0.49295 2.02909,-0.430624 2.02909,-0.354119 2.02909,-0.262999 2.02909,-0.157151 2.02909,-0.03683 2.02909,0.09726 2.02909,0.243939 2.02909,0.401506 2.0291,0.567695 2.02909,0.739679 2.02909,0.914071 2.02909,1.086963 2.02909,1.253981 2.02909,1.410376 2.02909,1.551135 2.02909,1.671135 2.02909,1.765297 2.02909,1.828795 2.02909,1.857248 2.0291,1.846946 2.02909,1.795056 2.02909,1.69983 2.02909,1.560783 2.02909,1.378846 2.02909,1.156461 2.02909,0.897638 2.02909,0.60792 2.02909,0.29434 2.02909,-0.0348 2.0291,-0.37002 2.02909,-0.7012 2.02909,-1.017646 2.02909,-1.308678 2.02909,-1.563983 2.02909,-1.774057 2.02909,-1.930634 2.02909,-2.027074 2.02909,-2.058712 2.02909,-2.023115 2.02909,-1.920265 2.02909,-1.752641 2.0291,-1.525181 2.02909,-1.245144 2.02909,-0.921857 2.02909,-0.566368 2.02909,-0.191026 2.02909,0.191026 2.02909,0.566368 2.02909,0.921857 2.02909,1.245144 2.02909,1.525181 2.02909,1.752641 2.0291,1.920265 2.02909,2.023115 2.02909,2.058712 2.02909,2.027074 2.02909,1.930634 2.02909,1.774057 2.02909,1.563983 2.02909,1.308678 2.02909,1.017646 2.02909,0.7012 2.02909,0.37002 2.0291,0.0348 2.02909,-0.29434 2.02909,-0.60792 2.02909,-0.897638 2.02909,-1.156461 2.02909,-1.378846 2.02909,-1.560783 2.02909,-1.69983 2.02909,-1.795056 2.02909,-1.846946 2.02909,-1.857248 2.0291,-1.828795 2.02909,-1.765297 2.02909,-1.671135 2.02909,-1.551135 2.02909,-1.410376 2.02909,-1.253981 2.02909,-1.086963 2.02909,-0.914071 2.02909,-0.739679 2.02909,-0.567695 2.02909,-0.401506 2.0291,-0.243939 2.02909,-0.09726 2.02909,0.03683 2.02909,0.157151 2.02909,0.262999 2.02909,0.354119 2.02909,0.430624 2.02909,0.49295 2.02909,0.541784 2.02909,0.578015 2.02909,0.602673 2.0291,0.616878 2.02909,0.621801 2.02909,0.618622 2.02909,0.608495 2.02909,0.592533 2.02909,0.571775 2.02909,0.547179 2.02909,0.519615 2.02909,0.489852 2.0291,0.458564 2.02909,0.426325 2.02909,0.393615 2.02909,0.360828 2.02909,0.328271 2.02909,0.296181 2.02909,0.264721 2.02909,0.233998 2.02909,0.204063 2.02909,0.174921 2.02909,0.146543 2.0291,0.11886 2.02909,0.09178 2.02909,0.06519 2.02909,0.03897 2.02909,0.01297 v 0 2.662042 h -2.02909 -2.02909 -2.02909 -2.02909 -2.0291 -2.02909 -2.02909 -2.02909 -2.02909 -2.02909 -2.02909 -2.02909 -2.02909 -2.02909 -2.02909 -2.0291 -2.02909 -2.02909 -2.02909 H 333 h -2.02909 -2.02909 -2.02909 -2.02909 -2.0291 -2.02909 -2.02909 -2.02909 -2.02909 -2.02909 -2.02909 -2.02909 -2.02909 -2.02909 -2.02909 -2.0291 -2.02909 -2.02909 -2.02909 -2.02909 -2.02909 -2.02909 -2.02909 -2.02909 -2.02909 -2.02909 -2.0291 -2.02909 -2.02909 -2.02909 -2.02909 -2.02909 -2.02909 -2.02909 -2.02909 -2.02909 -2.02909 -2.0291 -2.02909 -2.02909 -2.02909 -2.02909 -2.02909 -2.02909 -2.02909 -2.02909 -2.02909 -2.02909 -2.0291 -2.02909 -2.02909 -2.02909 -2.02909 -2.02909 -2.02909 -2.02909 -2.02909 -2.02909 -2.02909 -2.0291 -2.02909 -2.02909 -2.02909 -2.02909 -2.02909 -2.02909 -2.02909 -2.02909 -2.02909 -2.02909 -2.02909 -2.0291 -2.02909 -2.02909 -2.02909 -2.02909 -2.02909 -2.02909 -2.02909 -2.02909 -2.02909 -2.0291 -2.02909 -2.02909 -2.02909 -2.02909 -2.02909 -2.02909 -2.02909 -2.02909 -2.02909 -2.02909 -2.0291 -2.02909 -2.02909 -2.02909 -2.02909 -2.02909 -2.02909 -2.02909 -2.02909 -2.02909 -2.02909 -2.02909 -2.0291 -2.02909 -2.02909 -2.02909 -2.02909 -2.02909 -2.02909 -2.02909 -2.02909 -2.02909 -2.029095 -2.02909 H 95.596364 93.567273 91.538182 89.509091 87.48 85.450909 83.421818 81.392727 79.363636 77.334545 75.305455 73.276364 71.247273 69.218182 Z"
         style="fill:#cd85b9"
         id="path26" />
    </g>
    <g
       id="PolyCollection_6">
      <path
         clip-path="url(#p8cb09bd837)"
         d="m 69.218182,61.257442 2.029091,-0.580932 2.029091,-0.583006 2.029091,-0.587092 2.02909,-0.593072 2.029091,-0.600761 2.029091,-0.609915 2.029091,-0.620219 2.029091,-0.631287 2.029091,-0.642665 2.029091,-0.653819 2.029091,-0.664138 2.029091,-0.672932 2.029091,-0.679436 2.029091,-0.682804 2.02909,-0.682125 2.029095,-0.676421 2.02909,-0.664672 2.02909,-0.64582 2.02909,-0.618799 2.02909,-0.582558 2.02909,-0.536096 2.02909,-0.478497 2.02909,-0.408975 2.02909,-0.326919 2.02909,-0.23195 2.0291,-0.123965 2.02909,-0.0032 2.02909,0.129713 2.02909,0.273717 2.02909,0.427267 2.02909,0.58831 2.02909,0.754259 2.02909,0.922003 2.02909,1.087921 2.02909,1.247931 2.02909,1.397553 2.02909,1.532021 2.0291,1.646399 2.02909,1.735748 2.02909,1.795291 2.02909,1.820632 2.02909,1.807957 2.02909,1.754266 2.02909,1.657582 2.02909,1.517163 2.02909,1.333674 2.02909,1.109328 2.02909,0.847966 2.0291,0.555081 2.02909,0.237779 2.02909,-0.09537 2.02909,-0.434522 2.02909,-0.768866 2.02909,-1.086976 2.02909,-1.377255 2.02909,-1.628403 2.02909,-1.829925 2.02909,-1.97265 2.0291,-2.049206 2.02909,-2.054477 2.02909,-1.985947 2.02909,-1.843981 2.02909,-1.631949 2.02909,-1.356238 2.02909,-1.026098 2.02909,-0.653353 2.02909,-0.25197 2.02909,0.162503 2.02909,0.573592 2.02909,0.964614 2.0291,1.319444 2.02909,1.623255 2.02909,1.863225 2.02909,2.029146 2.02909,2.113925 2.02909,2.113925 2.02909,2.029146 2.02909,1.863225 2.02909,1.623256 2.02909,1.319444 2.02909,0.964614 2.0291,0.573592 2.02909,0.162503 2.02909,-0.25197 2.02909,-0.653353 2.02909,-1.026098 2.02909,-1.356238 2.02909,-1.63195 2.02909,-1.84398 2.02909,-1.985948 2.02909,-2.054476 2.02909,-2.049207 2.0291,-1.972649 2.02909,-1.829926 2.02909,-1.628402 2.02909,-1.377255 2.02909,-1.086976 2.02909,-0.768866 2.02909,-0.434523 2.02909,-0.09537 2.02909,0.237778 2.02909,0.555082 2.02909,0.847965 2.0291,1.109328 2.02909,1.333675 2.02909,1.517163 2.02909,1.657582 2.02909,1.754265 2.02909,1.807958 2.02909,1.820632 2.02909,1.795291 2.02909,1.735747 2.02909,1.6464 2.02909,1.532021 2.0291,1.397553 2.02909,1.24793 2.02909,1.087922 2.02909,0.922003 2.02909,0.754259 2.02909,0.588309 2.02909,0.427268 2.02909,0.273717 2.02909,0.129713 2.02909,-0.0032 2.02909,-0.123966 2.0291,-0.231949 2.02909,-0.32692 2.02909,-0.408974 2.02909,-0.478497 2.02909,-0.536096 2.02909,-0.582558 2.02909,-0.618799 2.02909,-0.64582 2.02909,-0.664672 2.0291,-0.676422 2.02909,-0.682124 2.02909,-0.682804 2.02909,-0.679436 2.02909,-0.672933 2.02909,-0.664137 2.02909,-0.653819 2.02909,-0.642665 2.02909,-0.631287 2.02909,-0.620219 2.02909,-0.609915 2.0291,-0.600762 2.02909,-0.593071 2.02909,-0.587092 2.02909,-0.583006 2.02909,-0.580933 h -2.02909 -2.02909 -2.02909 -2.02909 -2.0291 -2.02909 -2.02909 -2.02909 -2.02909 -2.02909 -2.02909 -2.02909 -2.02909 -2.02909 -2.02909 -2.0291 -2.02909 -2.02909 -2.02909 H 333 h -2.02909 -2.02909 -2.02909 -2.02909 -2.0291 -2.02909 -2.02909 -2.02909 -2.02909 -2.02909 -2.02909 -2.02909 -2.02909 -2.02909 -2.02909 -2.0291 -2.02909 -2.02909 -2.02909 -2.02909 -2.02909 -2.02909 -2.02909 -2.02909 -2.02909 -2.02909 -2.0291 -2.02909 -2.02909 -2.02909 -2.02909 -2.02909 -2.02909 -2.02909 -2.02909 -2.02909 -2.02909 -2.0291 -2.02909 -2.02909 -2.02909 -2.02909 -2.02909 -2.02909 -2.02909 -2.02909 -2.02909 -2.02909 -2.0291 -2.02909 -2.02909 -2.02909 -2.02909 -2.02909 -2.02909 -2.02909 -2.02909 -2.02909 -2.02909 -2.0291 -2.02909 -2.02909 -2.02909 -2.02909 -2.02909 -2.02909 -2.02909 -2.02909 -2.02909 -2.02909 -2.02909 -2.0291 -2.02909 -2.02909 -2.02909 -2.02909 -2.02909 -2.02909 -2.02909 -2.02909 -2.02909 -2.0291 -2.02909 -2.02909 -2.02909 -2.02909 -2.02909 -2.02909 -2.02909 -2.02909 -2.02909 -2.02909 -2.0291 -2.02909 -2.02909 -2.02909 -2.02909 -2.02909 -2.02909 -2.02909 -2.02909 -2.02909 -2.02909 -2.02909 -2.0291 -2.02909 -2.02909 -2.02909 -2.02909 -2.02909 -2.02909 -2.02909 -2.02909 -2.02909 -2.029095 -2.02909 H 95.596364 93.567273 91.538182 89.509091 87.48 85.450909 83.421818 81.392727 79.363636 77.334545 75.305455 73.276364 71.247273 Z"
         style="fill:#45c3d1"
         id="path29" />
    </g>
    <g
       id="matplotlib.axis_1">
      <g
         id="xtick_1">
        <g
           id="line2d_1">
          <defs
             id="defs33">
            <path
               d="M 0,0 V 3.5"
               id="m5c88958093"
               style="stroke:#000000;stroke-width:0.8" />
          </defs>
          <g
             id="g37">
            <use
               style="stroke:#000000;stroke-width:0.8"
               x="76.077065"
               xlink:href="#m5c88958093"
               y="252"
               id="use35"
               width="100%"
               height="100%" />
          </g>
        </g>
        <g
           id="text_1">
          <!-- −3 -->
          <g
             transform="matrix(0.1,0,0,-0.1,70.376287,266.15781)"
             id="g48">
            <defs
               id="defs42">
              <path
                 d="M 52.828125,31.203125 H 5.5625 v 8.203125 h 47.265625 z"
                 id="ArialMT-8722" />
              <path
                 d="m 4.203125,18.890625 8.78125,1.171875 Q 14.5,12.59375 18.140625,9.296875 21.78125,6 27,6 33.203125,6 37.46875,10.296875 41.75,14.59375 41.75,20.953125 q 0,6.046875 -3.953125,9.96875 -3.953125,3.9375 -10.0625,3.9375 -2.484375,0 -6.203125,-0.96875 l 0.984375,7.71875 Q 23.390625,41.5 23.921875,41.5 q 5.625,0 10.109375,2.921875 4.5,2.9375 4.5,9.046875 0,4.828125 -3.28125,8 -3.265625,3.1875 -8.4375,3.1875 -5.125,0 -8.546875,-3.234375 -3.421875,-3.21875 -4.390625,-9.65625 l -8.796875,1.5625 q 1.609375,8.828125 7.3125,13.6875 5.71875,4.859375 14.21875,4.859375 5.859375,0 10.78125,-2.515625 4.9375,-2.515625 7.546875,-6.859375 2.625,-4.34375 2.625,-9.234375 0,-4.625 -2.5,-8.4375 -2.484375,-3.8125 -7.359375,-6.0625 6.34375,-1.453125 9.859375,-6.078125 3.515625,-4.609375 3.515625,-11.546875 0,-9.375 -6.84375,-15.890625 -6.828125,-6.515625 -17.28125,-6.515625 -9.421875,0 -15.65625,5.609375 -6.21875,5.625 -7.09375,14.546875 z"
                 id="ArialMT-51" />
            </defs>
            <use
               xlink:href="#ArialMT-8722"
               id="use44"
               x="0"
               y="0"
               width="100%"
               height="100%" />
            <use
               x="58.398438"
               xlink:href="#ArialMT-51"
               id="use46"
               y="0"
               width="100%"
               height="100%" />
          </g>
        </g>
      </g>
      <g
         id="xtick_2">
        <g
           id="line2d_2">
          <g
             id="g54">
            <use
               style="stroke:#000000;stroke-width:0.8"
               x="124.51804"
               xlink:href="#m5c88958093"
               y="252"
               id="use52"
               width="100%"
               height="100%" />
          </g>
        </g>
        <g
           id="text_2">
          <!-- −2 -->
          <g
             transform="matrix(0.1,0,0,-0.1,118.81726,266.15781)"
             id="g64">
            <defs
               id="defs58">
              <path
                 d="M 50.34375,8.453125 V 0 H 3.03125 Q 2.9375,3.171875 4.046875,6.109375 5.859375,10.9375 9.828125,15.625 13.8125,20.3125 21.34375,26.46875 q 11.671875,9.5625 15.765625,15.15625 4.109375,5.59375 4.109375,10.578125 0,5.21875 -3.75,8.796875 -3.734375,3.59375 -9.734375,3.59375 -6.34375,0 -10.15625,-3.8125 Q 13.765625,56.984375 13.71875,50.25 L 4.6875,51.171875 q 0.921875,10.109375 6.96875,15.40625 6.0625,5.296875 16.28125,5.296875 10.296875,0 16.296875,-5.71875 Q 50.25,60.453125 50.25,52 50.25,47.703125 48.484375,43.546875 46.734375,39.40625 42.65625,34.8125 38.578125,30.21875 29.109375,22.21875 21.1875,15.578125 18.9375,13.203125 q -2.234375,-2.359375 -3.703125,-4.75 z"
                 id="ArialMT-50" />
            </defs>
            <use
               xlink:href="#ArialMT-8722"
               id="use60"
               x="0"
               y="0"
               width="100%"
               height="100%" />
            <use
               x="58.398438"
               xlink:href="#ArialMT-50"
               id="use62"
               y="0"
               width="100%"
               height="100%" />
          </g>
        </g>
      </g>
      <g
         id="xtick_3">
        <g
           id="line2d_3">
          <g
             id="g70">
            <use
               style="stroke:#000000;stroke-width:0.8"
               x="172.95903"
               xlink:href="#m5c88958093"
               y="252"
               id="use68"
               width="100%"
               height="100%" />
          </g>
        </g>
        <g
           id="text_3">
          <!-- −1 -->
          <g
             transform="matrix(0.1,0,0,-0.1,167.25824,266.15781)"
             id="g80">
            <defs
               id="defs74">
              <path
                 d="m 37.25,0 h -8.78125 v 56 q -3.171875,-3.015625 -8.328125,-6.046875 -5.15625,-3.03125 -9.25,-4.546875 v 8.5 q 7.375,3.46875 12.890625,8.390625 5.515625,4.9375 7.8125,9.578125 H 37.25 Z"
                 id="ArialMT-49" />
            </defs>
            <use
               xlink:href="#ArialMT-8722"
               id="use76"
               x="0"
               y="0"
               width="100%"
               height="100%" />
            <use
               x="58.398438"
               xlink:href="#ArialMT-49"
               id="use78"
               y="0"
               width="100%"
               height="100%" />
          </g>
        </g>
      </g>
      <g
         id="xtick_4">
        <g
           id="line2d_4">
          <g
             id="g86">
            <use
               style="stroke:#000000;stroke-width:0.8"
               x="221.39999"
               xlink:href="#m5c88958093"
               y="252"
               id="use84"
               width="100%"
               height="100%" />
          </g>
        </g>
        <g
           id="text_4">
          <!-- 0 -->
          <g
             transform="matrix(0.1,0,0,-0.1,218.61953,266.15781)"
             id="g94">
            <defs
               id="defs90">
              <path
                 d="m 4.15625,35.296875 q 0,12.703125 2.609375,20.4375 2.609375,7.75 7.75,11.9375 5.15625,4.203125 12.96875,4.203125 5.765625,0 10.109375,-2.328125 4.34375,-2.3125 7.171875,-6.6875 Q 47.609375,58.5 49.21875,52.21875 q 1.609375,-6.265625 1.609375,-16.921875 0,-12.59375 -2.59375,-20.328125 Q 45.65625,7.234375 40.5,3 35.359375,-1.21875 27.484375,-1.21875 q -10.34375,0 -16.25,7.421875 -7.078125,8.9375 -7.078125,29.09375 z m 9.03125,0 q 0,-17.625 4.125,-23.46875 Q 21.4375,6 27.484375,6 q 6.0625,0 10.1875,5.859375 4.125,5.859375 4.125,23.4375 0,17.6875 -4.125,23.484375 -4.125,5.8125 -10.28125,5.8125 -6.046875,0 -9.671875,-5.125 Q 13.1875,52.9375 13.1875,35.296875 Z"
                 id="ArialMT-48" />
            </defs>
            <use
               xlink:href="#ArialMT-48"
               id="use92"
               x="0"
               y="0"
               width="100%"
               height="100%" />
          </g>
        </g>
      </g>
      <g
         id="xtick_5">
        <g
           id="line2d_5">
          <g
             id="g100">
            <use
               style="stroke:#000000;stroke-width:0.8"
               x="269.84097"
               xlink:href="#m5c88958093"
               y="252"
               id="use98"
               width="100%"
               height="100%" />
          </g>
        </g>
        <g
           id="text_5">
          <!-- 1 -->
          <g
             transform="matrix(0.1,0,0,-0.1,267.06051,266.15781)"
             id="g105">
            <use
               xlink:href="#ArialMT-49"
               id="use103"
               x="0"
               y="0"
               width="100%"
               height="100%" />
          </g>
        </g>
      </g>
      <g
         id="xtick_6">
        <g
           id="line2d_6">
          <g
             id="g111">
            <use
               style="stroke:#000000;stroke-width:0.8"
               x="318.28195"
               xlink:href="#m5c88958093"
               y="252"
               id="use109"
               width="100%"
               height="100%" />
          </g>
        </g>
        <g
           id="text_6">
          <!-- 2 -->
          <g
             transform="matrix(0.1,0,0,-0.1,315.50149,266.15781)"
             id="g116">
            <use
               xlink:href="#ArialMT-50"
               id="use114"
               x="0"
               y="0"
               width="100%"
               height="100%" />
          </g>
        </g>
      </g>
      <g
         id="xtick_7">
        <g
           id="line2d_7">
          <g
             id="g122">
            <use
               style="stroke:#000000;stroke-width:0.8"
               x="366.72293"
               xlink:href="#m5c88958093"
               y="252"
               id="use120"
               width="100%"
               height="100%" />
          </g>
        </g>
        <g
           id="text_7">
          <!-- 3 -->
          <g
             transform="matrix(0.1,0,0,-0.1,363.94246,266.15781)"
             id="g127">
            <use
               xlink:href="#ArialMT-51"
               id="use125"
               x="0"
               y="0"
               width="100%"
               height="100%" />
          </g>
        </g>
      </g>
      <g
         id="text_8">
        <!-- $\varphi$ -->
        <g
           transform="matrix(0.11,0,0,-0.11,217.77,279.89516)"
           id="g136">
          <defs
             id="defs132">
            <path
               d="m 46.390625,47.40625 q -3.171875,0 -4.59375,-7.078125 l -6.5,-33.484375 q 4.59375,0 10.265625,5.078125 5.125,4.53125 7.171875,15.421875 1.90625,10.15625 -1.171875,15.625 -2.53125,4.4375 -5.171875,4.4375 z m 1.46875,7.671875 q 7.03125,0 11.8125,-6.4375 Q 64.796875,41.75 62.203125,27.34375 59.8125,14.109375 51.421875,6.25 43.5,-1.171875 33.734375,-1.171875 l -3.796875,-19.625 H 21 l 3.8125,19.578125 q -9.765625,0 -14.796875,7.46875 -5.1875,7.625 -2.59375,21.046875 2.6875,13.96875 10.796875,21.09375 6.09375,5.328125 14.34375,6.6875 L 31,47.125 Q 27.59375,46 24.03125,42.1875 18.65625,36.578125 16.890625,27.296875 15.046875,17.4375 18.0625,11.8125 20.84375,6.78125 26.375,6.78125 l 6.484375,33.546875 q 2.890625,14.75 15,14.75 z"
               id="DejaVuSans-Oblique-966" />
          </defs>
          <use
             transform="translate(0,0.921875)"
             xlink:href="#DejaVuSans-Oblique-966"
             id="use134"
             x="0"
             y="0"
             width="100%"
             height="100%" />
        </g>
      </g>
    </g>
    <g
       id="matplotlib.axis_2">
      <g
         id="ytick_1">
        <g
           id="line2d_8">
          <defs
             id="defs141">
            <path
               d="M 0,0 H -3.5"
               id="m7aa7bda5e3"
               style="stroke:#000000;stroke-width:0.8" />
          </defs>
          <g
             id="g145">
            <use
               style="stroke:#000000;stroke-width:0.8"
               x="54"
               xlink:href="#m7aa7bda5e3"
               y="246.94325"
               id="use143"
               width="100%"
               height="100%" />
          </g>
        </g>
        <g
           id="text_9">
          <!-- −15 -->
          <g
             transform="matrix(0.1,0,0,-0.1,30.0375,250.52216)"
             id="g157">
            <defs
               id="defs149">
              <path
                 d="M 4.15625,18.75 13.375,19.53125 Q 14.40625,12.796875 18.140625,9.390625 21.875,6 27.15625,6 33.5,6 37.890625,10.78125 42.28125,15.578125 42.28125,23.484375 42.28125,31 38.0625,35.34375 33.84375,39.703125 27,39.703125 q -4.25,0 -7.671875,-1.9375 -3.40625,-1.921875 -5.359375,-5 l -8.25,1.078125 6.921875,36.765625 H 48.25 v -8.40625 H 19.671875 L 15.828125,42.96875 q 6.4375,4.5 13.515625,4.5 9.375,0 15.8125,-6.5 6.453125,-6.5 6.453125,-16.703125 0,-9.71875 -5.65625,-16.796875 -6.890625,-8.6875 -18.796875,-8.6875 -9.765625,0 -15.953125,5.46875 Q 5.03125,9.71875 4.15625,18.75 Z"
                 id="ArialMT-53" />
            </defs>
            <use
               xlink:href="#ArialMT-8722"
               id="use151"
               x="0"
               y="0"
               width="100%"
               height="100%" />
            <use
               x="58.398438"
               xlink:href="#ArialMT-49"
               id="use153"
               y="0"
               width="100%"
               height="100%" />
            <use
               x="114.01367"
               xlink:href="#ArialMT-53"
               id="use155"
               y="0"
               width="100%"
               height="100%" />
          </g>
        </g>
      </g>
      <g
         id="ytick_2">
        <g
           id="line2d_9">
          <g
             id="g163">
            <use
               style="stroke:#000000;stroke-width:0.8"
               x="54"
               xlink:href="#m7aa7bda5e3"
               y="213.23163"
               id="use161"
               width="100%"
               height="100%" />
          </g>
        </g>
        <g
           id="text_10">
          <!-- −10 -->
          <g
             transform="matrix(0.1,0,0,-0.1,30.0375,216.81053)"
             id="g172">
            <use
               xlink:href="#ArialMT-8722"
               id="use166"
               x="0"
               y="0"
               width="100%"
               height="100%" />
            <use
               x="58.398438"
               xlink:href="#ArialMT-49"
               id="use168"
               y="0"
               width="100%"
               height="100%" />
            <use
               x="114.01367"
               xlink:href="#ArialMT-48"
               id="use170"
               y="0"
               width="100%"
               height="100%" />
          </g>
        </g>
      </g>
      <g
         id="ytick_3">
        <g
           id="line2d_10">
          <g
             id="g178">
            <use
               style="stroke:#000000;stroke-width:0.8"
               x="54"
               xlink:href="#m7aa7bda5e3"
               y="179.52"
               id="use176"
               width="100%"
               height="100%" />
          </g>
        </g>
        <g
           id="text_11">
          <!-- −5 -->
          <g
             transform="matrix(0.1,0,0,-0.1,35.598438,183.09891)"
             id="g185">
            <use
               xlink:href="#ArialMT-8722"
               id="use181"
               x="0"
               y="0"
               width="100%"
               height="100%" />
            <use
               x="58.398438"
               xlink:href="#ArialMT-53"
               id="use183"
               y="0"
               width="100%"
               height="100%" />
          </g>
        </g>
      </g>
      <g
         id="ytick_4">
        <g
           id="line2d_11">
          <g
             id="g191">
            <use
               style="stroke:#000000;stroke-width:0.8"
               x="54"
               xlink:href="#m7aa7bda5e3"
               y="145.80836"
               id="use189"
               width="100%"
               height="100%" />
          </g>
        </g>
        <g
           id="text_12">
          <!-- 0 -->
          <g
             transform="matrix(0.1,0,0,-0.1,41.439062,149.38728)"
             id="g196">
            <use
               xlink:href="#ArialMT-48"
               id="use194"
               x="0"
               y="0"
               width="100%"
               height="100%" />
          </g>
        </g>
      </g>
      <g
         id="ytick_5">
        <g
           id="line2d_12">
          <g
             id="g202">
            <use
               style="stroke:#000000;stroke-width:0.8"
               x="54"
               xlink:href="#m7aa7bda5e3"
               y="112.09674"
               id="use200"
               width="100%"
               height="100%" />
          </g>
        </g>
        <g
           id="text_13">
          <!-- 5 -->
          <g
             transform="matrix(0.1,0,0,-0.1,41.439062,115.67565)"
             id="g207">
            <use
               xlink:href="#ArialMT-53"
               id="use205"
               x="0"
               y="0"
               width="100%"
               height="100%" />
          </g>
        </g>
      </g>
      <g
         id="ytick_6">
        <g
           id="line2d_13">
          <g
             id="g213">
            <use
               style="stroke:#000000;stroke-width:0.8"
               x="54"
               xlink:href="#m7aa7bda5e3"
               y="78.385117"
               id="use211"
               width="100%"
               height="100%" />
          </g>
        </g>
        <g
           id="text_14">
          <!-- 10 -->
          <g
             transform="matrix(0.1,0,0,-0.1,35.878125,81.964023)"
             id="g220">
            <use
               xlink:href="#ArialMT-49"
               id="use216"
               x="0"
               y="0"
               width="100%"
               height="100%" />
            <use
               x="55.615234"
               xlink:href="#ArialMT-48"
               id="use218"
               y="0"
               width="100%"
               height="100%" />
          </g>
        </g>
      </g>
      <g
         id="ytick_7">
        <g
           id="line2d_14">
          <g
             id="g226">
            <use
               style="stroke:#000000;stroke-width:0.8"
               x="54"
               xlink:href="#m7aa7bda5e3"
               y="44.673489"
               id="use224"
               width="100%"
               height="100%" />
          </g>
        </g>
        <g
           id="text_15">
          <!-- 15 -->
          <g
             transform="matrix(0.1,0,0,-0.1,35.878125,48.252395)"
             id="g233">
            <use
               xlink:href="#ArialMT-49"
               id="use229"
               x="0"
               y="0"
               width="100%"
               height="100%" />
            <use
               x="55.615234"
               xlink:href="#ArialMT-53"
               id="use231"
               y="0"
               width="100%"
               height="100%" />
          </g>
        </g>
      </g>
      <g
         id="text_16">
        <!-- Re $\psi_j(\varphi)$ -->
        <g
           transform="matrix(0,-0.11,-0.11,0,22.6275,164.62)"
           id="g262">
          <defs
             id="defs244">
            <path
               d="M 7.859375,0 V 71.578125 H 39.59375 q 9.578125,0 14.546875,-1.9375 4.984375,-1.921875 7.96875,-6.8125 2.984375,-4.875 2.984375,-10.78125 0,-7.609375 -4.9375,-12.84375 Q 55.21875,33.984375 44.921875,32.5625 48.6875,30.765625 50.640625,29 54.78125,25.203125 58.5,19.484375 L 70.953125,0 H 59.03125 L 49.5625,14.890625 Q 45.40625,21.34375 42.71875,24.75 q -2.671875,3.421875 -4.796875,4.78125 -2.125,1.375 -4.328125,1.921875 -1.609375,0.328125 -5.265625,0.328125 h -11 V 0 Z m 9.46875,39.984375 h 20.375 q 6.484375,0 10.140625,1.34375 3.671875,1.34375 5.578125,4.296875 1.90625,2.953125 1.90625,6.421875 0,5.078125 -3.6875,8.34375 -3.6875,3.28125 -11.65625,3.28125 h -22.65625 z"
               id="ArialMT-82" />
            <path
               d="m 42.09375,16.703125 9.078125,-1.125 Q 49.03125,7.625 43.21875,3.21875 37.40625,-1.171875 28.375,-1.171875 q -11.375,0 -18.046875,7 -6.671875,7.015625 -6.671875,19.65625 0,13.09375 6.734375,20.3125 6.75,7.234375 17.484375,7.234375 10.40625,0 17,-7.078125 6.59375,-7.078125 6.59375,-19.921875 0,-0.78125 -0.04687,-2.34375 H 12.75 q 0.484375,-8.546875 4.828125,-13.09375 4.34375,-4.53125 10.84375,-4.53125 4.828125,0 8.25,2.53125 3.421875,2.546875 5.421875,8.109375 z M 13.234375,30.90625 H 42.1875 q -0.578125,6.546875 -3.3125,9.8125 -4.203125,5.078125 -10.890625,5.078125 -6.0625,0 -10.1875,-4.046875 -4.125,-4.046875 -4.5625,-10.84375 z"
               id="ArialMT-101" />
            <path
               id="ArialMT-32"
               d="" />
            <path
               d="M 24.859375,-1.21875 Q 13.921875,0.59375 9.625,5.328125 4.34375,11.140625 6.640625,23 l 6.15625,31.6875 H 21.875 L 15.765625,23.34375 q -1.703125,-8.9375 1.71875,-12.65625 3.03125,-3.21875 8.9375,-3.90625 L 35.6875,54.6875 H 44.625 L 35.359375,6.84375 Q 41.890625,7.515625 45.75,10.75 q 4.984375,4.09375 6.640625,12.640625 l 6.0625,31.296875 H 67.53125 L 61.375,23.046875 Q 58.984375,10.75 51.5625,5.375 44.875,0.53125 33.796875,-1.171875 l -3.8125,-19.625 h -8.9375 z"
               id="DejaVuSans-Oblique-968" />
            <path
               d="m 14.5,54.6875 h 8.984375 L 12.703125,-0.984375 12.640625,-1.21875 Q 10.84375,-10.546875 8.5,-14.015625 6.296875,-17.28125 2.0625,-19.03125 q -4.21875,-1.765625 -9.96875,-1.765625 h -3.375 l 1.46875,7.609375 h 2.296875 q 5.265625,0 7.5,2.203125 2.21875,2.1875 3.734375,10 z m 4.203125,21.296875 H 27.6875 L 25.484375,64.59375 H 16.5 Z"
               id="DejaVuSans-Oblique-106" />
            <path
               d="M 31,75.875 Q 24.46875,64.65625 21.28125,53.65625 18.109375,42.671875 18.109375,31.390625 18.109375,20.125 21.3125,9.0625 24.515625,-2 31,-13.1875 H 23.1875 Q 15.875,-1.703125 12.234375,9.375 8.59375,20.453125 8.59375,31.390625 q 0,10.890625 3.609375,21.921875 3.625,11.046875 10.984375,22.5625 z"
               id="DejaVuSans-40" />
            <path
               d="m 8.015625,75.875 h 7.8125 q 7.3125,-11.515625 10.953125,-22.5625 3.640625,-11.03125 3.640625,-21.921875 0,-10.9375 -3.640625,-22.015625 -3.640625,-11.078125 -10.953125,-22.5625 h -7.8125 Q 14.5,-2 17.703125,9.0625 20.90625,20.125 20.90625,31.390625 q 0,11.28125 -3.203125,22.265625 -3.203125,11 -9.6875,22.21875 z"
               id="DejaVuSans-41" />
          </defs>
          <use
             transform="translate(0,0.125)"
             xlink:href="#ArialMT-82"
             id="use246"
             x="0"
             y="0"
             width="100%"
             height="100%" />
          <use
             transform="translate(72.216797,0.125)"
             xlink:href="#ArialMT-101"
             id="use248"
             x="0"
             y="0"
             width="100%"
             height="100%" />
          <use
             transform="translate(127.83203,0.125)"
             xlink:href="#ArialMT-32"
             id="use250"
             x="0"
             y="0"
             width="100%"
             height="100%" />
          <use
             transform="translate(155.61523,0.125)"
             xlink:href="#DejaVuSans-Oblique-968"
             id="use252"
             x="0"
             y="0"
             width="100%"
             height="100%" />
          <use
             transform="matrix(0.7,0,0,0.7,221.58203,-16.28125)"
             xlink:href="#DejaVuSans-Oblique-106"
             id="use254"
             x="0"
             y="0"
             width="100%"
             height="100%" />
          <use
             transform="translate(243.76465,0.125)"
             xlink:href="#DejaVuSans-40"
             id="use256"
             x="0"
             y="0"
             width="100%"
             height="100%" />
          <use
             transform="translate(282.77832,0.125)"
             xlink:href="#DejaVuSans-Oblique-966"
             id="use258"
             x="0"
             y="0"
             width="100%"
             height="100%" />
          <use
             transform="translate(348.74512,0.125)"
             xlink:href="#DejaVuSans-41"
             id="use260"
             x="0"
             y="0"
             width="100%"
             height="100%" />
        </g>
      </g>
    </g>
    <g
       id="line2d_15">
      <path
         clip-path="url(#p8cb09bd837)"
         d="m 69.218182,44.673488 2.029091,0.08871 2.029091,0.265982 2.029091,0.442784 2.02909,0.618811 2.029091,0.79375 2.029091,0.967299 2.029091,1.139149 2.029091,1.309002 2.029091,1.476557 2.029091,1.641523 2.029091,1.803609 2.029091,1.962531 4.058182,4.387781 4.058185,4.978646 4.05818,5.53459 4.05818,6.051711 4.05818,6.526385 4.05818,6.95528 4.05819,7.33539 6.08727,11.602602 6.08727,12.15855 8.11636,16.74393 14.20364,29.44455 6.08727,12.15856 6.08728,11.60259 4.05818,7.33539 4.05818,6.95528 4.05818,6.52639 4.05818,6.05171 4.05819,5.53459 4.05818,4.97864 4.05818,4.38779 2.02909,1.96253 2.02909,1.80361 2.02909,1.64152 2.02909,1.47656 2.02909,1.309 2.02909,1.13915 2.02909,0.9673 2.0291,0.79375 2.02909,0.61881 2.02909,0.44278 2.02909,0.26598 2.02909,0.0887 2.02909,-0.0887 2.02909,-0.26598 2.02909,-0.44278 2.02909,-0.61881 2.02909,-0.79375 2.02909,-0.9673 2.0291,-1.13915 2.02909,-1.309 2.02909,-1.47656 2.02909,-1.64152 2.02909,-1.80361 2.02909,-1.96253 4.05818,-4.38779 4.05818,-4.97864 4.05819,-5.53459 4.05818,-6.05171 4.05818,-6.52639 4.05818,-6.95528 4.05818,-7.33539 6.08728,-11.60259 6.08727,-12.15856 8.11636,-16.74393 14.20364,-29.44455 6.08727,-12.15855 6.08727,-11.602602 4.05819,-7.33539 4.05818,-6.95528 4.05818,-6.526385 4.05818,-6.051711 4.05818,-5.53459 4.05819,-4.978646 4.05818,-4.387781 2.02909,-1.962531 2.02909,-1.803609 2.02909,-1.641523 2.02909,-1.476557 2.02909,-1.309002 2.02909,-1.139149 2.02909,-0.967299 2.0291,-0.79375 2.02909,-0.618811 2.02909,-0.442784 2.02909,-0.265982 2.02909,-0.08871 v 0"
         style="fill:none;stroke:#808080;stroke-width:1.5;stroke-linecap:square"
         id="path266" />
    </g>
    <g
       id="line2d_16">
      <path
         clip-path="url(#p8cb09bd837)"
         d="m 69.218182,227.23292 44.639998,-0.0939 14.20364,-0.22989 10.14545,-0.4006 8.11637,-0.587 6.08727,-0.67117 6.08727,-0.92909 6.08727,-1.23619 4.05819,-1.01189 6.08727,-1.80553 6.08727,-2.12356 8.11637,-3.1819 10.14545,-4.03698 4.05818,-1.44385 4.05818,-1.25013 4.05818,-0.99721 4.05819,-0.69478 4.05818,-0.35672 h 4.05818 l 4.05818,0.35672 4.05818,0.69478 4.05819,0.99721 4.05818,1.25013 6.08727,2.21844 20.29091,7.89259 6.08727,1.91691 4.05818,1.0891 6.08728,1.347 6.08727,1.02654 6.08727,0.75116 6.08727,0.52941 8.11637,0.45119 10.14545,0.2989 14.20364,0.16597 30.43636,0.0629 10.14546,0.001 v 0"
         style="fill:none;stroke:#016e82;stroke-width:1.5;stroke-linecap:square"
         id="path269" />
    </g>
    <g
       id="line2d_17">
      <path
         clip-path="url(#p8cb09bd837)"
         d="m 69.218182,44.673488 2.029091,0.08871 2.029091,0.265982 2.029091,0.442784 2.02909,0.618811 2.029091,0.79375 2.029091,0.967299 2.029091,1.139149 2.029091,1.309002 2.029091,1.476557 2.029091,1.641523 2.029091,1.803609 2.029091,1.962531 4.058182,4.387781 4.058185,4.978646 4.05818,5.53459 4.05818,6.051711 4.05818,6.526385 4.05818,6.95528 4.05819,7.33539 6.08727,11.602602 6.08727,12.15855 8.11636,16.74393 14.20364,29.44455 6.08727,12.15856 6.08728,11.60259 4.05818,7.33539 4.05818,6.95528 4.05818,6.52639 4.05818,6.05171 4.05819,5.53459 4.05818,4.97864 4.05818,4.38779 2.02909,1.96253 2.02909,1.80361 2.02909,1.64152 2.02909,1.47656 2.02909,1.309 2.02909,1.13915 2.02909,0.9673 2.0291,0.79375 2.02909,0.61881 2.02909,0.44278 2.02909,0.26598 2.02909,0.0887 2.02909,-0.0887 2.02909,-0.26598 2.02909,-0.44278 2.02909,-0.61881 2.02909,-0.79375 2.02909,-0.9673 2.0291,-1.13915 2.02909,-1.309 2.02909,-1.47656 2.02909,-1.64152 2.02909,-1.80361 2.02909,-1.96253 4.05818,-4.38779 4.05818,-4.97864 4.05819,-5.53459 4.05818,-6.05171 4.05818,-6.52639 4.05818,-6.95528 4.05818,-7.33539 6.08728,-11.60259 6.08727,-12.15856 8.11636,-16.74393 14.20364,-29.44455 6.08727,-12.15855 6.08727,-11.602602 4.05819,-7.33539 4.05818,-6.95528 4.05818,-6.526385 4.05818,-6.051711 4.05818,-5.53459 4.05819,-4.978646 4.05818,-4.387781 2.02909,-1.962531 2.02909,-1.803609 2.02909,-1.641523 2.02909,-1.476557 2.02909,-1.309002 2.02909,-1.139149 2.02909,-0.967299 2.0291,-0.79375 2.02909,-0.618811 2.02909,-0.442784 2.02909,-0.265982 2.02909,-0.08871 v 0"
         style="fill:none;stroke:#808080;stroke-width:1.5;stroke-linecap:square"
         id="path272" />
    </g>
    <g
       id="line2d_18">
      <path
         clip-path="url(#p8cb09bd837)"
         d="m 69.218182,188.92189 30.436363,-0.16504 12.174545,-0.27862 8.11636,-0.38084 6.08728,-0.45645 6.08727,-0.66273 6.08727,-0.92923 4.05818,-0.79605 4.05819,-0.95297 4.05818,-1.11655 6.08727,-1.97243 6.08727,-2.26658 12.17455,-4.72556 4.05818,-1.33006 4.05818,-1.03296 2.02909,-0.37001 2.02909,-0.25434 2.0291,-0.12614 2.02909,0.0134 2.02909,0.16268 2.02909,0.31981 2.02909,0.4826 2.02909,0.64856 2.02909,0.815 2.02909,0.97906 2.02909,1.13777 2.02909,1.28817 4.05818,2.97985 4.05819,3.41207 6.08727,5.5776 6.08727,5.5776 4.05818,3.41207 4.05819,2.97985 2.02909,1.28817 2.02909,1.13777 2.02909,0.97906 2.02909,0.815 2.02909,0.64856 2.02909,0.4826 2.02909,0.31981 2.02909,0.16268 2.02909,0.0134 2.02909,-0.12614 2.0291,-0.25434 4.05818,-0.84231 4.05818,-1.19556 4.05818,-1.43693 18.26182,-6.9453 4.05818,-1.2775 4.05818,-1.11655 4.05818,-0.95297 6.08728,-1.13911 6.08727,-0.83368 6.08727,-0.58742 8.11637,-0.50132 10.14545,-0.33456 14.20364,-0.19087 22.32,-0.082 v 0"
         style="fill:none;stroke:#333795;stroke-width:1.5;stroke-linecap:square"
         id="path275" />
    </g>
    <g
       id="line2d_19">
      <path
         clip-path="url(#p8cb09bd837)"
         d="m 69.218182,44.673488 2.029091,0.08871 2.029091,0.265982 2.029091,0.442784 2.02909,0.618811 2.029091,0.79375 2.029091,0.967299 2.029091,1.139149 2.029091,1.309002 2.029091,1.476557 2.029091,1.641523 2.029091,1.803609 2.029091,1.962531 4.058182,4.387781 4.058185,4.978646 4.05818,5.53459 4.05818,6.051711 4.05818,6.526385 4.05818,6.95528 4.05819,7.33539 6.08727,11.602602 6.08727,12.15855 8.11636,16.74393 14.20364,29.44455 6.08727,12.15856 6.08728,11.60259 4.05818,7.33539 4.05818,6.95528 4.05818,6.52639 4.05818,6.05171 4.05819,5.53459 4.05818,4.97864 4.05818,4.38779 2.02909,1.96253 2.02909,1.80361 2.02909,1.64152 2.02909,1.47656 2.02909,1.309 2.02909,1.13915 2.02909,0.9673 2.0291,0.79375 2.02909,0.61881 2.02909,0.44278 2.02909,0.26598 2.02909,0.0887 2.02909,-0.0887 2.02909,-0.26598 2.02909,-0.44278 2.02909,-0.61881 2.02909,-0.79375 2.02909,-0.9673 2.0291,-1.13915 2.02909,-1.309 2.02909,-1.47656 2.02909,-1.64152 2.02909,-1.80361 2.02909,-1.96253 4.05818,-4.38779 4.05818,-4.97864 4.05819,-5.53459 4.05818,-6.05171 4.05818,-6.52639 4.05818,-6.95528 4.05818,-7.33539 6.08728,-11.60259 6.08727,-12.15856 8.11636,-16.74393 14.20364,-29.44455 6.08727,-12.15855 6.08727,-11.602602 4.05819,-7.33539 4.05818,-6.95528 4.05818,-6.526385 4.05818,-6.051711 4.05818,-5.53459 4.05819,-4.978646 4.05818,-4.387781 2.02909,-1.962531 2.02909,-1.803609 2.02909,-1.641523 2.02909,-1.476557 2.02909,-1.309002 2.02909,-1.139149 2.02909,-0.967299 2.0291,-0.79375 2.02909,-0.618811 2.02909,-0.442784 2.02909,-0.265982 2.02909,-0.08871 v 0"
         style="fill:none;stroke:#808080;stroke-width:1.5;stroke-linecap:square"
         id="path278" />
    </g>
    <g
       id="line2d_20">
      <path
         clip-path="url(#p8cb09bd837)"
         d="m 69.218182,152.7861 16.232727,-0.12327 10.145455,-0.26305 8.116366,-0.40163 6.08727,-0.47443 6.08727,-0.68062 6.08728,-0.9448 6.08727,-1.26289 4.05818,-1.03682 6.08727,-1.84812 6.08727,-2.14769 12.17455,-4.52648 4.05818,-1.26145 4.05818,-0.94453 2.02909,-0.31289 2.0291,-0.18535 2.02909,-0.0428 2.02909,0.1135 2.02909,0.28162 2.02909,0.45921 2.02909,0.64344 2.02909,0.83097 2.02909,1.01807 2.02909,1.20065 2.02909,1.3744 2.0291,1.53487 4.05818,3.47582 4.05818,3.85032 6.08727,5.92229 4.05818,3.62396 2.02909,1.60472 2.02909,1.4212 2.0291,1.20749 2.02909,0.96777 2.02909,0.70692 2.02909,0.43051 2.02909,0.14457 2.02909,-0.14457 2.02909,-0.43051 2.02909,-0.70692 2.02909,-0.96777 2.02909,-1.20749 2.02909,-1.4212 2.0291,-1.60472 4.05818,-3.62396 12.17454,-11.57084 4.05818,-3.21246 2.0291,-1.3744 2.02909,-1.20065 2.02909,-1.01807 2.02909,-0.83097 2.02909,-0.64344 2.02909,-0.45921 2.02909,-0.28162 2.02909,-0.1135 2.02909,0.0428 2.02909,0.18535 4.05819,0.73746 4.05818,1.11905 4.05818,1.37278 18.26182,6.61724 4.05818,1.19463 4.05818,1.03682 4.05818,0.87955 6.08728,1.04543 6.08727,0.76219 6.08727,0.53691 8.11637,0.45964 10.14545,0.30639 14.20364,0.15365 4.05818,0.007 v 0"
         style="fill:none;stroke:#2e5eac;stroke-width:1.5;stroke-linecap:square"
         id="path281" />
    </g>
    <g
       id="line2d_21">
      <path
         clip-path="url(#p8cb09bd837)"
         d="m 69.218182,44.673488 2.029091,0.08871 2.029091,0.265982 2.029091,0.442784 2.02909,0.618811 2.029091,0.79375 2.029091,0.967299 2.029091,1.139149 2.029091,1.309002 2.029091,1.476557 2.029091,1.641523 2.029091,1.803609 2.029091,1.962531 4.058182,4.387781 4.058185,4.978646 4.05818,5.53459 4.05818,6.051711 4.05818,6.526385 4.05818,6.95528 4.05819,7.33539 6.08727,11.602602 6.08727,12.15855 8.11636,16.74393 14.20364,29.44455 6.08727,12.15856 6.08728,11.60259 4.05818,7.33539 4.05818,6.95528 4.05818,6.52639 4.05818,6.05171 4.05819,5.53459 4.05818,4.97864 4.05818,4.38779 2.02909,1.96253 2.02909,1.80361 2.02909,1.64152 2.02909,1.47656 2.02909,1.309 2.02909,1.13915 2.02909,0.9673 2.0291,0.79375 2.02909,0.61881 2.02909,0.44278 2.02909,0.26598 2.02909,0.0887 2.02909,-0.0887 2.02909,-0.26598 2.02909,-0.44278 2.02909,-0.61881 2.02909,-0.79375 2.02909,-0.9673 2.0291,-1.13915 2.02909,-1.309 2.02909,-1.47656 2.02909,-1.64152 2.02909,-1.80361 2.02909,-1.96253 4.05818,-4.38779 4.05818,-4.97864 4.05819,-5.53459 4.05818,-6.05171 4.05818,-6.52639 4.05818,-6.95528 4.05818,-7.33539 6.08728,-11.60259 6.08727,-12.15856 8.11636,-16.74393 14.20364,-29.44455 6.08727,-12.15855 6.08727,-11.602602 4.05819,-7.33539 4.05818,-6.95528 4.05818,-6.526385 4.05818,-6.051711 4.05818,-5.53459 4.05819,-4.978646 4.05818,-4.387781 2.02909,-1.962531 2.02909,-1.803609 2.02909,-1.641523 2.02909,-1.476557 2.02909,-1.309002 2.02909,-1.139149 2.02909,-0.967299 2.0291,-0.79375 2.02909,-0.618811 2.02909,-0.442784 2.02909,-0.265982 2.02909,-0.08871 v 0"
         style="fill:none;stroke:#808080;stroke-width:1.5;stroke-linecap:square"
         id="path284" />
    </g>
    <g
       id="line2d_22">
      <path
         clip-path="url(#p8cb09bd837)"
         d="m 69.218182,119.54063 14.203636,-0.68711 8.116364,-0.59111 6.087273,-0.62435 6.087275,-0.83957 6.08727,-1.10775 6.08727,-1.41643 6.08728,-1.7352 6.08727,-2.00975 12.17454,-4.23964 4.05818,-1.18207 4.05819,-0.87896 2.02909,-0.28526 2.02909,-0.1607 2.02909,-0.0205 2.02909,0.13404 2.02909,0.30131 2.02909,0.47897 2.02909,0.66409 2.02909,0.85321 2.02909,1.0423 2.0291,1.22689 2.02909,1.40214 2.02909,1.56291 4.05818,3.52439 6.08727,5.8402 4.05818,3.82523 2.0291,1.76471 2.02909,1.60829 2.02909,1.41049 2.02909,1.17457 2.02909,0.90518 2.02909,0.60826 2.02909,0.29093 2.02909,-0.0387 2.02909,-0.37192 2.02909,-0.69936 2.02909,-1.0117 2.02909,-1.29971 2.0291,-1.55477 2.02909,-1.76905 4.05818,-3.98616 6.08727,-6.26676 2.02909,-1.93594 2.02909,-1.76905 2.02909,-1.55477 2.02909,-1.29971 2.0291,-1.0117 2.02909,-0.69937 2.02909,-0.37191 2.02909,-0.0387 2.02909,0.29093 2.02909,0.60826 2.02909,0.90518 2.02909,1.17457 2.02909,1.41049 2.02909,1.60829 4.05819,3.64261 10.14545,9.60788 4.05818,3.26695 2.02909,1.40213 2.02909,1.2269 2.02909,1.0423 2.0291,0.85321 2.02909,0.66409 2.02909,0.47897 2.02909,0.30131 2.02909,0.13404 2.02909,-0.0206 2.02909,-0.1607 4.05818,-0.6788 4.05818,-1.04645 4.05819,-1.28726 18.26181,-6.19566 6.08728,-1.63063 6.08727,-1.31047 6.08727,-1.01295 6.08728,-0.7617 8.11636,-0.71871 10.14546,-0.59369 8.11636,-0.36087 v 0"
         style="fill:none;stroke:#4498d3;stroke-width:1.5;stroke-linecap:square"
         id="path287" />
    </g>
    <g
       id="line2d_23">
      <path
         clip-path="url(#p8cb09bd837)"
         d="m 69.218182,44.673488 2.029091,0.08871 2.029091,0.265982 2.029091,0.442784 2.02909,0.618811 2.029091,0.79375 2.029091,0.967299 2.029091,1.139149 2.029091,1.309002 2.029091,1.476557 2.029091,1.641523 2.029091,1.803609 2.029091,1.962531 4.058182,4.387781 4.058185,4.978646 4.05818,5.53459 4.05818,6.051711 4.05818,6.526385 4.05818,6.95528 4.05819,7.33539 6.08727,11.602602 6.08727,12.15855 8.11636,16.74393 14.20364,29.44455 6.08727,12.15856 6.08728,11.60259 4.05818,7.33539 4.05818,6.95528 4.05818,6.52639 4.05818,6.05171 4.05819,5.53459 4.05818,4.97864 4.05818,4.38779 2.02909,1.96253 2.02909,1.80361 2.02909,1.64152 2.02909,1.47656 2.02909,1.309 2.02909,1.13915 2.02909,0.9673 2.0291,0.79375 2.02909,0.61881 2.02909,0.44278 2.02909,0.26598 2.02909,0.0887 2.02909,-0.0887 2.02909,-0.26598 2.02909,-0.44278 2.02909,-0.61881 2.02909,-0.79375 2.02909,-0.9673 2.0291,-1.13915 2.02909,-1.309 2.02909,-1.47656 2.02909,-1.64152 2.02909,-1.80361 2.02909,-1.96253 4.05818,-4.38779 4.05818,-4.97864 4.05819,-5.53459 4.05818,-6.05171 4.05818,-6.52639 4.05818,-6.95528 4.05818,-7.33539 6.08728,-11.60259 6.08727,-12.15856 8.11636,-16.74393 14.20364,-29.44455 6.08727,-12.15855 6.08727,-11.602602 4.05819,-7.33539 4.05818,-6.95528 4.05818,-6.526385 4.05818,-6.051711 4.05818,-5.53459 4.05819,-4.978646 4.05818,-4.387781 2.02909,-1.962531 2.02909,-1.803609 2.02909,-1.641523 2.02909,-1.476557 2.02909,-1.309002 2.02909,-1.139149 2.02909,-0.967299 2.0291,-0.79375 2.02909,-0.618811 2.02909,-0.442784 2.02909,-0.265982 2.02909,-0.08871 v 0"
         style="fill:none;stroke:#808080;stroke-width:1.5;stroke-linecap:square"
         id="path290" />
    </g>
    <g
       id="line2d_24">
      <path
         clip-path="url(#p8cb09bd837)"
         d="m 69.218182,86.904735 6.087273,-0.117128 6.087272,-0.357184 6.087273,-0.612982 6.087273,-0.889173 6.087272,-1.180768 6.087275,-1.468031 6.08727,-1.711487 14.20364,-4.188268 4.05818,-0.923574 4.05818,-0.617118 2.02909,-0.157151 2.02909,-0.03683 2.02909,0.09726 2.02909,0.243939 2.02909,0.401506 2.0291,0.567695 2.02909,0.739679 2.02909,0.914071 2.02909,1.086963 2.02909,1.253981 2.02909,1.410376 4.05818,3.22227 4.05818,3.594092 6.08728,5.49925 4.05818,3.260613 2.02909,1.378846 2.02909,1.156461 2.02909,0.897637 2.02909,0.60792 2.02909,0.29434 2.02909,-0.0348 2.0291,-0.37002 2.02909,-0.7012 2.02909,-1.017645 2.02909,-1.308678 2.02909,-1.563983 2.02909,-1.774057 4.05818,-3.957708 4.05818,-4.081827 2.02909,-1.920265 2.02909,-1.752641 2.0291,-1.525181 2.02909,-1.245144 2.02909,-0.921857 2.02909,-0.566368 2.02909,-0.191026 2.02909,0.191026 2.02909,0.566368 2.02909,0.921857 2.02909,1.245144 2.02909,1.525181 2.02909,1.752641 4.05819,3.94338 4.05818,4.085786 2.02909,1.930634 2.02909,1.774057 2.02909,1.563983 2.02909,1.308678 2.02909,1.017645 2.02909,0.7012 2.02909,0.37002 2.0291,0.0348 2.02909,-0.29434 2.02909,-0.60792 2.02909,-0.897637 2.02909,-1.156461 2.02909,-1.378846 4.05818,-3.260613 12.17455,-10.764477 2.02909,-1.551135 2.02909,-1.410376 2.02909,-1.253981 2.02909,-1.086963 2.02909,-0.914071 2.02909,-0.739679 2.02909,-0.567695 2.02909,-0.401506 2.0291,-0.243939 2.02909,-0.09726 2.02909,0.03683 4.05818,0.42015 4.05818,0.784743 4.05818,1.034734 8.11637,2.419367 8.11636,2.391425 6.08727,1.556646 6.08728,1.278504 6.08727,0.98528 6.08727,0.702782 6.08728,0.440324 6.08727,0.195944 2.02909,0.01297 v 0"
         style="fill:none;stroke:#cd85b9;stroke-width:1.5;stroke-linecap:square"
         id="path293" />
    </g>
    <g
       id="line2d_25">
      <path
         clip-path="url(#p8cb09bd837)"
         d="m 69.218182,44.673488 2.029091,0.08871 2.029091,0.265982 2.029091,0.442784 2.02909,0.618811 2.029091,0.79375 2.029091,0.967299 2.029091,1.139149 2.029091,1.309002 2.029091,1.476557 2.029091,1.641523 2.029091,1.803609 2.029091,1.962531 4.058182,4.387781 4.058185,4.978646 4.05818,5.53459 4.05818,6.051711 4.05818,6.526385 4.05818,6.95528 4.05819,7.33539 6.08727,11.602602 6.08727,12.15855 8.11636,16.74393 14.20364,29.44455 6.08727,12.15856 6.08728,11.60259 4.05818,7.33539 4.05818,6.95528 4.05818,6.52639 4.05818,6.05171 4.05819,5.53459 4.05818,4.97864 4.05818,4.38779 2.02909,1.96253 2.02909,1.80361 2.02909,1.64152 2.02909,1.47656 2.02909,1.309 2.02909,1.13915 2.02909,0.9673 2.0291,0.79375 2.02909,0.61881 2.02909,0.44278 2.02909,0.26598 2.02909,0.0887 2.02909,-0.0887 2.02909,-0.26598 2.02909,-0.44278 2.02909,-0.61881 2.02909,-0.79375 2.02909,-0.9673 2.0291,-1.13915 2.02909,-1.309 2.02909,-1.47656 2.02909,-1.64152 2.02909,-1.80361 2.02909,-1.96253 4.05818,-4.38779 4.05818,-4.97864 4.05819,-5.53459 4.05818,-6.05171 4.05818,-6.52639 4.05818,-6.95528 4.05818,-7.33539 6.08728,-11.60259 6.08727,-12.15856 8.11636,-16.74393 14.20364,-29.44455 6.08727,-12.15855 6.08727,-11.602602 4.05819,-7.33539 4.05818,-6.95528 4.05818,-6.526385 4.05818,-6.051711 4.05818,-5.53459 4.05819,-4.978646 4.05818,-4.387781 2.02909,-1.962531 2.02909,-1.803609 2.02909,-1.641523 2.02909,-1.476557 2.02909,-1.309002 2.02909,-1.139149 2.02909,-0.967299 2.0291,-0.79375 2.02909,-0.618811 2.02909,-0.442784 2.02909,-0.265982 2.02909,-0.08871 v 0"
         style="fill:none;stroke:#808080;stroke-width:1.5;stroke-linecap:square"
         id="path296" />
    </g>
    <g
       id="line2d_26">
      <path
         clip-path="url(#p8cb09bd837)"
         d="m 69.218182,61.257442 14.203636,-4.174997 10.145455,-3.264841 14.203637,-4.650077 4.05818,-1.118654 4.05818,-0.887472 4.05818,-0.558869 2.0291,-0.123965 2.02909,-0.0032 2.02909,0.129713 2.02909,0.273717 2.02909,0.427267 2.02909,0.58831 2.02909,0.754259 2.02909,0.922003 2.02909,1.087921 2.02909,1.247931 4.05818,2.929574 4.05819,3.382147 10.14545,8.835728 2.02909,1.517163 2.02909,1.333674 2.02909,1.109328 2.02909,0.847966 2.0291,0.555081 2.02909,0.237779 2.02909,-0.09537 2.02909,-0.434522 2.02909,-0.768866 2.02909,-1.086976 2.02909,-1.377255 2.02909,-1.628403 4.05818,-3.802575 6.08728,-6.08963 2.02909,-1.843981 2.02909,-1.631949 2.02909,-1.356238 2.02909,-1.026098 2.02909,-0.653353 2.02909,-0.25197 2.02909,0.162503 2.02909,0.573592 2.02909,0.964614 2.0291,1.319444 2.02909,1.623255 2.02909,1.863225 4.05818,4.143071 4.05818,4.143071 2.02909,1.863225 2.02909,1.623256 2.02909,1.319444 2.02909,0.964614 2.0291,0.573592 2.02909,0.162503 2.02909,-0.25197 2.02909,-0.653353 2.02909,-1.026098 2.02909,-1.356238 2.02909,-1.63195 4.05818,-3.829928 6.08728,-6.076332 2.02909,-1.829926 2.02909,-1.628402 2.02909,-1.377255 2.02909,-1.086976 2.02909,-0.768866 2.02909,-0.434523 2.02909,-0.09537 2.02909,0.237778 2.02909,0.555082 2.02909,0.847965 2.0291,1.109328 2.02909,1.333675 2.02909,1.517163 4.05818,3.411847 8.11636,7.159628 4.05818,3.178421 2.0291,1.397553 2.02909,1.24793 2.02909,1.087922 2.02909,0.922003 2.02909,0.754259 2.02909,0.588309 2.02909,0.427268 2.02909,0.273717 2.02909,0.129713 2.02909,-0.0032 4.05819,-0.355915 4.05818,-0.735894 4.05818,-1.014593 6.08727,-1.847177 24.34909,-7.880433 10.14546,-2.944864 v 0"
         style="fill:none;stroke:#45c3d1;stroke-width:1.5;stroke-linecap:square"
         id="path299" />
    </g>
    <g
       id="patch_3">
      <path
         d="M 54,252 V 34.56"
         style="fill:none;stroke:#000000;stroke-width:0.8;stroke-linecap:square;stroke-linejoin:miter"
         id="path302" />
    </g>
    <g
       id="patch_4">
      <path
         d="M 54,252 H 388.8"
         style="fill:none;stroke:#000000;stroke-width:0.8;stroke-linecap:square;stroke-linejoin:miter"
         id="path305" />
    </g>
  </g>
  <defs
     id="defs313">
    <clipPath
       id="p8cb09bd837">
      <rect
         height="217.44"
         width="334.79999"
         x="54"
         y="34.560001"
         id="rect310" />
    </clipPath>
  </defs>
</svg>
