<svg xmlns="http://www.w3.org/2000/svg" xmlns:xlink="http://www.w3.org/1999/xlink" width="1172" height="3483" contentScriptType="application/ecmascript" contentStyleType="text/css" preserveAspectRatio="none" style="width:1172px;height:3483px" version="1.1" viewBox="0 0 1172 3483" zoomAndPan="magnify"><defs><filter id="fi064kp08o3d0" width="300%" height="300%" x="-1" y="-1"><feGaussianBlur result="blurOut" stdDeviation="2"/><feColorMatrix in="blurOut" result="blurOut2" type="matrix" values="0 0 0 0 0 0 0 0 0 0 0 0 0 0 0 0 0 0 .4 0"/><feOffset dx="4" dy="4" in="blurOut2" result="blurOut3"/><feBlend in="SourceGraphic" in2="blurOut3" mode="normal"/></filter></defs><g><polygon fill="#696969" points="503 6 558 6 565 28.297 1002 28.297 1002 356 503 356 503 6" filter="url(#fi064kp08o3d0)" style="stroke:#000;stroke-width:1.5"/><line style="stroke:#000;stroke-width:1.5" x1="503" x2="565" y1="28.297" y2="28.297"/><text x="507" y="20.995" fill="#000" font-family="sans-serif" font-size="14" font-weight="bold" lengthAdjust="spacingAndGlyphs" textLength="49">Week 1</text><polygon fill="#B8860B" points="535 57 632 57 639 79.297 970 79.297 970 160 535 160 535 57" filter="url(#fi064kp08o3d0)" style="stroke:#000;stroke-width:1.5"/><line style="stroke:#000;stroke-width:1.5" x1="535" x2="639" y1="79.297" y2="79.297"/><text x="539" y="71.995" fill="#000" font-family="sans-serif" font-size="14" font-weight="bold" lengthAdjust="spacingAndGlyphs" textLength="91">Introduction</text><polygon fill="#B8860B" points="535 221 633 221 640 243.297 967 243.297 967 324 535 324 535 221" filter="url(#fi064kp08o3d0)" style="stroke:#000;stroke-width:1.5"/><line style="stroke:#000;stroke-width:1.5" x1="535" x2="640" y1="243.297" y2="243.297"/><text x="539" y="235.995" fill="#000" font-family="sans-serif" font-size="14" font-weight="bold" lengthAdjust="spacingAndGlyphs" textLength="92">Prerequisites</text><polygon fill="#696969" points="74 380 129 380 136 402.297 583 402.297 583 901 74 901 74 380" filter="url(#fi064kp08o3d0)" style="stroke:#000;stroke-width:1.5"/><line style="stroke:#000;stroke-width:1.5" x1="74" x2="136" y1="402.297" y2="402.297"/><text x="78" y="394.995" fill="#000" font-family="sans-serif" font-size="14" font-weight="bold" lengthAdjust="spacingAndGlyphs" textLength="49">Week 2</text><polygon fill="#B8860B" points="291 431 446 431 453 453.297 551 453.297 551 630 291 630 291 431" filter="url(#fi064kp08o3d0)" style="stroke:#000;stroke-width:1.5"/><line style="stroke:#000;stroke-width:1.5" x1="291" x2="453" y1="453.297" y2="453.297"/><text x="295" y="445.995" fill="#000" font-family="sans-serif" font-size="14" font-weight="bold" lengthAdjust="spacingAndGlyphs" textLength="149">Quantum Computing</text><polygon fill="#B8860B" points="106 670 231 670 238 692.297 551 692.297 551 869 106 869 106 670" filter="url(#fi064kp08o3d0)" style="stroke:#000;stroke-width:1.5"/><line style="stroke:#000;stroke-width:1.5" x1="106" x2="238" y1="692.297" y2="692.297"/><text x="110" y="684.995" fill="#000" font-family="sans-serif" font-size="14" font-weight="bold" lengthAdjust="spacingAndGlyphs" textLength="119">Programming QC</text><polygon fill="#696969" points="16 934 71 934 78 956.297 590 956.297 590 1266 16 1266 16 934" filter="url(#fi064kp08o3d0)" style="stroke:#000;stroke-width:1.5"/><line style="stroke:#000;stroke-width:1.5" x1="16" x2="78" y1="956.297" y2="956.297"/><text x="20" y="948.995" fill="#000" font-family="sans-serif" font-size="14" font-weight="bold" lengthAdjust="spacingAndGlyphs" textLength="49">Week 3</text><polygon fill="#B8860B" points="48 985 241 985 248 1007.297 558 1007.297 558 1234 48 1234 48 985" filter="url(#fi064kp08o3d0)" style="stroke:#000;stroke-width:1.5"/><line style="stroke:#000;stroke-width:1.5" x1="48" x2="248" y1="1007.297" y2="1007.297"/><text x="52" y="999.995" fill="#000" font-family="sans-serif" font-size="14" font-weight="bold" lengthAdjust="spacingAndGlyphs" textLength="187">Basic Quantum Algorithms</text><polygon fill="#696969" points="614 1080 669 1080 676 1102.297 1094 1102.297 1094 1606 614 1606 614 1080" filter="url(#fi064kp08o3d0)" style="stroke:#000;stroke-width:1.5"/><line style="stroke:#000;stroke-width:1.5" x1="614" x2="676" y1="1102.297" y2="1102.297"/><text x="618" y="1094.995" fill="#000" font-family="sans-serif" font-size="14" font-weight="bold" lengthAdjust="spacingAndGlyphs" textLength="49">Week 4</text><polygon fill="#B8860B" points="646 1131 756 1131 763 1153.297 1062 1153.297 1062 1234 646 1234 646 1131" filter="url(#fi064kp08o3d0)" style="stroke:#000;stroke-width:1.5"/><line style="stroke:#000;stroke-width:1.5" x1="646" x2="763" y1="1153.297" y2="1153.297"/><text x="650" y="1145.995" fill="#000" font-family="sans-serif" font-size="14" font-weight="bold" lengthAdjust="spacingAndGlyphs" textLength="104">NISQ Hardware</text><polygon fill="#B8860B" points="646 1307 744 1307 751 1329.297 1047 1329.297 1047 1410 646 1410 646 1307" filter="url(#fi064kp08o3d0)" style="stroke:#000;stroke-width:1.5"/><line style="stroke:#000;stroke-width:1.5" x1="646" x2="751" y1="1329.297" y2="1329.297"/><text x="650" y="1321.995" fill="#000" font-family="sans-serif" font-size="14" font-weight="bold" lengthAdjust="spacingAndGlyphs" textLength="92">Quantum ML</text><polygon fill="#B8860B" points="646 1471 681 1471 688 1493.297 761 1493.297 761 1574 646 1574 646 1471" filter="url(#fi064kp08o3d0)" style="stroke:#000;stroke-width:1.5"/><line style="stroke:#000;stroke-width:1.5" x1="646" x2="688" y1="1493.297" y2="1493.297"/><text x="650" y="1485.995" fill="#000" font-family="sans-serif" font-size="14" font-weight="bold" lengthAdjust="spacingAndGlyphs" textLength="29">VQC</text><polygon fill="#696969" points="614 1630 669 1630 676 1652.297 1016 1652.297 1016 2144 614 2144 614 1630" filter="url(#fi064kp08o3d0)" style="stroke:#000;stroke-width:1.5"/><line style="stroke:#000;stroke-width:1.5" x1="614" x2="676" y1="1652.297" y2="1652.297"/><text x="618" y="1644.995" fill="#000" font-family="sans-serif" font-size="14" font-weight="bold" lengthAdjust="spacingAndGlyphs" textLength="49">Week 5</text><polygon fill="#B8860B" points="646 1681 720 1681 727 1703.297 984 1703.297 984 1784 646 1784 646 1681" filter="url(#fi064kp08o3d0)" style="stroke:#000;stroke-width:1.5"/><line style="stroke:#000;stroke-width:1.5" x1="646" x2="727" y1="1703.297" y2="1703.297"/><text x="650" y="1695.995" fill="#000" font-family="sans-serif" font-size="14" font-weight="bold" lengthAdjust="spacingAndGlyphs" textLength="68">Gradients</text><polygon fill="#B8860B" points="646 1845 752 1845 759 1867.297 948 1867.297 948 1948 646 1948 646 1845" filter="url(#fi064kp08o3d0)" style="stroke:#000;stroke-width:1.5"/><line style="stroke:#000;stroke-width:1.5" x1="646" x2="759" y1="1867.297" y2="1867.297"/><text x="650" y="1859.995" fill="#000" font-family="sans-serif" font-size="14" font-weight="bold" lengthAdjust="spacingAndGlyphs" textLength="100">Quantum SVM</text><polygon fill="#B8860B" points="646 2009 838 2009 845 2031.297 938 2031.297 938 2112 646 2112 646 2009" filter="url(#fi064kp08o3d0)" style="stroke:#000;stroke-width:1.5"/><line style="stroke:#000;stroke-width:1.5" x1="646" x2="845" y1="2031.297" y2="2031.297"/><text x="650" y="2023.995" fill="#000" font-family="sans-serif" font-size="14" font-weight="bold" lengthAdjust="spacingAndGlyphs" textLength="186">Quantum Neural Networks</text><polygon fill="#696969" points="51 2168 106 2168 113 2190.297 694 2190.297 694 2450 51 2450 51 2168" filter="url(#fi064kp08o3d0)" style="stroke:#000;stroke-width:1.5"/><line style="stroke:#000;stroke-width:1.5" x1="51" x2="113" y1="2190.297" y2="2190.297"/><text x="55" y="2182.995" fill="#000" font-family="sans-serif" font-size="14" font-weight="bold" lengthAdjust="spacingAndGlyphs" textLength="49">Week 6</text><polygon fill="#B8860B" points="83 2219 215 2219 222 2241.297 662 2241.297 662 2418 83 2418 83 2219" filter="url(#fi064kp08o3d0)" style="stroke:#000;stroke-width:1.5"/><line style="stroke:#000;stroke-width:1.5" x1="83" x2="222" y1="2241.297" y2="2241.297"/><text x="87" y="2233.995" fill="#000" font-family="sans-serif" font-size="14" font-weight="bold" lengthAdjust="spacingAndGlyphs" textLength="126">Problems for QML</text><polygon fill="#696969" points="33 2483 88 2483 95 2505.297 706 2505.297 706 2765 33 2765 33 2483" filter="url(#fi064kp08o3d0)" style="stroke:#000;stroke-width:1.5"/><line style="stroke:#000;stroke-width:1.5" x1="33" x2="95" y1="2505.297" y2="2505.297"/><text x="37" y="2497.995" fill="#000" font-family="sans-serif" font-size="14" font-weight="bold" lengthAdjust="spacingAndGlyphs" textLength="49">Week 7</text><polygon fill="#B8860B" points="65 2534 234 2534 241 2556.297 674 2556.297 674 2733 65 2733 65 2534" filter="url(#fi064kp08o3d0)" style="stroke:#000;stroke-width:1.5"/><line style="stroke:#000;stroke-width:1.5" x1="65" x2="241" y1="2556.297" y2="2556.297"/><text x="69" y="2548.995" fill="#000" font-family="sans-serif" font-size="14" font-weight="bold" lengthAdjust="spacingAndGlyphs" textLength="163">From problems to QML</text><polygon fill="#696969" points="633 2798 688 2798 695 2820.297 1155 2820.297 1155 3476 633 3476 633 2798" filter="url(#fi064kp08o3d0)" style="stroke:#000;stroke-width:1.5"/><line style="stroke:#000;stroke-width:1.5" x1="633" x2="695" y1="2820.297" y2="2820.297"/><text x="637" y="2812.995" fill="#000" font-family="sans-serif" font-size="14" font-weight="bold" lengthAdjust="spacingAndGlyphs" textLength="49">Week 8</text><polygon fill="#B8860B" points="665 2849 699 2849 706 2871.297 917 2871.297 917 2952 665 2952 665 2849" filter="url(#fi064kp08o3d0)" style="stroke:#000;stroke-width:1.5"/><line style="stroke:#000;stroke-width:1.5" x1="665" x2="706" y1="2871.297" y2="2871.297"/><text x="669" y="2863.995" fill="#000" font-family="sans-serif" font-size="14" font-weight="bold" lengthAdjust="spacingAndGlyphs" textLength="28">VQE</text><polygon fill="#B8860B" points="665 3013 723 3013 730 3035.297 1123 3035.297 1123 3116 665 3116 665 3013" filter="url(#fi064kp08o3d0)" style="stroke:#000;stroke-width:1.5"/><line style="stroke:#000;stroke-width:1.5" x1="665" x2="730" y1="3035.297" y2="3035.297"/><text x="669" y="3027.995" fill="#000" font-family="sans-serif" font-size="14" font-weight="bold" lengthAdjust="spacingAndGlyphs" textLength="52">D-Wave</text><polygon fill="#B8860B" points="665 3177 711 3177 718 3199.297 792 3199.297 792 3280 665 3280 665 3177" filter="url(#fi064kp08o3d0)" style="stroke:#000;stroke-width:1.5"/><line style="stroke:#000;stroke-width:1.5" x1="665" x2="718" y1="3199.297" y2="3199.297"/><text x="669" y="3191.995" fill="#000" font-family="sans-serif" font-size="14" font-weight="bold" lengthAdjust="spacingAndGlyphs" textLength="40">QAOA</text><polygon fill="#B8860B" points="665 3341 823 3341 830 3363.297 958 3363.297 958 3444 665 3444 665 3341" filter="url(#fi064kp08o3d0)" style="stroke:#000;stroke-width:1.5"/><line style="stroke:#000;stroke-width:1.5" x1="665" x2="830" y1="3363.297" y2="3363.297"/><text x="669" y="3355.995" fill="#000" font-family="sans-serif" font-size="14" font-weight="bold" lengthAdjust="spacingAndGlyphs" textLength="152">Jobs and Perspectives</text><rect width="368" height="36.297" x="578" y="100" fill="#00BFFF" filter="url(#fi064kp08o3d0)" style="stroke:#000;stroke-width:1.5"/><text x="588" y="122.995" fill="#000" font-family="sans-serif" font-size="14" lengthAdjust="spacingAndGlyphs" textLength="348">Quantum Computers, Bitcoin and Quantum Advantage</text><rect width="99" height="36.297" x="578.5" y="264" fill="#00BFFF" filter="url(#fi064kp08o3d0)" style="stroke:#000;stroke-width:1.5"/><text x="588.5" y="286.995" fill="#000" font-family="sans-serif" font-size="14" lengthAdjust="spacingAndGlyphs" textLength="79">Python Intro</text><rect width="121" height="36.297" x="712.5" y="264" fill="#00BFFF" filter="url(#fi064kp08o3d0)" style="stroke:#000;stroke-width:1.5"/><text x="722.5" y="286.995" fill="#000" font-family="sans-serif" font-size="14" lengthAdjust="spacingAndGlyphs" textLength="101">Linalg &amp; Numpy</text><rect width="74" height="36.297" x="869" y="264" fill="#00BFFF" filter="url(#fi064kp08o3d0)" style="stroke:#000;stroke-width:1.5"/><text x="879" y="286.995" fill="#000" font-family="sans-serif" font-size="14" lengthAdjust="spacingAndGlyphs" textLength="54">ML Intro</text><rect width="56" height="36.297" x="315" y="474" fill="green" filter="url(#fi064kp08o3d0)" style="stroke:#000;stroke-width:1.5"/><text x="325" y="496.995" fill="#000" font-family="sans-serif" font-size="14" lengthAdjust="spacingAndGlyphs" textLength="36">Qubit</text><rect width="57" height="36.297" x="315.5" y="570" fill="green" filter="url(#fi064kp08o3d0)" style="stroke:#000;stroke-width:1.5"/><text x="325.5" y="592.995" fill="#000" font-family="sans-serif" font-size="14" lengthAdjust="spacingAndGlyphs" textLength="37">Gates</text><rect width="102" height="36.297" x="406" y="474" fill="gold" filter="url(#fi064kp08o3d0)" style="stroke:#000;stroke-width:1.5"/><text x="416" y="496.995" fill="#000" font-family="sans-serif" font-size="14" lengthAdjust="spacingAndGlyphs" textLength="82">Mixed States</text><rect width="161" height="36.297" x="253.5" y="713" fill="green" filter="url(#fi064kp08o3d0)" style="stroke:#000;stroke-width:1.5"/><text x="263.5" y="735.995" fill="#000" font-family="sans-serif" font-size="14" lengthAdjust="spacingAndGlyphs" textLength="141">Frameworks Overview</text><rect width="89" height="36.297" x="289.5" y="809" fill="green" filter="url(#fi064kp08o3d0)" style="stroke:#000;stroke-width:1.5"/><text x="299.5" y="831.995" fill="#000" font-family="sans-serif" font-size="14" lengthAdjust="spacingAndGlyphs" textLength="69">PennyLane</text><rect width="88" height="36.297" x="130" y="713" fill="gold" filter="url(#fi064kp08o3d0)" style="stroke:#000;stroke-width:1.5"/><text x="140" y="735.995" fill="#000" font-family="sans-serif" font-size="14" lengthAdjust="spacingAndGlyphs" textLength="68">Cirq &amp; TFQ</text><rect width="58" height="36.297" x="450" y="713" fill="gold" filter="url(#fi064kp08o3d0)" style="stroke:#000;stroke-width:1.5"/><text x="460" y="735.995" fill="#000" font-family="sans-serif" font-size="14" lengthAdjust="spacingAndGlyphs" textLength="38">Qiskit</text><rect width="218" height="36.297" x="167" y="1028" fill="green" filter="url(#fi064kp08o3d0)" style="stroke:#000;stroke-width:1.5"/><text x="177" y="1050.995" fill="#000" font-family="sans-serif" font-size="14" lengthAdjust="spacingAndGlyphs" textLength="198">Quantum Algorithms Overview</text><rect width="73" height="36.297" x="72.5" y="1174" fill="green" filter="url(#fi064kp08o3d0)" style="stroke:#000;stroke-width:1.5"/><text x="82.5" y="1196.995" fill="#000" font-family="sans-serif" font-size="14" lengthAdjust="spacingAndGlyphs" textLength="53">Deutsch</text><rect width="169" height="36.297" x="180.5" y="1174" fill="green" filter="url(#fi064kp08o3d0)" style="stroke:#000;stroke-width:1.5"/><text x="190.5" y="1196.995" fill="#000" font-family="sans-serif" font-size="14" lengthAdjust="spacingAndGlyphs" textLength="149">Quantum Teleportation</text><rect width="141" height="36.297" x="384.5" y="1174" fill="green" filter="url(#fi064kp08o3d0)" style="stroke:#000;stroke-width:1.5"/><text x="394.5" y="1196.995" fill="#000" font-family="sans-serif" font-size="14" lengthAdjust="spacingAndGlyphs" textLength="121">Superdense coding</text><rect width="63" height="36.297" x="420.5" y="1028" fill="gold" filter="url(#fi064kp08o3d0)" style="stroke:#000;stroke-width:1.5"/><text x="430.5" y="1050.995" fill="#000" font-family="sans-serif" font-size="14" lengthAdjust="spacingAndGlyphs" textLength="43">Grover</text><rect width="60" height="36.297" x="72" y="1028" fill="gold" filter="url(#fi064kp08o3d0)" style="stroke:#000;stroke-width:1.5"/><text x="82" y="1050.995" fill="#000" font-family="sans-serif" font-size="14" lengthAdjust="spacingAndGlyphs" textLength="40">Simon</text><rect width="144" height="36.297" x="689" y="1174" fill="green" filter="url(#fi064kp08o3d0)" style="stroke:#000;stroke-width:1.5"/><text x="699" y="1196.995" fill="#000" font-family="sans-serif" font-size="14" lengthAdjust="spacingAndGlyphs" textLength="124">Hardware Overview</text><rect width="170" height="36.297" x="868" y="1174" fill="brown" filter="url(#fi064kp08o3d0)" style="stroke:#000;stroke-width:1.5"/><text x="878" y="1196.995" fill="#000" font-family="sans-serif" font-size="14" lengthAdjust="spacingAndGlyphs" textLength="150">Superconducting qubits</text><rect width="104" height="36.297" x="836" y="1350" fill="green" filter="url(#fi064kp08o3d0)" style="stroke:#000;stroke-width:1.5"/><text x="846" y="1372.995" fill="#000" font-family="sans-serif" font-size="14" lengthAdjust="spacingAndGlyphs" textLength="84">QML General</text><rect width="47" height="36.297" x="975.5" y="1350" fill="brown" filter="url(#fi064kp08o3d0)" style="stroke:#000;stroke-width:1.5"/><text x="985.5" y="1372.995" fill="#000" font-family="sans-serif" font-size="14" lengthAdjust="spacingAndGlyphs" textLength="27">HHL</text><rect width="112" height="36.297" x="689" y="1350" fill="brown" filter="url(#fi064kp08o3d0)" style="stroke:#000;stroke-width:1.5"/><text x="699" y="1372.995" fill="#000" font-family="sans-serif" font-size="14" lengthAdjust="spacingAndGlyphs" textLength="92">Quantum KNN</text><rect width="47" height="36.297" x="689.5" y="1514" fill="green" filter="url(#fi064kp08o3d0)" style="stroke:#000;stroke-width:1.5"/><text x="699.5" y="1536.995" fill="#000" font-family="sans-serif" font-size="14" lengthAdjust="spacingAndGlyphs" textLength="27">VQC</text><rect width="82" height="36.297" x="689" y="1724" fill="green" filter="url(#fi064kp08o3d0)" style="stroke:#000;stroke-width:1.5"/><text x="699" y="1746.995" fill="#000" font-family="sans-serif" font-size="14" lengthAdjust="spacingAndGlyphs" textLength="62">Gradients</text><rect width="154" height="36.297" x="806" y="1724" fill="gold" filter="url(#fi064kp08o3d0)" style="stroke:#000;stroke-width:1.5"/><text x="816" y="1746.995" fill="#000" font-family="sans-serif" font-size="14" lengthAdjust="spacingAndGlyphs" textLength="134">High-Order gradients</text><rect width="93" height="36.297" x="689.5" y="1888" fill="green" filter="url(#fi064kp08o3d0)" style="stroke:#000;stroke-width:1.5"/><text x="699.5" y="1910.995" fill="#000" font-family="sans-serif" font-size="14" lengthAdjust="spacingAndGlyphs" textLength="73">Hybrid SVM</text><rect width="106" height="36.297" x="818" y="1888" fill="gold" filter="url(#fi064kp08o3d0)" style="stroke:#000;stroke-width:1.5"/><text x="828" y="1910.995" fill="#000" font-family="sans-serif" font-size="14" lengthAdjust="spacingAndGlyphs" textLength="86">Classical SVM</text><rect width="51" height="36.297" x="689.5" y="2052" fill="green" filter="url(#fi064kp08o3d0)" style="stroke:#000;stroke-width:1.5"/><text x="699.5" y="2074.995" fill="#000" font-family="sans-serif" font-size="14" lengthAdjust="spacingAndGlyphs" textLength="31">QNN</text><rect width="138" height="36.297" x="776" y="2052" fill="green" filter="url(#fi064kp08o3d0)" style="stroke:#000;stroke-width:1.5"/><text x="786" y="2074.995" fill="#000" font-family="sans-serif" font-size="14" lengthAdjust="spacingAndGlyphs" textLength="118">Convolutional VQC</text><rect width="96" height="36.297" x="523" y="2262" fill="green" filter="url(#fi064kp08o3d0)" style="stroke:#000;stroke-width:1.5"/><text x="533" y="2284.995" fill="#000" font-family="sans-serif" font-size="14" lengthAdjust="spacingAndGlyphs" textLength="76">Ising model</text><rect width="117" height="36.297" x="495.5" y="2358" fill="gold" filter="url(#fi064kp08o3d0)" style="stroke:#000;stroke-width:1.5"/><text x="505.5" y="2380.995" fill="#000" font-family="sans-serif" font-size="14" lengthAdjust="spacingAndGlyphs" textLength="97">Advanced Ising</text><rect width="197" height="36.297" x="290.5" y="2262" fill="green" filter="url(#fi064kp08o3d0)" style="stroke:#000;stroke-width:1.5"/><text x="300.5" y="2284.995" fill="#000" font-family="sans-serif" font-size="14" lengthAdjust="spacingAndGlyphs" textLength="177">Combinatorial Optimization</text><rect width="149" height="36.297" x="106.5" y="2262" fill="green" filter="url(#fi064kp08o3d0)" style="stroke:#000;stroke-width:1.5"/><text x="116.5" y="2284.995" fill="#000" font-family="sans-serif" font-size="14" lengthAdjust="spacingAndGlyphs" textLength="129">Quantum Chemistry</text><rect width="215" height="36.297" x="107.5" y="2358" fill="gold" filter="url(#fi064kp08o3d0)" style="stroke:#000;stroke-width:1.5"/><text x="117.5" y="2380.995" fill="#000" font-family="sans-serif" font-size="14" lengthAdjust="spacingAndGlyphs" textLength="195">Quantum Chemistry Advanced</text><rect width="202" height="36.297" x="186" y="2577" fill="green" filter="url(#fi064kp08o3d0)" style="stroke:#000;stroke-width:1.5"/><text x="196" y="2599.995" fill="#000" font-family="sans-serif" font-size="14" lengthAdjust="spacingAndGlyphs" textLength="182">NP-problems as Ising model</text><rect width="207" height="36.297" x="423.5" y="2577" fill="gold" filter="url(#fi064kp08o3d0)" style="stroke:#000;stroke-width:1.5"/><text x="433.5" y="2599.995" fill="#000" font-family="sans-serif" font-size="14" lengthAdjust="spacingAndGlyphs" textLength="187">Jordan-Wigner transformation</text><rect width="61" height="36.297" x="89.5" y="2577" fill="gold" filter="url(#fi064kp08o3d0)" style="stroke:#000;stroke-width:1.5"/><text x="99.5" y="2599.995" fill="#000" font-family="sans-serif" font-size="14" lengthAdjust="spacingAndGlyphs" textLength="41">QUBO</text><rect width="153" height="36.297" x="330.5" y="2673" fill="green" filter="url(#fi064kp08o3d0)" style="stroke:#000;stroke-width:1.5"/><text x="340.5" y="2695.995" fill="#000" font-family="sans-serif" font-size="14" lengthAdjust="spacingAndGlyphs" textLength="133">Eigenvalues problem</text><rect width="46" height="36.297" x="708" y="2892" fill="green" filter="url(#fi064kp08o3d0)" style="stroke:#000;stroke-width:1.5"/><text x="718" y="2914.995" fill="#000" font-family="sans-serif" font-size="14" lengthAdjust="spacingAndGlyphs" textLength="26">VQE</text><rect width="103" height="36.297" x="789.5" y="2892" fill="gold" filter="url(#fi064kp08o3d0)" style="stroke:#000;stroke-width:1.5"/><text x="799.5" y="2914.995" fill="#000" font-family="sans-serif" font-size="14" lengthAdjust="spacingAndGlyphs" textLength="83">TSP with VQE</text><rect width="146" height="36.297" x="708" y="3056" fill="green" filter="url(#fi064kp08o3d0)" style="stroke:#000;stroke-width:1.5"/><text x="718" y="3078.995" fill="#000" font-family="sans-serif" font-size="14" lengthAdjust="spacingAndGlyphs" textLength="126">D-Wave &amp; Sampling</text><rect width="210" height="36.297" x="889" y="3056" fill="gold" filter="url(#fi064kp08o3d0)" style="stroke:#000;stroke-width:1.5"/><text x="899" y="3078.995" fill="#000" font-family="sans-serif" font-size="14" lengthAdjust="spacingAndGlyphs" textLength="190">Quantum &amp; Classic Annealers</text><rect width="60" height="36.297" x="708" y="3220" fill="green" filter="url(#fi064kp08o3d0)" style="stroke:#000;stroke-width:1.5"/><text x="718" y="3242.995" fill="#000" font-family="sans-serif" font-size="14" lengthAdjust="spacingAndGlyphs" textLength="40">QAOA</text><rect width="225" height="36.297" x="708.5" y="3384" fill="#F5F5F5" filter="url(#fi064kp08o3d0)" style="stroke:#000;stroke-width:1.5"/><text x="718.5" y="3406.995" fill="#000" font-family="sans-serif" font-size="14" lengthAdjust="spacingAndGlyphs" textLength="205">Academic &amp; Industrial Positions</text><path id="intro_python-to-intro_linalg_numpy" fill="none" d="M677.56,282 C687.4,282 697.24,282 707.09,282" style="stroke:#f5f5f5;stroke-width:1"/><polygon fill="#F5F5F5" points="712.23 282 703.23 278 707.23 282 703.23 286 712.23 282" style="stroke:#f5f5f5;stroke-width:1"/><path id="intro_linalg_numpy-to-intro_ml" fill="none" d="M833.53,282 C843.57,282 853.62,282 863.66,282" style="stroke:#f5f5f5;stroke-width:1"/><polygon fill="#F5F5F5" points="868.91 282 859.91 278 863.91 282 859.91 286 868.91 282" style="stroke:#f5f5f5;stroke-width:1"/><path id="sub_intro-to-sub_prereq" fill="none" d="M543,160.2391 C543,160.5102 543,160.7821 543,161.0547 C543,162.1452 543,163.248 543,164.3621 C543,166.5903 543,168.8634 543,171.1725 C543,180.4088 543,190.2203 543,200.0312 C543,204.9367 543,209.8421 543,214.6753 C543,215.8836 543,217.0874 543,218.2856 C543,218.8846 543,219.4823 543,220.0785 C543,220.3765 543,220.6742 543,220.9715" style="stroke:#f5f5f5;stroke-width:1;stroke-dasharray:7,7"/><polygon fill="#F5F5F5" points="543 220.971 547 211.971 543 215.971 539 211.971 543 220.971" style="stroke:#f5f5f5;stroke-width:1"/><path id="qubit-to-gates" fill="none" d="M343.18,510.24 C343.35,525.48 343.58,547.81 343.76,564.46" style="stroke:#f5f5f5;stroke-width:1"/><polygon fill="#F5F5F5" points="343.82 569.87 347.717 560.825 343.763 564.87 339.717 560.916 343.82 569.87" style="stroke:#f5f5f5;stroke-width:1"/><path id="qubit-to-mixed_states" fill="none" d="M371.05,492 C380.97,492 390.88,492 400.79,492" style="stroke:#f5f5f5;stroke-width:1"/><polygon fill="#F5F5F5" points="405.97 492 396.97 488 400.97 492 396.97 496 405.97 492" style="stroke:#f5f5f5;stroke-width:1"/><path id="sub_prereq-to-sub_qci" fill="none" d="M543,324.8587 C543,327.4426 543,330.1073 543,332.8413 C543,338.3092 543,344.0542 543,349.9838 C543,361.843 543,374.4406 543,387.0375 C543,399.6344 543,412.2305 543,424.0865 C543,425.5685 543,427.039 543,428.4964 C543,429.2251 543,429.9506 543,430.6726" style="stroke:#f5f5f5;stroke-width:2"/><polygon fill="#F5F5F5" points="543 430.673 547 421.673 543 425.673 539 421.673 543 430.673" style="stroke:#f5f5f5;stroke-width:2"/><path id="frameworks_overview-to-pennylane" fill="none" d="M334,749.24 C334,764.48 334,786.81 334,803.46" style="stroke:#f5f5f5;stroke-width:1"/><polygon fill="#F5F5F5" points="334 808.87 338 799.87 334 803.87 330 799.87 334 808.87" style="stroke:#f5f5f5;stroke-width:1"/><path id="cirq_tfq-backto-frameworks_overview" fill="none" d="M223.31,731 C233.33,731 243.36,731 253.39,731" style="stroke:#f5f5f5;stroke-width:1"/><polygon fill="#F5F5F5" points="218.06 731 227.06 735 223.06 731 227.06 727 218.06 731" style="stroke:#f5f5f5;stroke-width:1"/><path id="frameworks_overview-to-qiskit" fill="none" d="M414.71,731 C424.69,731 434.67,731 444.65,731" style="stroke:#f5f5f5;stroke-width:1"/><polygon fill="#F5F5F5" points="449.87 731 440.87 727 444.87 731 440.87 735 449.87 731" style="stroke:#f5f5f5;stroke-width:1"/><path id="sub_qci-to-sub_pqc" fill="none" d="M543,630.5763 C543,631.4771 543,632.3764 543,633.274 C543,640.4545 543,647.5246 543,654.3739 C543,657.7985 543,661.1679 543,664.4683 C543,666.1185 543,667.7514 543,669.3654 C543,669.5672 543,669.7686 543,669.9698" style="stroke:#f5f5f5;stroke-width:1;stroke-dasharray:7,7"/><polygon fill="#F5F5F5" points="543 669.97 547 660.97 543 664.97 539 660.97 543 669.97" style="stroke:#f5f5f5;stroke-width:1"/><path id="saimon-backto-quantum_algorithms_overview" fill="none" d="M137.37,1046 C147.18,1046 156.98,1046 166.78,1046" style="stroke:#f5f5f5;stroke-width:1"/><polygon fill="#F5F5F5" points="132.25 1046 141.25 1050 137.25 1046 141.25 1042 132.25 1046" style="stroke:#f5f5f5;stroke-width:1"/><path id="quantum_algorithms_overview-to-grover" fill="none" d="M385.31,1046 C395.29,1046 405.28,1046 415.26,1046" style="stroke:#f5f5f5;stroke-width:1"/><polygon fill="#F5F5F5" points="420.48 1046 411.48 1042 415.48 1046 411.48 1050 420.48 1046" style="stroke:#f5f5f5;stroke-width:1"/><path id="quantum_algorithms_overview-to-deutsch" fill="none" d="M174.76,1064.05 C170.61,1066.39 166.67,1069.03 163,1072 C132.77,1096.51 118.8,1141.62 112.88,1168.7" style="stroke:#f5f5f5;stroke-width:1"/><polygon fill="#F5F5F5" points="111.8 1173.87 117.541 1165.868 112.814 1168.974 109.707 1164.246 111.8 1173.87" style="stroke:#f5f5f5;stroke-width:1"/><path id="deutsch-to-quantum_teleportation" fill="none" d="M145.56,1192 C155.36,1192 165.16,1192 174.96,1192" style="stroke:#f5f5f5;stroke-width:1"/><polygon fill="#F5F5F5" points="180.09 1192 171.09 1188 175.09 1192 171.09 1196 180.09 1192" style="stroke:#f5f5f5;stroke-width:1"/><path id="quantum_teleportation-to-superdense_coding" fill="none" d="M349.61,1192 C359.43,1192 369.24,1192 379.06,1192" style="stroke:#f5f5f5;stroke-width:1"/><polygon fill="#F5F5F5" points="384.19 1192 375.19 1188 379.19 1192 375.19 1196 384.19 1192" style="stroke:#f5f5f5;stroke-width:1"/><path id="sub_pqc-to-sub_qalgo" fill="none" d="M546.0971,870.4926 C546.1238,871.6891 546.1506,872.887 546.1774,874.0861 C546.2847,878.8823 546.3923,883.6968 546.5,888.5112 C546.9306,907.7691 547.3612,927.0266 547.7658,945.1175 C547.9681,954.163 548.1639,962.9167 548.3499,971.233 C548.4429,975.3911 548.5334,979.4399 548.6211,983.3611 C548.6321,983.8512 548.643,984.3394 548.6539,984.8255" style="stroke:#f5f5f5;stroke-width:2"/><polygon fill="#F5F5F5" points="548.654 984.826 552.452 975.738 548.542 979.827 544.454 975.917 548.654 984.826" style="stroke:#f5f5f5;stroke-width:2"/><path id="hardware_overview-to-superconducting_qubits" fill="none" d="M833.38,1192 C843.19,1192 853.01,1192 862.82,1192" style="stroke:#f5f5f5;stroke-width:1"/><polygon fill="#F5F5F5" points="867.95 1192 858.95 1188 862.95 1192 858.95 1196 867.95 1192" style="stroke:#f5f5f5;stroke-width:1"/><path id="sub_qalgo-to-sub_nisq_hw" fill="none" d="M558.0708,1058.1678 C558.1823,1058.3222 558.2948,1058.478 558.4083,1058.6351 C558.6352,1058.9494 558.866,1059.269 559.1006,1059.5938 C559.5697,1060.2435 560.054,1060.9142 560.5527,1061.6049 C562.5477,1064.3675 564.7735,1067.4499 567.1841,1070.788 C576.8263,1084.1403 589.4237,1101.5844 602.02,1119.0263 C614.6163,1136.4681 627.2113,1153.9078 636.8484,1167.2514 C639.2577,1170.5873 641.4822,1173.6672 643.4755,1176.4271 C643.9739,1177.1171 644.4578,1177.7871 644.9265,1178.4361 C645.1609,1178.7606 645.3915,1179.0798 645.6182,1179.3937 C645.7315,1179.5506 645.8439,1179.7062 645.9553,1179.8604" style="stroke:#f5f5f5;stroke-width:2"/><polygon fill="#F5F5F5" points="645.955 1179.86 643.928 1170.222 643.028 1175.807 637.443 1174.907 645.955 1179.86" style="stroke:#f5f5f5;stroke-width:2"/><path id="qml_general-to-hhl" fill="none" d="M940.03,1368 C949.97,1368 959.91,1368 969.85,1368" style="stroke:#f5f5f5;stroke-width:1"/><polygon fill="#F5F5F5" points="975.04 1368 966.04 1364 970.04 1368 966.04 1372 975.04 1368" style="stroke:#f5f5f5;stroke-width:1"/><path id="qknn-backto-qml_general" fill="none" d="M806.28,1368 C816.1,1368 825.92,1368 835.75,1368" style="stroke:#f5f5f5;stroke-width:1"/><polygon fill="#F5F5F5" points="801.14 1368 810.14 1372 806.14 1368 810.14 1364 801.14 1368" style="stroke:#f5f5f5;stroke-width:1"/><path id="sub_nisq_hw-to-sub_qml" fill="none" d="M654,1234.6946 C654,1239.2686 654,1244.0743 654,1249.0346 C654,1258.9551 654,1269.4934 654,1280.0313 C654,1285.3002 654,1290.5689 654,1295.7603 C654,1298.3559 654,1300.9322 654,1303.4795 C654,1304.1163 654,1304.7513 654,1305.3844 C654,1305.7009 654,1306.0169 654,1306.3325 C654,1306.4902 654,1306.6478 654,1306.8053" style="stroke:#f5f5f5;stroke-width:1;stroke-dasharray:7,7"/><polygon fill="#F5F5F5" points="654 1306.805 658 1297.805 654 1301.805 650 1297.805 654 1306.805" style="stroke:#f5f5f5;stroke-width:1"/><path id="sub_qml-to-sub_vqc" fill="none" d="M654,1410.2391 C654,1410.5102 654,1410.7821 654,1411.0547 C654,1412.1452 654,1413.248 654,1414.3621 C654,1416.5903 654,1418.8634 654,1421.1725 C654,1430.4088 654,1440.2203 654,1450.0313 C654,1454.9367 654,1459.8421 654,1464.6753 C654,1465.8836 654,1467.0874 654,1468.2856 C654,1468.8846 654,1469.4823 654,1470.0785 C654,1470.3765 654,1470.6742 654,1470.9715" style="stroke:#f5f5f5;stroke-width:1;stroke-dasharray:7,7"/><polygon fill="#F5F5F5" points="654 1470.972 658 1461.972 654 1465.972 650 1461.972 654 1470.972" style="stroke:#f5f5f5;stroke-width:1"/><path id="gradients-to-high_gradients" fill="none" d="M771.24,1742 C781.03,1742 790.82,1742 800.61,1742" style="stroke:#f5f5f5;stroke-width:1"/><polygon fill="#F5F5F5" points="805.73 1742 796.73 1738 800.73 1742 796.73 1746 805.73 1742" style="stroke:#f5f5f5;stroke-width:1"/><path id="sub_vqc-to-sub_gradient" fill="none" d="M654,1574.8587 C654,1577.4426 654,1580.1073 654,1582.8413 C654,1588.3092 654,1594.0542 654,1599.9838 C654,1611.843 654,1624.4406 654,1637.0375 C654,1649.6344 654,1662.2305 654,1674.0865 C654,1675.5685 654,1677.039 654,1678.4964 C654,1679.2251 654,1679.9506 654,1680.6726" style="stroke:#f5f5f5;stroke-width:2"/><polygon fill="#F5F5F5" points="654 1680.673 658 1671.673 654 1675.673 650 1671.673 654 1680.673" style="stroke:#f5f5f5;stroke-width:2"/><path id="hybrid_svm-to-classical_svm" fill="none" d="M782.67,1906 C792.66,1906 802.65,1906 812.64,1906" style="stroke:#f5f5f5;stroke-width:1"/><polygon fill="#F5F5F5" points="817.86 1906 808.86 1902 812.86 1906 808.86 1910 817.86 1906" style="stroke:#f5f5f5;stroke-width:1"/><path id="sub_gradient-to-sub_qsvm" fill="none" d="M654,1784.2391 C654,1784.5102 654,1784.7821 654,1785.0547 C654,1786.1452 654,1787.248 654,1788.3621 C654,1790.5903 654,1792.8634 654,1795.1725 C654,1804.4088 654,1814.2203 654,1824.0313 C654,1828.9367 654,1833.8421 654,1838.6753 C654,1839.8836 654,1841.0874 654,1842.2856 C654,1842.8846 654,1843.4823 654,1844.0785 C654,1844.3765 654,1844.6742 654,1844.9715" style="stroke:#f5f5f5;stroke-width:1;stroke-dasharray:7,7"/><polygon fill="#F5F5F5" points="654 1844.972 658 1835.972 654 1839.972 650 1835.972 654 1844.972" style="stroke:#f5f5f5;stroke-width:1"/><path id="quantum_nn-to-quantum_cnn" fill="none" d="M740.64,2070 C750.6,2070 760.55,2070 770.5,2070" style="stroke:#f5f5f5;stroke-width:1"/><polygon fill="#F5F5F5" points="775.7 2070 766.7 2066 770.7 2070 766.7 2074 775.7 2070" style="stroke:#f5f5f5;stroke-width:1"/><path id="sub_qsvm-to-sub_qnn" fill="none" d="M654,1948.2391 C654,1948.5102 654,1948.7821 654,1949.0547 C654,1950.1452 654,1951.248 654,1952.3621 C654,1954.5903 654,1956.8634 654,1959.1725 C654,1968.4088 654,1978.2203 654,1988.0313 C654,1992.9367 654,1997.8421 654,2002.6753 C654,2003.8836 654,2005.0874 654,2006.2856 C654,2006.8846 654,2007.4823 654,2008.0785 C654,2008.3765 654,2008.6742 654,2008.9715" style="stroke:#f5f5f5;stroke-width:1;stroke-dasharray:7,7"/><polygon fill="#F5F5F5" points="654 2008.972 658 1999.972 654 2003.972 650 1999.972 654 2008.972" style="stroke:#f5f5f5;stroke-width:1"/><path id="ising-to-ising_advanced" fill="none" d="M567.88,2298.24 C565.1,2313.61 561.02,2336.2 558,2352.89" style="stroke:#f5f5f5;stroke-width:1"/><polygon fill="#F5F5F5" points="557.1 2357.87 562.633 2349.722 557.987 2352.949 554.76 2348.303 557.1 2357.87" style="stroke:#f5f5f5;stroke-width:1"/><path id="quantum_chemistry-to-quantum_chemistry_advanced" fill="none" d="M187.24,2298.24 C192.8,2313.61 200.96,2336.2 207,2352.89" style="stroke:#f5f5f5;stroke-width:1"/><polygon fill="#F5F5F5" points="208.8 2357.87 209.5 2348.046 207.099 2353.168 201.977 2350.767 208.8 2357.87" style="stroke:#f5f5f5;stroke-width:1"/><path id="sub_qnn-to-sub_problem_qml" fill="none" d="M654,2112.8587 C654,2115.4426 654,2118.1073 654,2120.8413 C654,2126.3092 654,2132.0542 654,2137.9838 C654,2149.843 654,2162.4406 654,2175.0375 C654,2187.6344 654,2200.2305 654,2212.0865 C654,2213.5685 654,2215.039 654,2216.4964 C654,2217.2251 654,2217.9506 654,2218.6726" style="stroke:#f5f5f5;stroke-width:2"/><polygon fill="#F5F5F5" points="654 2218.673 658 2209.673 654 2213.673 650 2209.673 654 2218.673" style="stroke:#f5f5f5;stroke-width:2"/><path id="np_problem_ising-to-eigenvalues_problem" fill="none" d="M308.73,2613.02 C328.99,2628.89 359.25,2652.59 380.83,2669.5" style="stroke:#f5f5f5;stroke-width:1"/><polygon fill="#F5F5F5" points="385.03 2672.79 380.423 2664.085 381.098 2669.702 375.481 2670.376 385.03 2672.79" style="stroke:#f5f5f5;stroke-width:1"/><path id="np_problem_ising-to-jordan_wigner" fill="none" d="M388.25,2595 C398.25,2595 408.25,2595 418.25,2595" style="stroke:#f5f5f5;stroke-width:1"/><polygon fill="#F5F5F5" points="423.48 2595 414.48 2591 418.48 2595 414.48 2599 423.48 2595" style="stroke:#f5f5f5;stroke-width:1"/><path id="qubo-backto-np_problem_ising" fill="none" d="M155.88,2595 C165.86,2595 175.83,2595 185.81,2595" style="stroke:#f5f5f5;stroke-width:1"/><polygon fill="#F5F5F5" points="150.66 2595 159.66 2599 155.66 2595 159.66 2591 150.66 2595" style="stroke:#f5f5f5;stroke-width:1"/><path id="jordan_wigner-to-eigenvalues_problem" fill="none" d="M505.27,2613.02 C485.01,2628.89 454.75,2652.59 433.17,2669.5" style="stroke:#f5f5f5;stroke-width:1"/><polygon fill="#F5F5F5" points="428.97 2672.79 438.519 2670.376 432.902 2669.702 433.577 2664.085 428.97 2672.79" style="stroke:#f5f5f5;stroke-width:1"/><path id="sub_problem_qml-to-sub_from_problen_to_qml" fill="none" d="M659.3128,2419.4926 C659.3587,2420.6891 659.4046,2421.887 659.4506,2423.0861 C659.6345,2427.8823 659.8191,2432.6968 660.0038,2437.5112 C660.7422,2456.7691 661.4805,2476.0266 662.1741,2494.1175 C662.5209,2503.163 662.8565,2511.9167 663.1753,2520.233 C663.3347,2524.3911 663.4899,2528.4399 663.6402,2532.3611 C663.659,2532.8512 663.6777,2533.3394 663.6964,2533.8255" style="stroke:#f5f5f5;stroke-width:2"/><polygon fill="#F5F5F5" points="663.696 2533.825 667.349 2524.679 663.505 2528.829 659.355 2524.985 663.696 2533.825" style="stroke:#f5f5f5;stroke-width:2"/><path id="vqe-to-tsp_with_vqe" fill="none" d="M754.2,2910 C764.21,2910 774.22,2910 784.23,2910" style="stroke:#f5f5f5;stroke-width:1"/><polygon fill="#F5F5F5" points="789.46 2910 780.46 2906 784.46 2910 780.46 2914 789.46 2910" style="stroke:#f5f5f5;stroke-width:1"/><path id="sub_from_problen_to_qml-to-sub_vqe" fill="none" d="M669.0971,2734.4926 C669.1238,2735.6891 669.1506,2736.887 669.1774,2738.0861 C669.2847,2742.8823 669.3923,2747.6968 669.5,2752.5112 C669.9306,2771.7691 670.3612,2791.0266 670.7658,2809.1175 C670.9681,2818.163 671.1639,2826.9167 671.3499,2835.233 C671.4429,2839.3911 671.5334,2843.4399 671.6211,2847.3611 C671.6321,2847.8512 671.643,2848.3394 671.6539,2848.8255" style="stroke:#f5f5f5;stroke-width:2"/><polygon fill="#F5F5F5" points="671.654 2848.825 675.452 2839.738 671.542 2843.827 667.454 2839.917 671.654 2848.825" style="stroke:#f5f5f5;stroke-width:2"/><path id="d_wave-to-q_c_annealers" fill="none" d="M854.22,3074 C864.06,3074 873.9,3074 883.74,3074" style="stroke:#f5f5f5;stroke-width:1"/><polygon fill="#F5F5F5" points="888.89 3074 879.89 3070 883.89 3074 879.89 3078 888.89 3074" style="stroke:#f5f5f5;stroke-width:1"/><path id="sub_vqe-to-sub_dwave" fill="none" d="M673,2952.2391 C673,2952.5102 673,2952.7821 673,2953.0547 C673,2954.1452 673,2955.248 673,2956.3621 C673,2958.5903 673,2960.8634 673,2963.1725 C673,2972.4088 673,2982.2203 673,2992.0313 C673,2996.9367 673,3001.8421 673,3006.6753 C673,3007.8836 673,3009.0874 673,3010.2856 C673,3010.8846 673,3011.4823 673,3012.0785 C673,3012.3765 673,3012.6742 673,3012.9715" style="stroke:#f5f5f5;stroke-width:1;stroke-dasharray:7,7"/><polygon fill="#F5F5F5" points="673 3012.972 677 3003.972 673 3007.972 669 3003.972 673 3012.972" style="stroke:#f5f5f5;stroke-width:1"/><path id="sub_dwave-to-sub_qaoa" fill="none" d="M673,3116.2391 C673,3116.5102 673,3116.7821 673,3117.0547 C673,3118.1452 673,3119.248 673,3120.3621 C673,3122.5903 673,3124.8634 673,3127.1725 C673,3136.4088 673,3146.2203 673,3156.0313 C673,3160.9367 673,3165.8421 673,3170.6753 C673,3171.8836 673,3173.0874 673,3174.2856 C673,3174.8846 673,3175.4823 673,3176.0785 C673,3176.3765 673,3176.6742 673,3176.9715" style="stroke:#f5f5f5;stroke-width:1;stroke-dasharray:7,7"/><polygon fill="#F5F5F5" points="673 3176.972 677 3167.972 673 3171.972 669 3167.972 673 3176.972" style="stroke:#f5f5f5;stroke-width:1"/><path id="sub_qaoa-to-sub_job_perpsp" fill="none" d="M673,3280.2391 C673,3280.5102 673,3280.7821 673,3281.0547 C673,3282.1452 673,3283.248 673,3284.3621 C673,3286.5903 673,3288.8634 673,3291.1725 C673,3300.4088 673,3310.2203 673,3320.0313 C673,3324.9367 673,3329.8421 673,3334.6753 C673,3335.8836 673,3337.0874 673,3338.2856 C673,3338.8846 673,3339.4823 673,3340.0785 C673,3340.3765 673,3340.6742 673,3340.9715" style="stroke:#f5f5f5;stroke-width:1;stroke-dasharray:7,7"/><polygon fill="#F5F5F5" points="673 3340.972 677 3331.972 673 3335.972 669 3331.972 673 3340.972" style="stroke:#f5f5f5;stroke-width:1"/></g></svg>