<svg xmlns="http://www.w3.org/2000/svg" xmlns:xlink="http://www.w3.org/1999/xlink" contentScriptType="application/ecmascript" contentStyleType="text/css" height="469px" preserveAspectRatio="none" style="width:411px;height:469px;" version="1.1" viewBox="0 0 411 469" width="411px" zoomAndPan="magnify"><defs><filter height="300%" id="f13ahyo6lnanj4" width="300%" x="-1" y="-1"><feGaussianBlur result="blurOut" stdDeviation="2.0"/><feColorMatrix in="blurOut" result="blurOut2" type="matrix" values="0 0 0 0 0 0 0 0 0 0 0 0 0 0 0 0 0 0 .4 0"/><feOffset dx="4.0" dy="4.0" in="blurOut2" result="blurOut3"/><feBlend in="SourceGraphic" in2="blurOut3" mode="normal"/></filter></defs><g><!--MD5=[fd07f395667725ff60a8c06b2c928ecc]
entity x--><rect fill="#40B464" filter="url(#f13ahyo6lnanj4)" height="42" style="stroke:#000000;stroke-width:1.5;" width="98" x="103" y="7"/><svg x="113" y="17"><defs/><g><text fill="#000000" font-family="monospace" font-size="14" lengthAdjust="spacingAndGlyphs" textLength="72" x="5" y="19.6699">\mathbf{X}</text></g></svg><!--MD5=[260675aef3bb4d2dde06dd13b065f662]
entity ux--><rect fill="#E0535C" filter="url(#f13ahyo6lnanj4)" height="42" style="stroke:#000000;stroke-width:1.5;" width="89" x="107.5" y="109"/><svg x="117.5" y="119"><defs/><g><text fill="#000000" font-family="monospace" font-size="14" lengthAdjust="spacingAndGlyphs" textLength="63" x="5" y="19.6699">\hat{U}(X)</text></g></svg><!--MD5=[02468e83512d8f57e49c35b3617987f0]
entity ut--><rect fill="#E0535C" filter="url(#f13ahyo6lnanj4)" height="42" style="stroke:#000000;stroke-width:1.5;" width="124" x="90" y="211"/><svg x="100" y="221"><defs/><g><text fill="#000000" font-family="monospace" font-size="14" lengthAdjust="spacingAndGlyphs" textLength="51" x="5" y="19.6699">\hat{U}(</text><text fill="#000000" font-family="monospace" font-size="14" lengthAdjust="spacingAndGlyphs" textLength="34" x="69" y="19.6699">heta)</text></g></svg><!--MD5=[6bd6c17ecb9f4114a8543dd98b8f528b]
entity measure--><rect fill="#E0535C" filter="url(#f13ahyo6lnanj4)" height="42" style="stroke:#000000;stroke-width:1.5;" width="76" x="7" y="313"/><svg x="17" y="323"><defs/><g><text fill="#000000" font-family="monospace" font-size="14" lengthAdjust="spacingAndGlyphs" textLength="50" x="5" y="19.6699">\hat{M}</text></g></svg><!--MD5=[280db5f2d6a4672f797e841d6fd2e6e2]
entity loss--><rect fill="#40B464" filter="url(#f13ahyo6lnanj4)" height="42" style="stroke:#000000;stroke-width:1.5;" width="100" x="20" y="415"/><svg x="30" y="425"><defs/><g><text fill="#000000" font-family="monospace" font-size="14" lengthAdjust="spacingAndGlyphs" textLength="74" x="5" y="19.6699">L(y, \hat{y})</text></g></svg><!--MD5=[ce9d9ff67360c80c02a9fb79eb8b4ea8]
entity grad--><rect fill="#40B464" filter="url(#f13ahyo6lnanj4)" height="42" style="stroke:#000000;stroke-width:1.5;" width="157" x="167.5" y="415"/><svg x="177.5" y="425"><defs/><g><text fill="#000000" font-family="monospace" font-size="14" lengthAdjust="spacingAndGlyphs" textLength="71" x="5" y="19.6699">\frac{dL}{d</text><text fill="#000000" font-family="monospace" font-size="14" lengthAdjust="spacingAndGlyphs" textLength="35" x="101" y="19.6699">heta}</text></g></svg><!--MD5=[323b1870c1c65040de3fa984460d54f2]
entity upd--><rect fill="#40B464" filter="url(#f13ahyo6lnanj4)" height="42" style="stroke:#000000;stroke-width:1.5;" width="281" x="118.5" y="313"/><svg x="128.5" y="323"><defs/><g><text fill="#000000" font-family="monospace" font-size="14" lengthAdjust="spacingAndGlyphs" textLength="83" x="37" y="19.6699">heta_{n+1} =</text><text fill="#000000" font-family="monospace" font-size="14" lengthAdjust="spacingAndGlyphs" textLength="127" x="133" y="19.6699">heta_n - \gamma G</text></g></svg><!--MD5=[ca0b2604fde24932a5830f6071ed48b2]
link x to ux--><path d="M152,49.24 C152,64.96 152,86.86 152,103.73 " fill="none" id="x-to-ux" style="stroke:#A80036;stroke-width:1.0;"/><polygon fill="#A80036" points="152,108.79,156,99.79,152,103.79,148,99.79,152,108.79" style="stroke:#A80036;stroke-width:1.0;"/><!--MD5=[3f06e76cfdeac927ed0ccefb058773aa]
link ux to ut--><path d="M152,151.24 C152,166.96 152,188.86 152,205.73 " fill="none" id="ux-to-ut" style="stroke:#A80036;stroke-width:1.0;"/><polygon fill="#A80036" points="152,210.79,156,201.79,152,205.79,148,201.79,152,210.79" style="stroke:#A80036;stroke-width:1.0;"/><!--MD5=[af30333df696b8f59b9d5662e5937f43]
link ut to measure--><path d="M130.35,253.24 C113.09,269.37 88.88,291.99 70.65,309.03 " fill="none" id="ut-to-measure" style="stroke:#A80036;stroke-width:1.0;"/><polygon fill="#A80036" points="66.62,312.79,75.9283,309.5721,70.2748,309.3779,70.469,303.7244,66.62,312.79" style="stroke:#A80036;stroke-width:1.0;"/><!--MD5=[3f81fbbfe182c3837f79ffbc55480d02]
link measure to loss--><path d="M50.06,355.24 C53.99,370.96 59.46,392.86 63.68,409.73 " fill="none" id="measure-to-loss" style="stroke:#A80036;stroke-width:1.0;"/><polygon fill="#A80036" points="64.95,414.79,66.641,405.0874,63.734,409.9401,58.8812,407.0331,64.95,414.79" style="stroke:#A80036;stroke-width:1.0;"/><!--MD5=[59fd6a19f472c9b828ce13381a25df0c]
link loss to grad--><path d="M120.19,436 C134.19,436 148.2,436 162.21,436 " fill="none" id="loss-to-grad" style="stroke:#A80036;stroke-width:1.0;"/><polygon fill="#A80036" points="167.37,436,158.37,432,162.37,436,158.37,440,167.37,436" style="stroke:#A80036;stroke-width:1.0;"/><!--MD5=[76c397329b9ca85ddb54e97a9c1267bd]
reverse link upd to grad--><path d="M255.71,360.3 C253.52,377.18 250.67,399.08 248.63,414.79 " fill="none" id="upd-backto-grad" style="stroke:#A80036;stroke-width:1.0;"/><polygon fill="#A80036" points="256.37,355.24,251.2458,363.6508,255.727,360.1985,259.1793,364.6797,256.37,355.24" style="stroke:#A80036;stroke-width:1.0;"/><!--MD5=[0ac90c68c130ff42d7def28180fb1f28]
reverse link ut to upd--><path d="M177.68,257 C195.92,274.05 220.13,296.67 237.38,312.79 " fill="none" id="ut-backto-upd" style="stroke:#A80036;stroke-width:1.0;"/><polygon fill="#A80036" points="173.65,253.24,177.499,262.3056,177.3048,256.6521,182.9583,256.4579,173.65,253.24" style="stroke:#A80036;stroke-width:1.0;"/><!--MD5=[92d7241e5bd38d2a9487dad65d88cd5e]
@startuml
rectangle "<latex>\mathbf{X}</latex>" as x #40B464
rectangle "<latex>\hat{U}(X)</latex>" as ux #E0535C
rectangle "<latex>\hat{U}(\theta)</latex>" as ut #E0535C
rectangle "<latex>\hat{M}</latex>" as measure #E0535C
rectangle "<latex>L(y, \hat{y})</latex>" as loss #40B464
rectangle "<latex>\frac{dL}{d\theta}</latex>" as grad #40B464
rectangle "<latex>\theta_{n+1} = \theta_n - \gamma G</latex>" as upd #40B464

x - -> ux
ux - -> ut
ut - -> measure
measure - -> loss
loss -> grad
upd <- - grad
ut <- upd
@enduml

PlantUML version 1.2020.23(Sun Dec 13 19:14:58 GMT 2020)
(GPL source distribution)
Java Runtime: OpenJDK Runtime Environment
JVM: OpenJDK 64-Bit Server VM
Default Encoding: UTF-8
Language: en
Country: US
--></g></svg>
