<svg xmlns="http://www.w3.org/2000/svg" xmlns:xlink="http://www.w3.org/1999/xlink" contentScriptType="application/ecmascript" contentStyleType="text/css" height="253px" preserveAspectRatio="none" style="width:371px;height:253px;" version="1.1" viewBox="0 0 371 253" width="371px" zoomAndPan="magnify"><defs><filter height="300%" id="f1aj1ghm2slmg7" width="300%" x="-1" y="-1"><feGaussianBlur result="blurOut" stdDeviation="2.0"/><feColorMatrix in="blurOut" result="blurOut2" type="matrix" values="0 0 0 0 0 0 0 0 0 0 0 0 0 0 0 0 0 0 .4 0"/><feOffset dx="4.0" dy="4.0" in="blurOut2" result="blurOut3"/><feBlend in="SourceGraphic" in2="blurOut3" mode="normal"/></filter></defs><g><!--MD5=[51c034416ef3849be90743176de816fb]
entity init--><rect fill="#40B464" filter="url(#f1aj1ghm2slmg7)" height="36.2969" style="stroke:#000000;stroke-width:1.5;" width="100" x="7" y="7"/><text fill="#000000" font-family="sans-serif" font-size="14" lengthAdjust="spacingAndGlyphs" textLength="80" x="17" y="29.9951">Initialization</text><!--MD5=[ee117214927cfe2ddfd3b7c754a30e63]
entity unit1--><rect fill="#FFC864" filter="url(#f1aj1ghm2slmg7)" height="42" style="stroke:#000000;stroke-width:1.5;" width="87" x="13.5" y="103"/><svg x="23.5" y="113"><defs/><g><text fill="#000000" font-family="monospace" font-size="14" lengthAdjust="spacingAndGlyphs" textLength="61" x="5" y="19.6699">\hat{U}_1</text></g></svg><!--MD5=[6d3a9ed62240d9fdb2163754b87e04be]
entity unit2--><rect fill="#FFC864" filter="url(#f1aj1ghm2slmg7)" height="42" style="stroke:#000000;stroke-width:1.5;" width="87" x="135.5" y="103"/><svg x="145.5" y="113"><defs/><g><text fill="#000000" font-family="monospace" font-size="14" lengthAdjust="spacingAndGlyphs" textLength="61" x="5" y="19.6699">\hat{U}_2</text></g></svg><!--MD5=[802292f6d8bb92cdb826827d00e9a7b3]
entity unit3--><rect fill="#FFC864" filter="url(#f1aj1ghm2slmg7)" height="42" style="stroke:#000000;stroke-width:1.5;" width="87" x="257.5" y="103"/><svg x="267.5" y="113"><defs/><g><text fill="#000000" font-family="monospace" font-size="14" lengthAdjust="spacingAndGlyphs" textLength="61" x="5" y="19.6699">\hat{U}_3</text></g></svg><!--MD5=[6bd6c17ecb9f4114a8543dd98b8f528b]
entity measure--><rect fill="#648CB4" filter="url(#f1aj1ghm2slmg7)" height="36.2969" style="stroke:#000000;stroke-width:1.5;" width="116" x="243" y="205"/><text fill="#000000" font-family="sans-serif" font-size="14" lengthAdjust="spacingAndGlyphs" textLength="96" x="253" y="227.9951">Measurements</text><!--MD5=[2714490acb61e9f0871752ff533a8773]
link init to unit1--><path d="M57,43.34 C57,58.45 57,80.56 57,97.66 " fill="none" id="init-to-unit1" style="stroke:#A80036;stroke-width:1.0;"/><polygon fill="#A80036" points="57,102.79,61,93.79,57,97.79,53,93.79,57,102.79" style="stroke:#A80036;stroke-width:1.0;"/><!--MD5=[28f28acf9ca463a3f7877e0c0b3a91c5]
link unit1 to unit2--><path d="M100.84,124 C110.64,124 120.43,124 130.22,124 " fill="none" id="unit1-to-unit2" style="stroke:#A80036;stroke-width:1.0;"/><polygon fill="#A80036" points="135.34,124,126.34,120,130.34,124,126.34,128,135.34,124" style="stroke:#A80036;stroke-width:1.0;"/><!--MD5=[1bfbe3380fe6dcc69f0fdc6a5a3996f1]
link unit2 to unit3--><path d="M222.84,124 C232.64,124 242.43,124 252.22,124 " fill="none" id="unit2-to-unit3" style="stroke:#A80036;stroke-width:1.0;"/><polygon fill="#A80036" points="257.34,124,248.34,120,252.34,124,248.34,128,257.34,124" style="stroke:#A80036;stroke-width:1.0;"/><!--MD5=[fe48d4cd1109dd72a48e70c94018775f]
link unit3 to measure--><path d="M301,145.1 C301,160.95 301,183.06 301,199.5 " fill="none" id="unit3-to-measure" style="stroke:#A80036;stroke-width:1.0;"/><polygon fill="#A80036" points="301,204.85,305,195.85,301,199.85,297,195.85,301,204.85" style="stroke:#A80036;stroke-width:1.0;"/><!--MD5=[132d5bb015d8fccb0c9808877722ed0f]
@startuml
rectangle "Initialization" as init #40B464
rectangle "<latex>\hat{U}_1</latex>" as unit1 #FFC864
rectangle "<latex>\hat{U}_2</latex>" as unit2 #FFC864
rectangle "<latex>\hat{U}_3</latex>" as unit3 #FFC864
rectangle "Measurements" as measure #648CB4

init - -> unit1
unit1 -> unit2
unit2 -> unit3
unit3 - -> measure
@enduml

PlantUML version 1.2020.23(Sun Dec 13 19:14:58 GMT 2020)
(GPL source distribution)
Java Runtime: OpenJDK Runtime Environment
JVM: OpenJDK 64-Bit Server VM
Default Encoding: UTF-8
Language: en
Country: US
--></g></svg>
