<?xml version="1.0" encoding="UTF-8" standalone="no"?>
<!-- Created with matplotlib (https://matplotlib.org/) -->

<svg
   height="134.73256pt"
   version="1.1"
   viewBox="0 0 398.12987 134.73256"
   width="398.12985pt"
   id="svg72"
   sodipodi:docname="LC.svg"
   inkscape:version="1.1 (c68e22c387, 2021-05-23)"
   xmlns:inkscape="http://www.inkscape.org/namespaces/inkscape"
   xmlns:sodipodi="http://sodipodi.sourceforge.net/DTD/sodipodi-0.dtd"
   xmlns="http://www.w3.org/2000/svg"
   xmlns:svg="http://www.w3.org/2000/svg"
   xmlns:rdf="http://www.w3.org/1999/02/22-rdf-syntax-ns#"
   xmlns:cc="http://creativecommons.org/ns#"
   xmlns:dc="http://purl.org/dc/elements/1.1/">
  <metadata
     id="metadata76">
    <rdf:RDF>
      <cc:Work
         rdf:about="">
        <dc:format>image/svg+xml</dc:format>
        <dc:type
           rdf:resource="http://purl.org/dc/dcmitype/StillImage" />
      </cc:Work>
    </rdf:RDF>
  </metadata>
  <sodipodi:namedview
     pagecolor="#ffffff"
     bordercolor="#666666"
     borderopacity="1"
     objecttolerance="10"
     gridtolerance="10"
     guidetolerance="10"
     inkscape:pageopacity="0"
     inkscape:pageshadow="2"
     inkscape:window-width="1920"
     inkscape:window-height="1017"
     id="namedview74"
     showgrid="true"
     inkscape:zoom="1.3186453"
     inkscape:cx="199.8263"
     inkscape:cy="120.19912"
     inkscape:window-x="-8"
     inkscape:window-y="-8"
     inkscape:window-maximized="1"
     inkscape:current-layer="svg72"
     inkscape:pagecheckerboard="0"
     inkscape:document-units="pt"
     fit-margin-top="0"
     fit-margin-left="0"
     fit-margin-right="0"
     fit-margin-bottom="0">
    <inkscape:grid
       type="xygrid"
       id="grid1496"
       originx="-3.3306693e-16"
       originy="21.001562" />
  </sodipodi:namedview>
  <defs
     id="defs4">
    <style
       type="text/css"
       id="style2">
*{stroke-linecap:butt;stroke-linejoin:round;}
  </style>
    <clipPath
       id="p207291c147">
      <rect
         height="124.9641"
         width="287.14499"
         x="15.9525"
         y="16.124399"
         id="rect134" />
    </clipPath>
    <clipPath
       id="clipPath108">
      <rect
         height="124.9641"
         width="287.14499"
         x="15.9525"
         y="16.124399"
         id="rect106" />
    </clipPath>
    <clipPath
       id="clipPath112">
      <rect
         height="124.9641"
         width="287.14499"
         x="15.9525"
         y="16.124399"
         id="rect110" />
    </clipPath>
    <clipPath
       id="clipPath116">
      <rect
         height="124.9641"
         width="287.14499"
         x="15.9525"
         y="16.124399"
         id="rect114" />
    </clipPath>
    <clipPath
       id="clipPath120">
      <rect
         height="124.9641"
         width="287.14499"
         x="15.9525"
         y="16.124399"
         id="rect118" />
    </clipPath>
    <clipPath
       id="clipPath124">
      <rect
         height="124.9641"
         width="287.14499"
         x="15.9525"
         y="16.124399"
         id="rect122" />
    </clipPath>
    <clipPath
       id="clipPath128">
      <rect
         height="124.9641"
         width="287.14499"
         x="15.9525"
         y="16.124399"
         id="rect126" />
    </clipPath>
    <clipPath
       id="clipPath132">
      <rect
         height="124.9641"
         width="287.14499"
         x="15.9525"
         y="16.124399"
         id="rect130" />
    </clipPath>
    <clipPath
       id="clipPath137">
      <rect
         height="124.9641"
         width="287.14499"
         x="15.9525"
         y="16.124399"
         id="rect135" />
    </clipPath>
    <clipPath
       id="clipPath141">
      <rect
         height="124.9641"
         width="287.14499"
         x="15.9525"
         y="16.124399"
         id="rect139" />
    </clipPath>
    <clipPath
       id="clipPath145">
      <rect
         height="124.9641"
         width="287.14499"
         x="15.9525"
         y="16.124399"
         id="rect143" />
    </clipPath>
    <clipPath
       id="clipPath149">
      <rect
         height="124.9641"
         width="287.14499"
         x="15.9525"
         y="16.124399"
         id="rect147" />
    </clipPath>
    <clipPath
       id="clipPath153">
      <rect
         height="124.9641"
         width="287.14499"
         x="15.9525"
         y="16.124399"
         id="rect151" />
    </clipPath>
    <clipPath
       id="clipPath157">
      <rect
         height="124.9641"
         width="287.14499"
         x="15.9525"
         y="16.124399"
         id="rect155" />
    </clipPath>
    <clipPath
       id="clipPath161">
      <rect
         height="124.9641"
         width="287.14499"
         x="15.9525"
         y="16.124399"
         id="rect159" />
    </clipPath>
    <clipPath
       id="clipPath165">
      <rect
         height="124.9641"
         width="287.14499"
         x="15.9525"
         y="16.124399"
         id="rect163" />
    </clipPath>
    <clipPath
       id="clipPath169">
      <rect
         height="124.9641"
         width="287.14499"
         x="15.9525"
         y="16.124399"
         id="rect167" />
    </clipPath>
    <clipPath
       id="clipPath173">
      <rect
         height="124.9641"
         width="287.14499"
         x="15.9525"
         y="16.124399"
         id="rect171" />
    </clipPath>
    <clipPath
       id="clipPath177">
      <rect
         height="124.9641"
         width="287.14499"
         x="15.9525"
         y="16.124399"
         id="rect175" />
    </clipPath>
    <clipPath
       id="clipPath181">
      <rect
         height="124.9641"
         width="287.14499"
         x="15.9525"
         y="16.124399"
         id="rect179" />
    </clipPath>
    <clipPath
       id="clipPath185">
      <rect
         height="124.9641"
         width="287.14499"
         x="15.9525"
         y="16.124399"
         id="rect183" />
    </clipPath>
    <clipPath
       id="clipPath189">
      <rect
         height="124.9641"
         width="287.14499"
         x="15.9525"
         y="16.124399"
         id="rect187" />
    </clipPath>
    <clipPath
       id="clipPath193">
      <rect
         height="124.9641"
         width="287.14499"
         x="15.9525"
         y="16.124399"
         id="rect191" />
    </clipPath>
    <clipPath
       id="clipPath197">
      <rect
         height="124.9641"
         width="287.14499"
         x="15.9525"
         y="16.124399"
         id="rect195" />
    </clipPath>
    <clipPath
       id="clipPath201">
      <rect
         height="124.9641"
         width="287.14499"
         x="15.9525"
         y="16.124399"
         id="rect199" />
    </clipPath>
    <clipPath
       id="clipPath205">
      <rect
         height="124.9641"
         width="287.14499"
         x="15.9525"
         y="16.124399"
         id="rect203" />
    </clipPath>
    <clipPath
       id="clipPath209">
      <rect
         height="124.9641"
         width="287.14499"
         x="15.9525"
         y="16.124399"
         id="rect207" />
    </clipPath>
    <clipPath
       id="clipPath213">
      <rect
         height="124.9641"
         width="287.14499"
         x="15.9525"
         y="16.124399"
         id="rect211" />
    </clipPath>
    <clipPath
       id="clipPath217">
      <rect
         height="124.9641"
         width="287.14499"
         x="15.9525"
         y="16.124399"
         id="rect215" />
    </clipPath>
  </defs>
  <g
     style="stroke-linecap:butt;stroke-linejoin:round"
     id="patch_1"
     transform="translate(4.3296875,23.4118)">
    <path
       inkscape:connector-curvature="0"
       id="path6"
       style="fill:#ffffff;stroke-linecap:butt;stroke-linejoin:round"
       d="M 0,94.914 H 81.45 V 0 H 0 Z" />
  </g>
  <g
     id="patch_2"
     style="stroke-linecap:butt;stroke-linejoin:round"
     transform="translate(4.3296875,23.4118)">
    <path
       clip-path="url(#pbd2aeab712)"
       d="m 14.4,45.363825 c -1.073715,0 -2.104551,0.367683 -2.863782,1.021465 C 10.776986,47.039072 10.35,47.926737 10.35,48.851325 c 0,0.924588 0.426986,1.812253 1.186218,2.466035 0.759231,0.653782 1.790067,1.021465 2.863782,1.021465"
       style="fill:none;stroke:#000000;stroke-width:2;stroke-linecap:butt;stroke-linejoin:miter"
       id="path9"
       inkscape:connector-curvature="0" />
  </g>
  <g
     id="patch_3"
     style="stroke-linecap:butt;stroke-linejoin:round"
     transform="translate(4.3296875,23.4118)">
    <path
       clip-path="url(#pbd2aeab712)"
       d="m 14.4,38.388825 c -1.073715,0 -2.104551,0.367683 -2.863782,1.021465 C 10.776986,40.064072 10.35,40.951737 10.35,41.876325 c 0,0.924588 0.426986,1.812253 1.186218,2.466035 0.759231,0.653782 1.790067,1.021465 2.863782,1.021465"
       style="fill:none;stroke:#000000;stroke-width:2;stroke-linecap:butt;stroke-linejoin:miter"
       id="path12"
       inkscape:connector-curvature="0" />
  </g>
  <g
     id="patch_4"
     style="stroke-linecap:butt;stroke-linejoin:round"
     transform="translate(4.3296875,23.4118)">
    <path
       clip-path="url(#pbd2aeab712)"
       d="m 14.4,31.413825 c -1.073715,0 -2.104551,0.367683 -2.863782,1.021465 C 10.776986,33.089072 10.35,33.976737 10.35,34.901325 c 0,0.924588 0.426986,1.812253 1.186218,2.466035 0.759231,0.653782 1.790067,1.021465 2.863782,1.021465"
       style="fill:none;stroke:#000000;stroke-width:2;stroke-linecap:butt;stroke-linejoin:miter"
       id="path15"
       inkscape:connector-curvature="0" />
  </g>
  <g
     id="patch_5"
     style="stroke-linecap:butt;stroke-linejoin:round"
     transform="translate(4.3296875,23.4118)">
    <path
       clip-path="url(#pbd2aeab712)"
       d="m 14.4,24.438825 c -1.073715,0 -2.104551,0.367683 -2.863782,1.021465 C 10.776986,26.114072 10.35,27.001737 10.35,27.926325 c 0,0.924588 0.426986,1.812253 1.186218,2.466035 0.759231,0.653782 1.790067,1.021465 2.863782,1.021465"
       style="fill:none;stroke:#000000;stroke-width:2;stroke-linecap:butt;stroke-linejoin:miter"
       id="path18"
       inkscape:connector-curvature="0" />
  </g>
  <g
     id="patch_6"
     style="stroke-linecap:butt;stroke-linejoin:round"
     transform="translate(4.3296875,23.4118)">
    <path
       clip-path="url(#pbd2aeab712)"
       d="m 38.7,19.556325 c 0.644444,0 1.262579,-0.220479 1.718269,-0.612879 0.455691,-0.3924 0.711731,-0.924684 0.711731,-1.479621 0,-0.554937 -0.25604,-1.087221 -0.711731,-1.479621 -0.45569,-0.3924 -1.073825,-0.612879 -1.718269,-0.612879 -0.644444,0 -1.262579,0.220479 -1.718269,0.612879 -0.455691,0.3924 -0.711731,0.924684 -0.711731,1.479621 0,0.554937 0.25604,1.087221 0.711731,1.479621 0.45569,0.3924 1.073825,0.612879 1.718269,0.612879 z"
       style="stroke:#000000;stroke-width:2;stroke-linecap:butt;stroke-linejoin:miter"
       id="path21"
       inkscape:connector-curvature="0" />
  </g>
  <g
     id="line2d_1"
     style="stroke-linecap:butt;stroke-linejoin:round"
     transform="translate(4.3296875,23.4118)">
    <path
       clip-path="url(#pbd2aeab712)"
       d="m 38.7,59.313825 v 11.16 h -8.1 16.2 m -13.77,3.348 h 11.34 m -7.29,3.348 h 3.24"
       style="fill:none;stroke:#000000;stroke-width:2;stroke-linecap:round;stroke-linejoin:round"
       id="path24"
       inkscape:connector-curvature="0" />
  </g>
  <g
     id="line2d_2"
     style="stroke-linecap:butt;stroke-linejoin:round"
     transform="translate(4.3296875,23.4118)">
    <path
       clip-path="url(#pbd2aeab712)"
       d="M 38.7,59.313825 H 26.55 14.4"
       style="fill:none;stroke:#000000;stroke-width:2;stroke-linecap:round;stroke-linejoin:round"
       id="path27"
       inkscape:connector-curvature="0" />
  </g>
  <g
     id="line2d_3"
     style="stroke-linecap:butt;stroke-linejoin:round"
     transform="translate(4.3296875,23.4118)">
    <path
       clip-path="url(#pbd2aeab712)"
       d="m 14.4,59.313825 v -6.975 m 0,-27.9 v -6.975"
       style="fill:none;stroke:#000000;stroke-width:2;stroke-linecap:round;stroke-linejoin:round"
       id="path30"
       inkscape:connector-curvature="0" />
  </g>
  <g
     id="line2d_4"
     style="stroke-linecap:butt;stroke-linejoin:round"
     transform="translate(4.3296875,23.4118)">
    <path
       clip-path="url(#pbd2aeab712)"
       d="M 14.4,17.463825 H 26.55 38.7"
       style="fill:none;stroke:#000000;stroke-width:2;stroke-linecap:round;stroke-linejoin:round"
       id="path33"
       inkscape:connector-curvature="0" />
  </g>
  <g
     id="line2d_5"
     style="stroke-linecap:butt;stroke-linejoin:round"
     transform="translate(4.3296875,23.4118)">
    <path
       clip-path="url(#pbd2aeab712)"
       d="M 38.7,17.463825"
       style="fill:none;stroke:#000000;stroke-width:2;stroke-linecap:round;stroke-linejoin:round"
       id="path36"
       inkscape:connector-curvature="0" />
  </g>
  <g
     id="line2d_6"
     style="stroke-linecap:butt;stroke-linejoin:round"
     transform="translate(4.3296875,23.4118)">
    <path
       clip-path="url(#pbd2aeab712)"
       d="M 38.7,17.463825 H 50.85 63"
       style="fill:none;stroke:#000000;stroke-width:2;stroke-linecap:round;stroke-linejoin:round"
       id="path39"
       inkscape:connector-curvature="0" />
  </g>
  <g
     id="line2d_7"
     style="stroke-linecap:butt;stroke-linejoin:round"
     transform="translate(4.3296875,23.4118)">
    <path
       clip-path="url(#pbd2aeab712)"
       d="m 63,17.463825 v 18.414 m 8.1,0 H 54.9 m 16.2,5.022 H 54.9 m 8.1,0 v 18.414"
       style="fill:none;stroke:#000000;stroke-width:2;stroke-linecap:round;stroke-linejoin:round"
       id="path42"
       inkscape:connector-curvature="0" />
  </g>
  <g
     id="line2d_8"
     style="stroke-linecap:butt;stroke-linejoin:round"
     transform="translate(4.3296875,23.4118)">
    <path
       clip-path="url(#pbd2aeab712)"
       d="M 63,59.313825 H 50.85 38.7"
       style="fill:none;stroke:#000000;stroke-width:2;stroke-linecap:round;stroke-linejoin:round"
       id="path45"
       inkscape:connector-curvature="0" />
  </g>
  <g
     id="text_1"
     style="stroke-linecap:butt;stroke-linejoin:round"
     transform="translate(4.3296875,23.4118)">
    <!-- $L$ -->
    <g
       transform="translate(-5.9,42.803825)"
       id="g52"
       style="stroke-linecap:butt;stroke-linejoin:round">
      <text
         id="text50"
         style="stroke-linecap:butt;stroke-linejoin:round"><tspan
           style="font-size:16px;font-family:'DejaVu Sans';stroke-linecap:butt;stroke-linejoin:round"
           x="0"
           y="-0.328125"
           id="tspan48">L</tspan></text>
    </g>
  </g>
  <g
     id="text_2"
     style="stroke-linecap:butt;stroke-linejoin:round"
     transform="translate(4.3296875,23.4118)">
    <text
       style="font-style:normal;font-weight:normal;font-size:16px;font-family:'DejaVu Sans';text-anchor:middle;stroke-linecap:butt;stroke-linejoin:round"
       x="38.700001"
       y="9.2538252"
       id="text55">1</text>
  </g>
  <g
     id="text_3"
     style="stroke-linecap:butt;stroke-linejoin:round"
     transform="translate(4.3296875,23.4118)">
    <!-- $C$ -->
    <g
       transform="translate(40.46,42.803825)"
       id="g62"
       style="stroke-linecap:butt;stroke-linejoin:round">
      <text
         id="text60"
         style="stroke-linecap:butt;stroke-linejoin:round"><tspan
           style="font-size:16px;font-family:'DejaVu Sans';stroke-linecap:butt;stroke-linejoin:round"
           x="0"
           y="-0.125"
           id="tspan58">C</tspan></text>
    </g>
  </g>
  <defs
     id="defs70">
    <clipPath
       id="pbd2aeab712">
      <rect
         height="73.55835"
         width="73.305"
         x="4.0725002"
         y="9.4913998"
         id="rect67" />
    </clipPath>
  </defs>
  <g
     id="axes_1"
     transform="translate(89.25,0.86061287)">
    <g
       id="patch_2-3">
      <path
         clip-path="url(#p207291c147)"
         d="m 112.95,33.40845 c 0.64444,0 1.26258,-0.220479 1.71827,-0.612879 0.45569,-0.3924 0.71173,-0.924684 0.71173,-1.479621 0,-0.554937 -0.25604,-1.087221 -0.71173,-1.479621 -0.45569,-0.3924 -1.07383,-0.612879 -1.71827,-0.612879 -0.64444,0 -1.26258,0.220479 -1.71827,0.612879 -0.45569,0.3924 -0.71173,0.924684 -0.71173,1.479621 0,0.554937 0.25604,1.087221 0.71173,1.479621 0.45569,0.3924 1.07383,0.612879 1.71827,0.612879 z"
         style="stroke:#000000;stroke-width:2;stroke-linejoin:miter"
         id="path9-7" />
    </g>
    <g
       id="patch_3-5">
      <path
         clip-path="url(#p207291c147)"
         d="m 112.95,80.14095 c -1.07372,0 -2.10455,0.367683 -2.86378,1.021465 -0.75923,0.653782 -1.18622,1.541447 -1.18622,2.466035 0,0.924588 0.42699,1.812253 1.18622,2.466035 0.75923,0.653782 1.79006,1.021465 2.86378,1.021465"
         style="fill:none;stroke:#000000;stroke-width:2;stroke-linejoin:miter"
         id="path12-2" />
    </g>
    <g
       id="patch_4-4">
      <path
         clip-path="url(#p207291c147)"
         d="m 112.95,73.16595 c -1.07372,0 -2.10455,0.367683 -2.86378,1.021465 -0.75923,0.653782 -1.18622,1.541447 -1.18622,2.466035 0,0.924588 0.42699,1.812253 1.18622,2.466035 0.75923,0.653782 1.79006,1.021465 2.86378,1.021465"
         style="fill:none;stroke:#000000;stroke-width:2;stroke-linejoin:miter"
         id="path15-6" />
    </g>
    <g
       id="patch_5-0">
      <path
         clip-path="url(#p207291c147)"
         d="m 112.95,66.19095 c -1.07372,0 -2.10455,0.367683 -2.86378,1.021465 -0.75923,0.653782 -1.18622,1.541447 -1.18622,2.466035 0,0.924588 0.42699,1.812253 1.18622,2.466035 0.75923,0.653782 1.79006,1.021465 2.86378,1.021465"
         style="fill:none;stroke:#000000;stroke-width:2;stroke-linejoin:miter"
         id="path18-5" />
    </g>
    <g
       id="patch_6-3">
      <path
         clip-path="url(#p207291c147)"
         d="m 112.95,59.21595 c -1.07372,0 -2.10455,0.367683 -2.86378,1.021465 -0.75923,0.653782 -1.18622,1.541447 -1.18622,2.466035 0,0.924588 0.42699,1.812253 1.18622,2.466035 0.75923,0.653782 1.79006,1.021465 2.86378,1.021465"
         style="fill:none;stroke:#000000;stroke-width:2;stroke-linejoin:miter"
         id="path21-4" />
    </g>
    <g
       id="patch_7">
      <path
         clip-path="url(#p207291c147)"
         d="m 210.15,33.40845 c 0.64444,0 1.26258,-0.220479 1.71827,-0.612879 0.45569,-0.3924 0.71173,-0.924684 0.71173,-1.479621 0,-0.554937 -0.25604,-1.087221 -0.71173,-1.479621 -0.45569,-0.3924 -1.07383,-0.612879 -1.71827,-0.612879 -0.64444,0 -1.26258,0.220479 -1.71827,0.612879 -0.45569,0.3924 -0.71173,0.924684 -0.71173,1.479621 0,0.554937 0.25604,1.087221 0.71173,1.479621 0.45569,0.3924 1.07383,0.612879 1.71827,0.612879 z"
         style="stroke:#000000;stroke-width:2;stroke-linejoin:miter"
         id="path24-3" />
    </g>
    <g
       id="patch_8">
      <path
         clip-path="url(#p207291c147)"
         d="m 283.05,80.14095 c -1.07371,0 -2.10455,0.367683 -2.86378,1.021465 C 279.42699,81.816197 279,82.703862 279,83.62845 c 0,0.924588 0.42699,1.812253 1.18622,2.466035 0.75923,0.653782 1.79007,1.021465 2.86378,1.021465"
         style="fill:none;stroke:#000000;stroke-width:2;stroke-linejoin:miter"
         id="path27-2" />
    </g>
    <g
       id="patch_9">
      <path
         clip-path="url(#p207291c147)"
         d="m 283.05,73.16595 c -1.07371,0 -2.10455,0.367683 -2.86378,1.021465 C 279.42699,74.841197 279,75.728862 279,76.65345 c 0,0.924588 0.42699,1.812253 1.18622,2.466035 0.75923,0.653782 1.79007,1.021465 2.86378,1.021465"
         style="fill:none;stroke:#000000;stroke-width:2;stroke-linejoin:miter"
         id="path30-6" />
    </g>
    <g
       id="patch_10">
      <path
         clip-path="url(#p207291c147)"
         d="m 283.05,66.19095 c -1.07371,0 -2.10455,0.367683 -2.86378,1.021465 C 279.42699,67.866197 279,68.753862 279,69.67845 c 0,0.924588 0.42699,1.812253 1.18622,2.466035 0.75923,0.653782 1.79007,1.021465 2.86378,1.021465"
         style="fill:none;stroke:#000000;stroke-width:2;stroke-linejoin:miter"
         id="path33-3" />
    </g>
    <g
       id="patch_11">
      <path
         clip-path="url(#p207291c147)"
         d="m 283.05,59.21595 c -1.07371,0 -2.10455,0.367683 -2.86378,1.021465 C 279.42699,60.891197 279,61.778862 279,62.70345 c 0,0.924588 0.42699,1.812253 1.18622,2.466035 0.75923,0.653782 1.79007,1.021465 2.86378,1.021465"
         style="fill:none;stroke:#000000;stroke-width:2;stroke-linejoin:miter"
         id="path36-8" />
    </g>
    <g
       id="patch_12">
      <path
         clip-path="url(#p207291c147)"
         d="m 27.09,45.26595 3.24,8.37 h -3.2238 v 47.43 h -0.0324 v -47.43 H 23.85 Z"
         style="stroke:#000000;stroke-width:2;stroke-linejoin:miter"
         id="path39-9" />
    </g>
    <g
       id="patch_13">
      <path
         clip-path="url(#p207291c147)"
         d="m 99.99,45.26595 3.24,8.37 h -3.2238 v 47.43 h -0.0324 v -47.43 H 96.75 Z"
         style="stroke:#000000;stroke-width:2;stroke-linejoin:miter"
         id="path42-4" />
    </g>
    <g
       id="patch_14">
      <path
         clip-path="url(#p207291c147)"
         d="m 193.95,20.15595 -9.72,2.79 V 20.1699 H 129.15 V 20.142 h 55.08 v -2.77605 z"
         style="stroke:#000000;stroke-width:2;stroke-linejoin:miter"
         id="path45-5" />
    </g>
    <g
       id="patch_15">
      <path
         clip-path="url(#p207291c147)"
         d="m 197.19,45.26595 3.24,8.37 h -3.2238 v 47.43 h -0.0324 v -47.43 H 193.95 Z"
         style="stroke:#000000;stroke-width:2;stroke-linejoin:miter"
         id="path48" />
    </g>
    <g
       id="patch_16">
      <path
         clip-path="url(#p207291c147)"
         d="m 270.09,45.26595 3.24,8.37 h -3.2238 v 47.43 h -0.0324 v -47.43 H 266.85 Z"
         style="stroke:#000000;stroke-width:2;stroke-linejoin:miter"
         id="path51" />
    </g>
    <g
       id="line2d_1-2">
      <path
         clip-path="url(#p207291c147)"
         d="m 40.05,115.01595 v -39.339 m -8.1,0 h 16.2 m -16.2,-5.022 h 16.2 m -8.1,0 v -39.339"
         style="fill:none;stroke:#000000;stroke-width:2;stroke-linecap:round"
         id="path54" />
    </g>
    <g
       id="line2d_2-5">
      <path
         clip-path="url(#p207291c147)"
         d="M 40.05,31.31595 H 76.5 112.95"
         style="fill:none;stroke:#000000;stroke-width:2;stroke-linecap:round"
         id="path57" />
    </g>
    <g
       id="line2d_3-5">
      <path
         clip-path="url(#p207291c147)"
         d="M 112.95,31.31595"
         style="fill:none;stroke:#000000;stroke-width:2;stroke-linecap:round"
         id="path60" />
    </g>
    <g
       id="line2d_4-5">
      <path
         clip-path="url(#p207291c147)"
         d="M 40.05,115.01595 H 76.5 112.95"
         style="fill:none;stroke:#000000;stroke-width:2;stroke-linecap:round"
         id="path63" />
    </g>
    <g
       id="line2d_5-9">
      <path
         clip-path="url(#p207291c147)"
         d="m 112.95,115.01595 v -27.9 m 0,-27.9 v -27.9"
         style="fill:none;stroke:#000000;stroke-width:2;stroke-linecap:round"
         id="path66" />
    </g>
    <g
       id="line2d_6-1">
      <path
         clip-path="url(#p207291c147)"
         d="m 112.95,31.31595 h 45.684 m 0,-6.975 v 13.95 m 5.832,-13.95 v 13.95 m 0,-6.975 h 45.684"
         style="fill:none;stroke:#000000;stroke-width:2;stroke-linecap:round"
         id="path69" />
    </g>
    <g
       id="line2d_7-7">
      <path
         clip-path="url(#p207291c147)"
         d="M 210.15,31.31595"
         style="fill:none;stroke:#000000;stroke-width:2;stroke-linecap:round"
         id="path72" />
    </g>
    <g
       id="line2d_8-8">
      <path
         clip-path="url(#p207291c147)"
         d="m 112.95,115.01595 h 24.3 24.3"
         style="fill:none;stroke:#000000;stroke-width:2;stroke-linecap:round"
         id="path75" />
    </g>
    <g
       id="line2d_9">
      <path
         clip-path="url(#p207291c147)"
         d="m 161.55,115.01595 v 11.16 h -8.1 16.2 m -13.77,3.348 h 11.34 m -7.29,3.348 h 3.24"
         style="fill:none;stroke:#000000;stroke-width:2;stroke-linecap:round"
         id="path78" />
    </g>
    <g
       id="line2d_10">
      <path
         clip-path="url(#p207291c147)"
         d="m 161.55,115.01595 h 24.3 24.3"
         style="fill:none;stroke:#000000;stroke-width:2;stroke-linecap:round"
         id="path81" />
    </g>
    <g
       id="line2d_11">
      <path
         clip-path="url(#p207291c147)"
         d="m 210.15,115.01595 v -39.339 m -8.1,0 h 16.2 m -16.2,-5.022 h 16.2 m -8.1,0 v -39.339"
         style="fill:none;stroke:#000000;stroke-width:2;stroke-linecap:round"
         id="path84" />
    </g>
    <g
       id="line2d_12">
      <path
         clip-path="url(#p207291c147)"
         d="m 210.15,115.01595 h 36.45 36.45"
         style="fill:none;stroke:#000000;stroke-width:2;stroke-linecap:round"
         id="path87" />
    </g>
    <g
       id="line2d_13">
      <path
         clip-path="url(#p207291c147)"
         d="m 283.05,115.01595 v -27.9 m 0,-27.9 v -27.9"
         style="fill:none;stroke:#000000;stroke-width:2;stroke-linecap:round"
         id="path90" />
    </g>
    <g
       id="line2d_14">
      <path
         clip-path="url(#p207291c147)"
         d="m 210.15,31.31595 h 36.45 36.45"
         style="fill:none;stroke:#000000;stroke-width:2;stroke-linecap:round"
         id="path93" />
    </g>
    <g
       id="text_1-4">
      <text
         style="font-style:normal;font-weight:normal;font-size:16px;font-family:'DejaVu Sans';text-anchor:start"
         x="51.389999"
         y="77.358452"
         id="text96">C<tspan
   style="font-size:65%;baseline-shift:sub"
   id="tspan6635">1</tspan></text>
    </g>
    <g
       id="text_2-7">
      <text
         style="font-style:normal;font-weight:normal;font-size:16px;font-family:'DejaVu Sans';text-anchor:end"
         x="20.610001"
         y="77.358452"
         id="text99">I<tspan
   style="font-size:65%;baseline-shift:sub"
   id="tspan3079">C1</tspan></text>
    </g>
    <g
       id="text_3-3">
      <text
         style="font-style:normal;font-weight:normal;font-size:16px;font-family:'DejaVu Sans';text-anchor:middle"
         x="112.95"
         y="23.105949"
         id="text102">1</text>
    </g>
    <g
       id="text_4">
      <text
         style="font-style:normal;font-weight:normal;font-size:16px;font-family:'DejaVu Sans';text-anchor:start"
         x="124.29"
         y="77.358452"
         id="text105">L<tspan
   style="font-size:65%;baseline-shift:sub"
   id="tspan8874">1</tspan></text>
    </g>
    <g
       id="text_5">
      <text
         style="font-style:normal;font-weight:normal;font-size:16px;font-family:'DejaVu Sans';text-anchor:end"
         x="93.510002"
         y="77.358452"
         id="text108">I<tspan
   style="font-size:65%;baseline-shift:sub"
   id="tspan5123">L1</tspan></text>
    </g>
    <g
       id="text_6">
      <text
         style="font-style:normal;font-weight:normal;font-size:16px;font-family:'DejaVu Sans';text-anchor:middle"
         x="161.55"
         y="53.238449"
         id="text111">C<tspan
   style="font-size:65%;baseline-shift:sub"
   id="tspan10639">C</tspan></text>
    </g>
    <g
       id="text_7">
      <text
         style="font-style:normal;font-weight:normal;font-size:16px;font-family:'DejaVu Sans';text-anchor:middle"
         x="161.55"
         y="10.80345"
         id="text114">I<tspan
   style="font-size:65%;baseline-shift:sub"
   id="tspan12159">CC</tspan></text>
    </g>
    <g
       id="text_8">
      <text
         style="font-style:normal;font-weight:normal;font-size:16px;font-family:'DejaVu Sans';text-anchor:middle"
         x="210.14999"
         y="23.105949"
         id="text117">2</text>
    </g>
    <g
       id="text_9">
      <text
         style="font-style:normal;font-weight:normal;font-size:16px;font-family:'DejaVu Sans';text-anchor:start"
         x="221.49001"
         y="77.358452"
         id="text120">C<tspan
   style="font-size:65%;baseline-shift:sub"
   id="tspan14677">2</tspan></text>
    </g>
    <g
       id="text_10">
      <text
         style="font-style:normal;font-weight:normal;font-size:16px;font-family:'DejaVu Sans';text-anchor:end"
         x="190.71001"
         y="77.358452"
         id="text123">I<tspan
   style="font-size:65%;baseline-shift:sub"
   id="tspan7738">C2</tspan></text>
    </g>
    <g
       id="text_11">
      <text
         style="font-style:normal;font-weight:normal;font-size:16px;font-family:'DejaVu Sans';text-anchor:start"
         x="294.39001"
         y="77.358452"
         id="text126">L<tspan
   style="font-size:65%;baseline-shift:sub"
   id="tspan13561">2</tspan></text>
    </g>
    <g
       id="text_12">
      <text
         style="font-style:normal;font-weight:normal;font-size:16px;font-family:'DejaVu Sans';text-anchor:end"
         x="263.60999"
         y="77.358452"
         id="text129">I<tspan
   style="font-size:65%;baseline-shift:sub"
   id="tspan14095">L2</tspan></text>
    </g>
  </g>
</svg>
