<?xml version="1.0" encoding="UTF-8" standalone="no"?>
<!-- Created with Inkscape (http://www.inkscape.org/) -->
<svg
   xmlns:dc="http://purl.org/dc/elements/1.1/"
   xmlns:cc="http://web.resource.org/cc/"
   xmlns:rdf="http://www.w3.org/1999/02/22-rdf-syntax-ns#"
   xmlns:svg="http://www.w3.org/2000/svg"
   xmlns="http://www.w3.org/2000/svg"
   xmlns:sodipodi="http://inkscape.sourceforge.net/DTD/sodipodi-0.dtd"
   xmlns:inkscape="http://www.inkscape.org/namespaces/inkscape"
   width="256pt"
   height="252pt"
   id="svg1350"
   sodipodi:version="0.32"
   inkscape:version="0.43"
   version="1.0"
   sodipodi:docbase="F:\New Downloads"
   sodipodi:docname="blochsphere.svg">
  <defs
     id="defs1352" />
  <sodipodi:namedview
     id="base"
     pagecolor="#ffffff"
     bordercolor="#666666"
     borderopacity="1.0"
     inkscape:pageopacity="0.0"
     inkscape:pageshadow="2"
     inkscape:zoom="0.98994949"
     inkscape:cx="177.94748"
     inkscape:cy="163.27768"
     inkscape:document-units="mm"
     inkscape:current-layer="layer1"
     inkscape:window-width="1280"
     inkscape:window-height="977"
     inkscape:window-x="-4"
     inkscape:window-y="-4" />
  <metadata
     id="metadata1355">
    <rdf:RDF>
      <cc:Work
         rdf:about="">
        <dc:format>image/svg+xml</dc:format>
        <dc:type
           rdf:resource="http://purl.org/dc/dcmitype/StillImage" />
      </cc:Work>
    </rdf:RDF>
  </metadata>
  <g
     inkscape:label="Layer 1"
     inkscape:groupmode="layer"
     id="layer1">
    <path
       style="fill:#00a0a0;fill-opacity:1;stroke:none;stroke-width:3.5;stroke-miterlimit:4;stroke-dashoffset:0;stroke-opacity:1"
       d="M 301.90274,266.52582 C 301.90274,286.33405 247.70788,302.39179 180.85514,302.39179 C 114.0024,302.39179 59.80755,286.33405 59.80755,266.52582 C 59.80755,246.71759 114.0024,230.65985 180.85514,230.65985 C 247.70788,230.65985 301.90274,246.71759 301.90274,266.52582 z "
       id="path22428" />
    <path
       style="fill:#00c8c8;fill-opacity:1;stroke:#000080;stroke-width:1.56913626;stroke-miterlimit:0;stroke-opacity:1"
       d="M 296.89628,156.98889 C 296.90261,238.03116 231.20664,303.73227 150.16437,303.73227 C 69.122095,303.73227 3.4261218,238.03116 3.4324566,156.98889 C 3.4261218,75.946617 69.122095,10.245515 150.16437,10.245515 C 231.20664,10.245515 296.90261,75.946617 296.89628,156.98889 L 296.89628,156.98889 z "
       id="path1354" />
    <path
       style="fill:#007e80;fill-opacity:0;stroke:#000080;stroke-width:1.56913626;stroke-miterlimit:0;stroke-dasharray:9.41481711, 9.41481711;stroke-dashoffset:0;stroke-opacity:1"
       d="M 296.89629,156.53602 C 296.9063,174.04571 231.20925,188.24127 150.16437,188.24127 C 69.119494,188.24127 3.4224455,174.04571 3.4324611,156.53602 C 3.4224455,139.02633 69.119494,124.83076 150.16437,124.83076 C 231.20925,124.83076 296.9063,139.02633 296.89629,156.53602 L 296.89629,156.53602 z "
       id="path3102" />
    <path
       style="fill:none;fill-opacity:0.75;fill-rule:evenodd;stroke:#000080;stroke-width:1.56913626;stroke-linecap:butt;stroke-linejoin:miter;stroke-miterlimit:4;stroke-opacity:1"
       d="M 295.99053,157.44177 L 150.16437,156.98889 L 185.9416,53.28023"
       id="path5742" />
    <path
       style="fill:none;fill-opacity:0.75;fill-rule:evenodd;stroke:#000080;stroke-width:1.56913626;stroke-linecap:butt;stroke-linejoin:miter;stroke-miterlimit:4;stroke-opacity:1"
       d="M 102.61236,185.97297 L 150.16437,156.53601 L 150.16437,10.709867"
       id="path5744" />
    <path
       style="fill:none;fill-opacity:0.75;fill-rule:evenodd;stroke:#000080;stroke-width:1.56913626;stroke-linecap:butt;stroke-linejoin:miter;stroke-miterlimit:4;stroke-dasharray:9.41481711, 9.41481711;stroke-dashoffset:0;stroke-opacity:1"
       d="M 150.16437,156.98889 L 186.84734,187.33161 L 186.84734,53.28023"
       id="path6619" />
    <path
       style="fill:#00a0a0;fill-opacity:1;stroke:#000080;stroke-width:1.56913626;stroke-miterlimit:4;stroke-dashoffset:0;stroke-opacity:1"
       d="M 195.45199,53.280234 C 195.45356,58.28368 191.39792,62.34061 186.39447,62.34061 C 181.39103,62.34061 177.33537,58.28368 177.33694,53.280234 C 177.33537,48.276788 181.39103,44.21986 186.39447,44.21986 C 191.39792,44.21986 195.45356,48.276788 195.45199,53.280234 L 195.45199,53.280234 z "
       id="path7495" />
    <path
       style="fill:#00a0a0;fill-opacity:1;stroke:#000080;stroke-width:1.56913626;stroke-miterlimit:4;stroke-dashoffset:0;stroke-opacity:1"
       d="M 158.63111,302.71199 C 158.63111,307.48718 154.76005,311.35825 149.98485,311.35825 C 145.20966,311.35825 141.33859,307.48718 141.33859,302.71199 C 141.33859,297.93679 145.20966,294.06573 149.98485,294.06573 C 154.76005,294.06573 158.63111,297.93679 158.63111,302.71199 L 158.63111,302.71199 z "
       id="path13610" />
    <path
       style="fill:#000080;fill-opacity:1;fill-rule:evenodd;stroke:none;stroke-width:1px;stroke-linecap:butt;stroke-linejoin:miter;stroke-opacity:1"
       d="M 297.93199,157.12131 L 277.31284,151.37498 L 277.31284,162.86763 L 297.93199,157.12131 z "
       id="path13612" />
    <path
       style="fill:#000080;fill-opacity:1;fill-rule:evenodd;stroke:none;stroke-width:1px;stroke-linecap:butt;stroke-linejoin:miter;stroke-opacity:1"
       d="M 150.16437,18.062463 L 144.41804,38.681616 L 155.91069,38.681616 L 150.16437,18.062463 z "
       id="path14497" />
    <path
       style="fill:#00a0a0;fill-opacity:1;stroke:#000080;stroke-width:1.56913626;stroke-miterlimit:4;stroke-dashoffset:0;stroke-opacity:1"
       d="M 158.63112,10.66056 C 158.63112,15.435756 154.76006,19.306819 149.98486,19.306819 C 145.20967,19.306819 141.3386,15.435756 141.3386,10.66056 C 141.3386,5.8853606 145.20967,2.0142973 149.98486,2.0142973 C 154.76006,2.0142973 158.63112,5.8853606 158.63112,10.66056 L 158.63112,10.66056 z "
       id="path12735" />
    <path
       style="fill:#000080;fill-opacity:1;fill-rule:evenodd;stroke:none;stroke-width:1px;stroke-linecap:butt;stroke-linejoin:miter;stroke-opacity:1"
       d="M 100.5794,187.22503 L 121.2013,181.48861 L 115.26194,171.64966 L 100.5794,187.22503 z "
       id="path14499" />
    <path
       style="font-size:48px;font-style:italic;font-variant:normal;font-weight:normal;font-stretch:normal;text-align:start;line-height:125%;writing-mode:lr-tb;text-anchor:start;fill:#0000ff;fill-opacity:1;font-family:Georgia"
       d="M 99.803038,195.406 C 99.796022,195.81231 99.645408,196.11353 99.351207,196.30966 C 99.063992,196.49881 98.748764,196.59338 98.405526,196.59337 C 98.195365,196.59338 97.957191,196.55835 97.691008,196.48829 C 97.424806,196.41125 97.214654,196.34819 97.060552,196.29915 C 96.745317,196.57937 96.377551,196.99266 95.957252,197.53905 C 95.543945,198.08545 95.151662,198.68789 94.780399,199.34636 C 94.948516,200.01185 95.099127,200.58276 95.232229,201.0591 C 95.365315,201.52845 95.508922,202.00128 95.663039,202.47763 C 95.796128,202.90495 96.002779,203.24819 96.282991,203.50737 C 96.570187,203.75955 96.94496,203.88565 97.407304,203.88565 C 97.575417,203.88565 97.806582,203.86463 98.100804,203.82261 C 98.395008,203.77357 98.622671,203.72103 98.783803,203.66499 L 98.594664,204.35849 C 97.922165,204.63869 97.414297,204.82082 97.071061,204.90489 C 96.734808,204.98895 96.370544,205.03097 95.978269,205.03097 C 95.487904,205.03097 95.081611,204.9189 94.759386,204.69474 C 94.444151,204.47058 94.188467,204.00824 93.99233,203.30773 C 93.852223,202.79636 93.736641,202.36905 93.645577,202.0258 C 93.561513,201.67555 93.477452,201.3288 93.393395,200.98555 C 93.071157,201.4689 92.804964,201.8822 92.594817,202.22545 C 92.38466,202.56169 92.034406,203.02752 91.544056,203.62295 C 91.116744,204.14133 90.72446,204.5091 90.367204,204.72626 C 90.009943,204.94341 89.645684,205.05199 89.274412,205.05199 C 88.945176,205.05199 88.675477,204.95743 88.46533,204.76828 C 88.248171,204.57215 88.13959,204.30245 88.13959,203.9592 C 88.13959,203.62996 88.265682,203.34976 88.517865,203.11859 C 88.770047,202.88042 89.1168,202.76134 89.558121,202.76134 C 89.782279,202.76134 89.999439,202.80336 90.209591,202.88743 C 90.426746,202.96448 90.650908,203.03804 90.882077,203.10809 C 91.148266,202.8559 91.49852,202.46362 91.932839,201.93123 C 92.374156,201.39885 92.783951,200.79291 93.16223,200.11342 C 93.029126,199.61607 92.882023,199.06967 92.720908,198.47423 C 92.566792,197.8788 92.419688,197.35692 92.279591,196.90859 C 92.097455,196.3412 91.887303,195.97693 91.649135,195.8158 C 91.410957,195.6547 91.106236,195.57414 90.734974,195.57413 C 90.531825,195.57414 90.314664,195.60216 90.083499,195.65819 C 89.859337,195.71424 89.649185,195.77029 89.453043,195.82631 L 89.652687,195.13281 C 90.192075,194.90866 90.675427,194.72653 91.102739,194.58642 C 91.537049,194.43932 91.831262,194.36576 91.985377,194.36575 C 92.468722,194.36576 92.868012,194.48485 93.183243,194.72302 C 93.505472,194.95419 93.761156,195.40601 93.950299,196.0785 C 94.16745,196.85606 94.293541,197.33241 94.328574,197.50753 C 94.3706,197.67566 94.447653,198.0119 94.559743,198.51626 C 94.895978,197.99789 95.169178,197.56008 95.379334,197.20281 C 95.589477,196.84556 95.932728,196.37272 96.409082,195.78428 C 96.85039,195.2309 97.256685,194.85262 97.627965,194.64946 C 98.006225,194.43932 98.366988,194.33424 98.710247,194.33423 C 99.018459,194.33424 99.27765,194.43581 99.487809,194.63896 C 99.704954,194.8351 99.810034,195.0908 99.803038,195.406"
       id="flowRoot16247" />
    <path
       style="font-size:48px;font-style:italic;font-variant:normal;font-weight:normal;font-stretch:normal;text-align:start;line-height:125%;writing-mode:lr-tb;text-anchor:start;fill:#0000ff;fill-opacity:1;font-family:Georgia"
       d="M 171.83969,31.375243 L 171.70309,31.995191 L 164.20066,40.832091 C 164.45284,40.839097 164.72604,40.8461 165.02025,40.853107 C 165.31446,40.853107 165.6367,40.853107 165.98696,40.853107 C 166.26015,40.853107 166.54736,40.849601 166.84857,40.842599 C 167.14979,40.828589 167.53157,40.811078 167.99391,40.79006 C 168.2741,40.77605 168.50177,40.677979 168.6769,40.495847 C 168.85903,40.313715 169.00964,40.11057 169.12873,39.886408 C 169.2338,39.704276 169.38441,39.420572 169.58055,39.03529 C 169.77669,38.643007 169.93781,38.29976 170.06391,38.005543 L 170.69436,38.005543 L 169.97984,41.66219 L 161.74188,41.66219 L 161.91,40.92666 L 169.29686,32.205343 L 167.92036,32.205343 C 167.31091,32.205352 166.83106,32.21586 166.48081,32.236869 C 166.13056,32.257891 165.80132,32.327942 165.4931,32.447021 C 165.26193,32.531091 165.02375,32.772765 164.77858,33.172043 C 164.53339,33.571343 164.30224,34.033673 164.08508,34.559047 L 163.44411,34.559047 L 164.06406,31.375243 L 171.83969,31.375243"
       id="flowRoot17144" />
    <path
       style="font-size:48px;font-style:italic;font-variant:normal;font-weight:normal;font-stretch:normal;text-align:start;line-height:125%;writing-mode:lr-tb;text-anchor:start;fill:#0000ff;fill-opacity:1;font-family:Georgia"
       d="M 314.81672,160.73791 L 314.75368,160.73791 C 314.1092,161.2773 313.49626,161.7011 312.91484,162.00933 C 312.33342,162.31755 311.67144,162.47166 310.9289,162.47166 C 310.25641,162.47166 309.72403,162.27902 309.33175,161.89374 C 308.93947,161.50146 308.74332,160.99009 308.74332,160.35963 C 308.74332,160.19151 308.75733,159.99187 308.78536,159.7607 C 308.81337,159.52953 308.87992,159.18628 308.98499,158.73095 L 309.80459,155.45257 C 309.88165,155.13736 309.94119,154.86416 309.98322,154.63299 C 310.02524,154.39482 310.04626,154.16715 310.04626,153.94999 C 310.04626,153.55771 309.97972,153.29853 309.84663,153.17243 C 309.72053,153.03934 309.45784,152.97279 309.05855,152.97278 C 308.90444,152.97279 308.70829,153.00081 308.47013,153.05684 C 308.23195,153.11289 308.04632,153.15843 307.91322,153.19344 L 308.07084,152.52096 C 308.61723,152.27579 309.09708,152.09016 309.51038,151.96405 C 309.93068,151.83797 310.26692,151.77493 310.51911,151.77492 C 311.07951,151.77493 311.49281,151.90102 311.75901,152.15319 C 312.0322,152.40539 312.16879,152.78366 312.1688,153.28801 C 312.16879,153.41412 312.15479,153.58574 312.12678,153.80288 C 312.09874,154.02005 312.05672,154.2372 312.00068,154.45436 L 311.04449,158.28963 C 310.97443,158.58386 310.91489,158.86055 310.86586,159.11974 C 310.81682,159.37192 310.7923,159.56456 310.7923,159.69766 C 310.7923,160.167 310.90438,160.53826 311.12855,160.81146 C 311.35972,161.08466 311.69595,161.22126 312.13728,161.22126 C 312.64865,161.22126 313.146,161.09516 313.62936,160.84298 C 314.11971,160.5908 314.57854,160.24405 315.00586,159.80272 L 316.75012,151.94304 L 318.56793,151.81694 L 318.69403,151.97456 L 316.88672,160.20202 C 316.62051,161.40689 316.28077,162.43664 315.86749,163.29126 C 315.45417,164.14587 314.97082,164.83587 314.41743,165.36125 C 313.836,165.91465 313.20904,166.31394 312.53657,166.55912 C 311.86408,166.80429 311.09702,166.92688 310.2354,166.92688 C 309.63996,166.92688 309.16713,166.88485 308.81688,166.80079 C 308.46662,166.71673 308.18992,166.60115 307.98677,166.45404 C 307.78362,166.31394 307.64703,166.15632 307.57698,165.9812 C 307.50693,165.80606 307.4719,165.63095 307.4719,165.45582 C 307.4719,165.1546 307.56297,164.88841 307.7451,164.65725 C 307.92723,164.42607 308.18992,164.31049 308.53317,164.31049 C 308.79235,164.31049 309.01301,164.38404 309.19515,164.53115 C 309.37728,164.67825 309.52438,164.83937 309.63647,165.0145 C 309.76255,165.20364 309.87814,165.41729 309.98322,165.65547 C 310.08829,165.89363 310.17235,166.08278 310.2354,166.22288 L 310.48759,166.22288 C 310.88687,166.22288 311.30718,166.1248 311.7485,165.92866 C 312.19682,165.73252 312.60662,165.4278 312.97789,165.0145 C 313.37717,164.56618 313.73443,163.98826 314.04966,163.28075 C 314.37189,162.57323 314.62758,161.72562 314.81672,160.73791"
       id="flowRoot18025" />
    <path
       style="font-size:48px;font-style:normal;font-variant:normal;font-weight:normal;font-stretch:normal;text-align:start;line-height:125%;writing-mode:lr-tb;text-anchor:start;fill:#000080;fill-opacity:1;font-family:Georgia"
       d="M 154.52316,169.4347 C 154.98547,169.85502 155.36025,170.3804 155.64747,171.01084 C 155.94166,171.63431 156.08878,172.40836 156.08879,173.33303 C 156.08878,174.25069 155.92065,175.07379 155.58443,175.80231 C 155.25518,176.52384 154.81735,177.12277 154.27097,177.59912 C 153.73157,178.08247 153.11162,178.45723 152.41113,178.72343 C 151.71761,178.98962 151.0136,179.13323 150.29909,179.15424 L 150.29909,183.5149 L 148.34468,183.5149 L 148.34468,179.15424 C 146.58641,179.07718 145.18539,178.5448 144.14163,177.55708 C 143.10489,176.56236 142.58651,175.28044 142.58651,173.7113 C 142.58651,172.31729 142.95427,171.15095 143.68981,170.21226 C 144.43235,169.27359 145.54616,168.62562 147.03123,168.26836 L 147.18884,169.11947 C 146.39727,169.39969 145.79833,169.91106 145.39204,170.65358 C 144.98575,171.38913 144.78259,172.40836 144.7826,173.7113 C 144.78259,175.08429 145.10133,176.19459 145.73879,177.04221 C 146.38325,177.88281 147.25188,178.31714 148.34468,178.34515 L 148.34468,170.72714 C 148.34468,170.27882 148.43573,169.89355 148.61788,169.5713 C 148.80001,169.24908 149.04168,168.98289 149.3429,168.77272 C 149.60909,168.5836 149.94183,168.4435 150.34113,168.35242 C 150.7404,168.25436 151.10817,168.20533 151.44443,168.20532 C 151.9768,168.20533 152.51268,168.3104 153.05209,168.52055 C 153.59848,168.7237 154.08883,169.02841 154.52316,169.4347 M 153.8927,173.24897 C 153.89269,171.93201 153.66502,170.89877 153.2097,170.14922 C 152.76137,169.39268 152.19395,169.0144 151.50747,169.0144 C 151.17121,169.0144 150.88401,169.12649 150.64584,169.35064 C 150.41467,169.56781 150.29908,169.86552 150.29909,170.24378 L 150.29909,178.34515 C 151.48995,178.2611 152.38659,177.75673 152.98905,176.83206 C 153.59146,175.90739 153.89269,174.71303 153.8927,173.24897"
       id="flowRoot18906" />
    <path
       style="font-size:48px;font-style:normal;font-variant:normal;font-weight:normal;font-stretch:normal;text-align:start;line-height:100%;writing-mode:lr-tb;text-anchor:start;fill:#000080;fill-opacity:1;font-family:Georgia"
       d="M 216.7422,44.10477 C 216.74219,45.015437 216.64062,45.89457 216.43749,46.742181 C 216.24133,47.58279 215.9226,48.335837 215.4813,49.001316 C 215.03295,49.673804 214.46204,50.23421 213.76855,50.682534 C 213.08204,51.123851 212.23793,51.400552 211.23621,51.512634 L 211.23621,55.883799 L 209.28181,55.883799 L 209.28181,51.512634 C 208.81246,51.491616 208.27658,51.425071 207.67414,51.312991 C 207.0717,51.207912 206.49027,50.99776 205.92987,50.682534 C 205.32744,50.33228 204.8581,49.880454 204.52185,49.327051 C 204.18561,48.76665 204.01749,48.076646 204.01749,47.257051 L 204.04902,43.043505 C 204.04902,42.665236 203.97546,42.381531 203.82835,42.192388 C 203.68825,41.996255 203.41506,41.898184 203.00876,41.898175 C 202.84064,41.898184 202.6515,41.912194 202.44135,41.940205 C 202.23821,41.961227 202.08759,41.975238 201.98952,41.982236 L 201.98952,41.309749 C 202.2417,41.20468 202.58496,41.082094 203.01927,40.941984 C 203.46058,40.794884 203.82835,40.721331 204.12257,40.721322 C 204.80205,40.721331 205.29591,40.899962 205.60414,41.257209 C 205.91936,41.614479 206.07347,42.24143 206.06648,43.138071 L 206.03495,47.362129 C 206.02795,47.950556 206.13302,48.468931 206.35018,48.917255 C 206.57433,49.36558 206.90357,49.733345 207.33789,50.020555 C 207.67413,50.237711 208.02439,50.395324 208.38866,50.493395 C 208.75291,50.584462 209.05063,50.633496 209.28181,50.640503 L 209.28181,40.857923 L 211.23621,40.857923 L 211.23621,50.640503 C 211.92972,50.584462 212.54265,50.409334 213.07505,50.115121 C 213.60742,49.813905 214.05225,49.43213 214.40952,48.969794 C 214.77377,48.49345 215.04696,47.975075 215.22911,47.414669 C 215.41123,46.854263 215.50229,46.258834 215.50231,45.628373 C 215.50229,45.110002 215.43224,44.665183 215.29215,44.293909 C 215.15904,43.91564 214.92788,43.593407 214.59865,43.32721 C 214.33245,43.110059 214.11529,42.889399 213.94719,42.665231 C 213.78606,42.434071 213.7055,42.160875 213.70551,41.845635 C 213.7055,41.453361 213.81757,41.159148 214.04175,40.962997 C 214.2659,40.766863 214.5496,40.668793 214.89286,40.668784 C 215.26412,40.668793 215.56883,40.773871 215.80703,40.984014 C 216.05219,41.194175 216.24133,41.46387 216.37444,41.793096 C 216.51453,42.129349 216.60909,42.497114 216.65814,42.896396 C 216.71417,43.28869 216.74219,43.691478 216.7422,44.10477"
       id="flowRoot19787" />
    <path
       style="fill:#ffffff;fill-opacity:0.25098039;fill-rule:evenodd;stroke:none;stroke-width:1px;stroke-linecap:butt;stroke-linejoin:miter;stroke-opacity:1"
       d="M 98.069013,31.363631 L 114.9515,52.674978 C 114.9515,52.674978 89.734559,67.193079 69.802029,84.800508 C 53.226526,99.442509 28.873175,127.99351 28.873175,127.99351 C 28.873175,127.99351 43.852104,89.786955 53.825514,75.517006 C 67.175806,56.415418 98.965667,32.26028 98.069013,31.363631 z "
       id="path23303" />
    <path
       style="font-size:48px;font-style:normal;font-variant:normal;font-weight:normal;font-stretch:normal;text-align:start;line-height:125%;writing-mode:lr-tb;text-anchor:start;fill:#000080;fill-opacity:1;font-family:Georgia"
       d="M 76.637263,58.2502 L 66.791632,58.2502 L 66.791632,56.821165 C 66.980767,56.60401 67.243458,56.362336 67.579706,56.096144 C 67.915945,55.822948 68.315232,55.528735 68.777571,55.213504 C 69.057769,55.02437 69.394013,54.817718 69.786302,54.593552 C 70.178581,54.369394 70.623405,54.124219 71.120767,53.858022 C 71.674161,53.563813 72.097971,53.304623 72.392188,53.080457 C 72.6934,52.856298 72.966595,52.579602 73.211784,52.250357 C 73.372889,52.033206 73.502482,51.763512 73.600563,51.44127 C 73.698624,51.112038 73.747662,50.646202 73.747671,50.043761 C 73.747662,49.168133 73.512991,48.527168 73.043663,48.120865 C 72.574311,47.707577 71.97188,47.500926 71.236353,47.500917 C 70.781017,47.500926 70.350204,47.591995 69.943915,47.774117 C 69.537615,47.949251 69.232899,48.194431 69.029753,48.509647 C 69.078787,48.733819 69.138329,49.000012 69.208384,49.308226 C 69.285433,49.616458 69.323962,49.917674 69.323966,50.211882 C 69.323962,50.47808 69.211881,50.716252 68.987724,50.9264 C 68.770564,51.129554 68.44483,51.231126 68.010515,51.231117 C 67.660261,51.231126 67.390566,51.112038 67.201432,50.873861 C 67.012293,50.62869 66.917723,50.302955 66.917723,49.896652 C 66.917723,49.518387 67.022797,49.140113 67.232954,48.76183 C 67.443101,48.376563 67.744322,48.022807 68.136606,47.70056 C 68.521882,47.385344 68.998227,47.12966 69.56564,46.933509 C 70.133049,46.737376 70.74599,46.639304 71.404476,46.639295 C 72.840504,46.639304 73.978827,46.961538 74.819445,47.605996 C 75.667052,48.243464 76.090857,49.098082 76.090867,50.169852 C 76.090857,50.68123 76.0138,51.147066 75.859701,51.56736 C 75.712584,51.987674 75.47091,52.35894 75.134675,52.681169 C 74.763395,53.038431 74.329081,53.346654 73.831732,53.605839 C 73.334365,53.858026 72.574311,54.211782 71.55158,54.667109 C 70.942131,54.940309 70.374723,55.227514 69.849349,55.52873 C 69.323962,55.822948 68.893154,56.110154 68.55691,56.390357 L 76.637263,56.390357 L 76.637263,58.2502 M 92.829488,44.737417 C 93.200746,45.514991 93.473941,46.3556 93.649079,47.259244 C 93.824195,48.155902 93.911761,49.154123 93.91177,50.253913 C 93.911761,51.276658 93.820694,52.267877 93.638575,53.227565 C 93.463437,54.18026 93.190237,55.034874 92.818979,55.791422 C 92.391659,56.660051 91.848769,57.33954 91.190301,57.829895 C 90.538823,58.32025 89.757755,58.565431 88.847106,58.565431 C 87.929434,58.565431 87.141365,58.316748 86.482892,57.819391 C 85.824411,57.322029 85.292026,56.646041 84.885736,55.791422 C 84.500455,54.992844 84.220252,54.152239 84.045127,53.269596 C 83.877005,52.379958 83.792944,51.378231 83.792944,50.264417 C 83.792944,49.136612 83.8735,48.141892 84.034618,47.280257 C 84.195733,46.418644 84.472435,45.571032 84.864718,44.737417 C 85.264005,43.896824 85.799892,43.224337 86.472384,42.719959 C 87.144866,42.215607 87.939943,41.963424 88.85761,41.96341 C 89.782274,41.963424 90.573845,42.215607 91.232331,42.719959 C 91.8908,43.224337 92.423185,43.896824 92.829488,44.737417 M 91.747205,49.50787 C 91.740189,48.267983 91.659629,47.217222 91.505527,46.355587 C 91.358414,45.493979 91.151763,44.796973 90.885579,44.264576 C 90.626385,43.732204 90.321663,43.350428 89.971419,43.119245 C 89.621156,42.881091 89.246387,42.762003 88.847106,42.761988 C 88.433799,42.762003 88.059027,42.874083 87.722788,43.098232 C 87.38654,43.322409 87.081822,43.707685 86.808627,44.254067 C 86.549437,44.779461 86.342787,45.476463 86.18868,46.345082 C 86.041571,47.206713 85.964512,48.260975 85.957509,49.50787 L 91.747205,49.50787 M 90.896088,56.253756 C 91.162271,55.69335 91.368923,54.985841 91.516036,54.131217 C 91.670138,53.276603 91.747196,52.169806 91.747205,50.810813 L 91.747205,50.443047 L 85.957509,50.443047 L 85.957509,50.810813 C 85.957509,52.148788 86.031062,53.25559 86.178171,54.131217 C 86.325275,55.006854 86.528419,55.717869 86.787614,56.264265 C 87.032785,56.78264 87.330499,57.164416 87.680757,57.409591 C 88.038014,57.647763 88.426792,57.766851 88.847106,57.766851 C 89.246387,57.766851 89.624657,57.651269 89.981927,57.4201 C 90.339174,57.181928 90.643896,56.793149 90.896088,56.253756"
       id="flowRoot20668" />
    <path
       style="fill:none;fill-opacity:0.75;fill-rule:evenodd;stroke:#000080;stroke-width:1.56913626;stroke-linecap:butt;stroke-linejoin:miter;stroke-miterlimit:4;stroke-opacity:1"
       d="M 100.60512,50.881679 C 100.60512,50.881679 117.85442,52.75747 135.57444,60.296497 C 153.25462,67.818581 169.6471,82.264403 169.6471,82.264403"
       id="path21551" />
    <path
       style="fill:#000080;fill-opacity:1;fill-rule:evenodd;stroke:none;stroke-width:1px;stroke-linecap:butt;stroke-linejoin:miter;stroke-opacity:1"
       d="M 172.2079,83.852195 L 165.35659,71.188391 L 158.05624,81.198359 L 172.2079,83.852195 z "
       id="path22426" />
  </g>
</svg>
