<?xml version="1.0" encoding="UTF-8" standalone="no"?>
<!-- Created with Inkscape (http://www.inkscape.org/) -->

<svg
   xmlns:svg="http://www.w3.org/2000/svg"
   xmlns="http://www.w3.org/2000/svg"
   xmlns:xlink="http://www.w3.org/1999/xlink"
   version="1.0"
   width="1995"
   height="1060"
   id="svg2">
  <defs
     id="defs5">
    <linearGradient
       id="linearGradient7991">
      <stop
         id="stop7993"
         style="stop-color:#e6e6e6;stop-opacity:1"
         offset="0" />
      <stop
         id="stop7995"
         style="stop-color:#ffffff;stop-opacity:1"
         offset="1" />
    </linearGradient>
    <linearGradient
       id="linearGradient7971">
      <stop
         id="stop7973"
         style="stop-color:#dcdcdc;stop-opacity:1"
         offset="0" />
      <stop
         id="stop7975"
         style="stop-color:#f4f4f4;stop-opacity:1"
         offset="1" />
    </linearGradient>
    <linearGradient
       id="linearGradient7548">
      <stop
         id="stop7550"
         style="stop-color:#5a3a03;stop-opacity:0.56521738"
         offset="0" />
      <stop
         id="stop7552"
         style="stop-color:#db8c07;stop-opacity:1"
         offset="1" />
    </linearGradient>
    <linearGradient
       id="linearGradient7540">
      <stop
         id="stop7542"
         style="stop-color:#1e1e25;stop-opacity:1"
         offset="0" />
      <stop
         id="stop7544"
         style="stop-color:#ffffff;stop-opacity:1"
         offset="1" />
    </linearGradient>
    <linearGradient
       x1="3322.1428"
       y1="113.80554"
       x2="3412.0657"
       y2="113.80554"
       id="linearGradient7546"
       xlink:href="#linearGradient7540"
       gradientUnits="userSpaceOnUse"
       gradientTransform="matrix(1.7124102,0,0,1.7124102,-4335.4815,463.3506)" />
    <linearGradient
       x1="3414.0483"
       y1="204.05551"
       x2="3449.6667"
       y2="169.05551"
       id="linearGradient7554"
       xlink:href="#linearGradient7548"
       gradientUnits="userSpaceOnUse"
       gradientTransform="matrix(1.7124102,0,0,1.7124102,-4335.4815,463.3506)" />
    <linearGradient
       x1="3060.75"
       y1="866.78125"
       x2="3388.5625"
       y2="866.78125"
       id="linearGradient8047"
       xlink:href="#linearGradient7991"
       gradientUnits="userSpaceOnUse"
       gradientTransform="matrix(1.7683466,0,0,1.7683466,-3995.9266,-1063.6449)" />
    <linearGradient
       x1="2772.7737"
       y1="901.04688"
       x2="2769.5745"
       y2="1201.8125"
       id="linearGradient8049"
       xlink:href="#linearGradient7991"
       gradientUnits="userSpaceOnUse"
       gradientTransform="matrix(1.7683466,0,0,1.7683466,-3995.9266,-1063.6449)" />
    <linearGradient
       x1="2659.0066"
       y1="533.01917"
       x2="2657.3708"
       y2="909.53925"
       id="linearGradient8051"
       xlink:href="#linearGradient7971"
       gradientUnits="userSpaceOnUse"
       gradientTransform="matrix(1.7683466,0,0,1.7683466,-3995.9266,-1063.6449)" />
    <linearGradient
       x1="3414.0483"
       y1="204.05551"
       x2="3449.6667"
       y2="169.05551"
       id="linearGradient2572"
       xlink:href="#linearGradient7548"
       gradientUnits="userSpaceOnUse"
       gradientTransform="matrix(1.1784624,-1.2424071,1.2424071,1.1784624,-2769.1224,4899.4456)" />
    <linearGradient
       x1="3322.1428"
       y1="113.80554"
       x2="3412.0657"
       y2="113.80554"
       id="linearGradient2574"
       xlink:href="#linearGradient7540"
       gradientUnits="userSpaceOnUse"
       gradientTransform="matrix(0.6917369,-0.3818313,0.7292713,0.3621791,676.93518,2323.4461)" />
  </defs>
  <path
     d="m 1997.5,1061 0,-1062 -580,0 0,545 580,517 z"
     id="path8041"
     style="fill:url(#linearGradient8047);fill-opacity:1;fill-rule:evenodd;stroke:#000000;stroke-width:2;stroke-linecap:butt;stroke-linejoin:miter;stroke-miterlimit:4;stroke-opacity:1;stroke-dasharray:none" />
  <path
     d="m -2.5,1061 2000,0 -579.9097,-516.8309 -1420.0903,0 0,516.8309 z"
     id="path8043"
     style="fill:url(#linearGradient8049);fill-opacity:1;stroke:#000000;stroke-width:2;stroke-linecap:round;stroke-linejoin:bevel;stroke-miterlimit:4;stroke-opacity:1;stroke-dasharray:none;stroke-dashoffset:0" />
  <path
     d="m 1417.5,-1 -1420,0 0,545 1420,0 0,-545 z"
     id="path8045"
     style="fill:url(#linearGradient8051);fill-opacity:1;fill-rule:evenodd;stroke:#000000;stroke-width:2;stroke-linecap:butt;stroke-linejoin:miter;stroke-miterlimit:4;stroke-opacity:1;stroke-dasharray:none" />
  <g
     transform="matrix(1.7124102,0,0,1.7124102,-3931.9561,459.862)"
     id="g7911">
    <path
       d="m 3082.375,216.0625 -70,0 c -1.0892,3.47022 -1.75,7.14206 -1.75,10.96875 0,5.57349 1.3387,10.82838 3.5625,15.5625 2.1368,4.54902 5.1912,8.51338 8.9063,11.8125 1.0416,0.23502 2.0196,0.51517 3.1562,0.71875 1.9613,0.35132 4.0764,0.6589 6.2812,0.90625 2.2049,0.24735 4.5074,0.43227 6.9063,0.5625 2.3988,0.13024 4.894,0.1875 7.4375,0.1875 2.5436,0 5.0074,-0.0573 7.4062,-0.1875 2.399,-0.13023 4.7328,-0.31515 6.9376,-0.5625 2.2049,-0.24735 4.2887,-0.55492 6.25,-0.90625 1.6419,-0.29415 3.1231,-0.64142 4.5624,-1 3.4444,-3.13932 6.2888,-6.91746 8.3438,-11.15625 2.3448,-4.837 3.75,-10.20442 3.75,-15.9375 0,-3.83579 -0.658,-7.49266 -1.75,-10.96875 z"
       id="path7859"
       style="fill:#23b716;fill-opacity:0.63372091;stroke:#000000;stroke-width:0.4915562;stroke-linecap:round;stroke-linejoin:bevel;stroke-miterlimit:4;stroke-opacity:1;stroke-dasharray:none;stroke-dashoffset:0" />
    <path
       d="m 3038.2188,154.53125 0,36.90625 c -12.3035,3.16888 -22.062,12.57596 -25.8438,24.625 l 70,0 c -3.7379,-11.89844 -13.3034,-21.23213 -25.4062,-24.5 l 0,-37.03125 -18.75,0 z"
       id="path7615"
       style="fill:#ffffff;fill-opacity:0.63372091;stroke:#000000;stroke-width:0.4915562;stroke-linecap:round;stroke-linejoin:bevel;stroke-miterlimit:4;stroke-opacity:1;stroke-dasharray:none;stroke-dashoffset:0" />
    <rect
       width="29.471098"
       height="5.8942194"
       x="3032.604"
       y="154.40987"
       id="rect7624"
       style="fill:#ffffff;fill-opacity:0.63372091;stroke:#000000;stroke-width:0.69464046;stroke-linecap:round;stroke-linejoin:bevel;stroke-miterlimit:4;stroke-opacity:1;stroke-dasharray:none;stroke-dashoffset:0" />
  </g>
  <g
     transform="matrix(1.7683466,0,0,1.7683466,-125.6029,63.85802)"
     id="g4236"
     style="fill:#b2b2ba;fill-opacity:0.51744187;stroke:#000000;stroke-width:2.8275001;stroke-miterlimit:4;stroke-opacity:0.52325583;stroke-dasharray:none">
    <path
       d="m 189.38096,169.85714 c 13.484,7.51712 27.02088,13.48821 42.30158,9.7619 36.87233,2.90991 74.3714,3.48993 111.28572,0 16.47415,-0.89497 32.96766,-0.62833 49.46031,-1.30158 33.02365,-3.22399 65.572,3.03539 97.61905,10.41269 103.40659,30.93417 108.7781,87.20116 161.39683,167.90477 4.15027,6.23303 9.21744,12.09841 14.96825,16.92063 12.3546,12.92639 38.76743,10.91751 39.04762,27.98413 0,3.66163 -3.56673,5.20635 -7.15873,5.20635 -3.81313,0 -7.93129,-1.03708 -11.06349,-2.60318 -8.27033,-5.39979 -17.92737,-7.7687 -26.68254,-12.36508 -11.4505,-8.66112 -22.6836,-18.28154 -29.28572,-31.23809 -25.06851,-37.96636 -46.68645,-109.80033 -93.06349,-119.74603 -7.44929,32.53817 0.0157,68.87191 15.61905,98.26984 2.80187,6.10846 7.64767,8.43617 13.01587,11.71428 4.98377,5.02743 4.06979,12.47299 5.20635,18.87302 6.36261,20.05761 13.13945,39.96915 9.76191,61.1746 -6.96389,24.74412 -46.0817,7.95512 -25.38096,-5.20635 9.24327,2.69556 7.32645,-13.95556 6.50794,-20.1746 -2.02648,-22.25012 -14.91402,-28.58401 -34.49206,-35.79365 -13.78901,-6.7279 -30.03111,-10.1834 -39.69842,-22.77778 -11.74442,-0.59871 -3.74917,31.73222 -1.30158,41 1.56498,13.54855 -6.65281,22.18554 -15.61905,30.5873 -16.89975,17.23545 -34.4572,38.37604 -61.1746,33.19048 -4.77172,-1.19293 -5.74971,-3.25397 -10.4127,-3.25397 -5.74089,-6.89422 -1.02656,-14.68126 5.20635,-18.87302 7.84944,0.215 12.3598,4.13746 20.1746,0.6508 6.55557,-2.90141 10.90104,-8.56499 15.61905,-13.66667 4.06508,-4.6745 7.05844,-9.59719 8.46032,-15.61905 C 441.0142,378.10364 419.77745,364.37598 410.6508,341.66666 398.8792,332.4231 375.85675,330.89736 359.88889,328 c -14.55592,5.05811 -44.39614,-9.97938 -55.31746,-0.6508 -8.20006,10.19824 -8.93365,25.04624 -10.4127,37.74603 -0.32797,16.62205 2.34233,34.43816 -5.85714,49.46032 2.89421,18.23353 -33.56442,27.11121 -37.74603,10.4127 0.0433,-7.23617 9.2464,-7.19478 14.31746,-9.11111 9.37364,-5.8318 4.81473,-20.2516 4.55555,-29.93651 -1.24727,-14.04371 -3.28045,-28.48526 -6.50793,-42.30159 -12.61249,10.14894 -27.51119,26.02118 -33.19048,41.6508 -4.25729,13.83927 -17.99013,21.93649 -28.63492,30.5873 -8.50713,7.1778 -12.88169,15.39642 -16.26984,25.38095 -16.02566,0.63139 -26.63279,1.04444 -41,-4.55555 -3.52797,-5.64458 2.28052,-13.10555 7.15873,-15.61905 7.72368,-0.0116 13.0015,0.19142 19.52381,-4.55556 10.46641,-14.88473 16.80474,-32.92526 24.73016,-49.46032 5.69264,-13.96206 12.34882,-27.42859 18.87301,-41 2.97561,-27.55337 -37.17588,-30.8895 -43.60317,-54.01587 -3.39768,-9.23304 -6.4253,-19.36204 -12.36508,-27.33333 -10.63,0.92194 -20.69268,6.83821 -30.5873,11.06349 -8.86493,2.99622 -16.34879,-3.19874 -21.47619,-9.7619 -11.266682,-12.10412 -16.410145,-30.49967 -16.269845,-46.85715 -0.657602,-9.94628 4.384592,-20.76932 5.857142,-29.28571 0,-3.60963 -3.665048,-6.85067 -4.555555,-10.4127 -4.241512,-6.17859 -8.094922,-13.13305 -13.015873,-18.87302 -2.517625,-10.1895 39.766261,8.21222 43.603181,10.4127 6.93714,2.68396 13.97266,5.08425 21.47619,5.20635 7.53318,-0.27968 14.86524,-2.99862 21.47619,-6.50794 4.72658,-4.65417 9.64097,-8.20022 15.61904,-11.06349 15.76042,2.17849 11.70346,19.75711 9.11112,31.2381 z"
       id="path2220"
       style="fill:#b2b2ba;fill-opacity:0.51744187;fill-rule:evenodd;stroke:#000000;stroke-width:2.8275001;stroke-linecap:butt;stroke-linejoin:miter;stroke-miterlimit:4;stroke-opacity:0.52325583;stroke-dasharray:none" />
    <path
       d="m 216.95881,289.63219 c -2.83408,3.07454 -5.92525,8.01552 -5.98235,13.80542 0.95724,5.51343 4.13155,10.32862 3.22126,16.10632"
       id="path3236"
       style="fill:#b2b2ba;fill-opacity:0.51744187;fill-rule:evenodd;stroke:#000000;stroke-width:2.8275001;stroke-linecap:butt;stroke-linejoin:miter;stroke-miterlimit:4;stroke-opacity:0.52325583;stroke-dasharray:none" />
    <path
       d="m 287.7458,308.49283 c -4.08772,13.29183 -14.28143,24.28919 -24.07073,34.02151 -0.25891,0.24231 -0.32749,0.613 -0.49123,0.9195 m 43.22905,-17.4705 c -8.9347,1.92862 -17.63171,-2.32358 -26.52692,-0.9195"
       id="path3238"
       style="fill:#b2b2ba;fill-opacity:0.51744187;fill-rule:evenodd;stroke:#000000;stroke-width:2.8275001;stroke-linecap:round;stroke-linejoin:miter;stroke-miterlimit:4;stroke-opacity:0.52325583;stroke-dasharray:none" />
    <path
       d="m 407.53419,314.22196 c -3.58701,5.98754 0.43903,19.12858 2.30091,25.77011 0.20369,0.81479 0.7727,1.5454 0.92036,1.84072"
       id="path3240"
       style="fill:#b2b2ba;fill-opacity:0.51744187;fill-rule:evenodd;stroke:#000000;stroke-width:2.8275001;stroke-linecap:butt;stroke-linejoin:miter;stroke-miterlimit:4;stroke-opacity:0.52325583;stroke-dasharray:none" />
    <path
       d="m 535.46274,274.82889 c -11.5456,28.91373 -36.2947,49.1394 -51.78359,75.52738"
       id="path3242"
       style="fill:#b2b2ba;fill-opacity:0.51744187;fill-rule:evenodd;stroke:#000000;stroke-width:2.8275001;stroke-linecap:butt;stroke-linejoin:miter;stroke-miterlimit:4;stroke-opacity:0.52325583;stroke-dasharray:none" />
    <path
       d="m 252.86924,428.49508 c -0.8,1.6 1.02564,-4.16795 2.76109,-4.60181 1.21916,-0.30479 2.55738,-0.17916 3.68144,-0.46018"
       id="path3244"
       style="fill:#b2b2ba;fill-opacity:0.51744187;fill-rule:evenodd;stroke:#000000;stroke-width:2.8275001;stroke-linecap:butt;stroke-linejoin:miter;stroke-miterlimit:4;stroke-opacity:0.52325583;stroke-dasharray:none" />
    <path
       d="m 258.39141,432.6367 c 0.73267,-0.18317 1.97216,-3.98384 5.06199,-4.60181 0.45124,-0.0903 0.92036,0 1.38054,0"
       id="path3246"
       style="fill:#b2b2ba;fill-opacity:0.51744187;fill-rule:evenodd;stroke:#000000;stroke-width:2.8275001;stroke-linecap:butt;stroke-linejoin:miter;stroke-miterlimit:4;stroke-opacity:0.52325583;stroke-dasharray:none" />
    <path
       d="m 398.17126,443.33591 c 2.01803,-0.40361 1.84073,-3.68145 2.76109,-5.52217 0.57575,-1.15151 4.2496,-1.40754 5.98234,-1.84072"
       id="path3248"
       style="fill:#b2b2ba;fill-opacity:0.51744187;fill-rule:evenodd;stroke:#000000;stroke-width:2.8275001;stroke-linecap:butt;stroke-linejoin:miter;stroke-miterlimit:4;stroke-opacity:0.52325583;stroke-dasharray:none" />
    <path
       d="m 405.07397,449.2032 c 2.56029,-0.64007 2.49054,-4.85908 4.60181,-6.44253 1.55384,-1.16538 3.46549,-2.36196 5.06198,-2.76108 0.33276,-0.0832 0.61358,0.30679 0.92037,0.46018"
       id="path3250"
       style="fill:#b2b2ba;fill-opacity:0.51744187;fill-rule:evenodd;stroke:#000000;stroke-width:2.8275001;stroke-linecap:butt;stroke-linejoin:miter;stroke-miterlimit:4;stroke-opacity:0.52325583;stroke-dasharray:none" />
    <path
       d="m 550.83618,435.39779 c 0.14998,-0.0375 1.56589,-3.49769 4.14163,-4.14163 1.34915,-0.33729 2.72189,-0.46018 4.14162,-0.46018"
       id="path3252"
       style="fill:#b2b2ba;fill-opacity:0.51744187;fill-rule:evenodd;stroke:#000000;stroke-width:2.8275001;stroke-linecap:butt;stroke-linejoin:miter;stroke-miterlimit:4;stroke-opacity:0.52325583;stroke-dasharray:none" />
    <path
       d="m 553.59727,439.30932 c 1.6083,-0.40208 2.38958,-3.68145 6.44253,-3.68145 0.48507,0 0.92036,0.30679 1.38054,0.46018"
       id="path3254"
       style="fill:#b2b2ba;fill-opacity:0.51744187;fill-rule:evenodd;stroke:#000000;stroke-width:2.8275001;stroke-linecap:butt;stroke-linejoin:miter;stroke-miterlimit:4;stroke-opacity:0.52325583;stroke-dasharray:none" />
    <path
       d="m 145.30541,437.02477 c 2.39609,0 2.90752,-3.82788 4.60181,-5.52217 1.5855,-1.58551 5.22552,-0.92036 7.36289,-0.92036"
       id="path3256"
       style="fill:#b2b2ba;fill-opacity:0.51744187;fill-rule:evenodd;stroke:#000000;stroke-width:2.8275001;stroke-linecap:butt;stroke-linejoin:miter;stroke-miterlimit:4;stroke-opacity:0.52325583;stroke-dasharray:none" />
    <path
       d="m 157.70237,440.43665 c 2.18013,0 2.60004,-3.5204 4.14163,-5.06199 1.62763,-1.62763 3.69845,-1.38054 5.98234,-1.38054"
       id="path3258"
       style="fill:#b2b2ba;fill-opacity:0.51744187;fill-rule:evenodd;stroke:#000000;stroke-width:2.8275001;stroke-linecap:butt;stroke-linejoin:miter;stroke-miterlimit:4;stroke-opacity:0.52325583;stroke-dasharray:none" />
    <path
       d="m 158.16735,244.66927 c 5.38735,-1.67766 10.34347,-4.51074 15.18596,-7.36289"
       id="path3262"
       style="fill:#b2b2ba;fill-opacity:0.51744187;fill-rule:evenodd;stroke:#000000;stroke-width:2.8275001;stroke-linecap:butt;stroke-linejoin:miter;stroke-miterlimit:4;stroke-opacity:0.52325583;stroke-dasharray:none" />
    <path
       d="m 187.92117,181.10853 c -0.19188,-3.98909 -0.17136,-7.40919 1.38054,-11.04433"
       id="path3264"
       style="fill:#b2b2ba;fill-opacity:0.51744187;fill-rule:evenodd;stroke:#000000;stroke-width:2.8275001;stroke-linecap:butt;stroke-linejoin:miter;stroke-miterlimit:4;stroke-opacity:0.52325583;stroke-dasharray:none" />
  </g>
  <rect
     width="109.33468"
     height="109.33468"
     x="-1884.754"
     y="394.71301"
     transform="scale(-1,1)"
     id="rect7446"
     style="fill:#f1cd43;fill-opacity:1;stroke:#fffa05;stroke-width:2.84753084;stroke-linejoin:bevel;stroke-miterlimit:4;stroke-opacity:1;stroke-dasharray:none;stroke-dashoffset:0;display:inline" />
  <path
     d="m 1775.4196,394.68629 -45.8134,-27.59272 0,108.50722 45.8134,28.42019 0,-109.33469 z"
     id="path7448"
     style="fill:#f1cd43;fill-opacity:1;stroke:#fffa05;stroke-width:2.84753084;stroke-linejoin:bevel;stroke-miterlimit:4;stroke-opacity:1;stroke-dasharray:none;stroke-dashoffset:0;display:inline" />
  <path
     d="m 1838.8419,367.03233 -109.3347,0 45.9657,27.70738 109.3345,0 -45.9655,-27.70738 z"
     id="path7450"
     style="fill:#f1cd43;fill-opacity:1;stroke:#fffa05;stroke-width:2.84753084;stroke-linejoin:bevel;stroke-miterlimit:4;stroke-opacity:1;stroke-dasharray:none;stroke-dashoffset:0;display:inline" />
  <path
     d="m 1742.1622,400.54551 10.0675,5.53715 -0.2518,75.25489 -9.8157,-6.54391 0,-74.24813 z"
     id="rect7483"
     style="fill:#1e1e25;fill-opacity:1;stroke:#000000;stroke-width:1.42376542;stroke-linecap:round;stroke-linejoin:bevel;stroke-miterlimit:4;stroke-opacity:1;stroke-dashoffset:0" />
  <path
     d="m 1568.394,383.71654 c -3.3972,0.003 -7.5947,1.00433 -8.9876,5.65058 -1.2393,4.13345 0.7832,6.88914 3.1146,8.63158 -0.6565,-1.43051 -0.851,-3.14124 -0.2225,-5.20564 1.5996,-5.25574 6.8196,-5.8982 10.4111,-5.65058 3.211,-0.27931 6.1401,0.57841 6.1401,0.57841 l 144.6011,26.91807 25.0495,4.53825 -5.606,-3.38145 -169.7396,-31.45632 c -3e-4,0 -2.1188,-0.62553 -4.7607,-0.6229 z"
     id="path7466"
     style="fill:#9291a4;fill-opacity:1;fill-rule:evenodd;stroke:#000000;stroke-width:1.41343939;stroke-linecap:butt;stroke-linejoin:miter;stroke-miterlimit:4;stroke-opacity:1;stroke-dasharray:none" />
  <path
     d="M 1748.6292,419.21435 1576.295,387.73449 c 0,0 -11.4768,-3.19896 -13.9901,5.05864 -2.5132,8.25761 8.2578,11.12981 8.2578,11.12981 l 178.0769,43.08317 -0.01,-27.79176 z"
     id="path7470"
     style="fill:#f4f4f6;fill-opacity:1;fill-rule:evenodd;stroke:#000000;stroke-width:1.42376542px;stroke-linecap:butt;stroke-linejoin:miter;stroke-opacity:1" />
  <path
     d="m 3145.011,-113.65304 a 3.1204045,3.1204045 0 1 1 -6.2408,0 3.1204045,3.1204045 0 1 1 6.2408,0 z"
     transform="matrix(1.4237655,0,0,1.4237655,-2900.4801,557.94397)"
     id="path7474"
     style="fill:#1b1a20;fill-opacity:1;stroke:#000000;stroke-width:1;stroke-linecap:round;stroke-linejoin:bevel;stroke-miterlimit:4;stroke-opacity:1;stroke-dasharray:none;stroke-dashoffset:0" />
  <path
     d="m 1632.8455,852.80462 c -9.2637,-13.2015 -220.9912,-231.42638 -220.9912,-231.42638 l -23.1598,20.90236 204.9657,242.02717 39.1853,-31.50315 z"
     id="path7535"
     style="fill:url(#linearGradient7554);fill-opacity:1;fill-rule:evenodd;stroke:#000000;stroke-width:1.12869048px;stroke-linecap:butt;stroke-linejoin:miter;stroke-opacity:1" />
  <path
     d="m 1468.5964,589.47465 -108.8519,96.81088 -5.7903,40.70457 42.8461,0 110.01,-97.91098 -38.2139,-39.60447 z"
     id="path7537"
     style="fill:url(#linearGradient7546);fill-opacity:1;fill-rule:evenodd;stroke:#000000;stroke-width:1.12869048px;stroke-linecap:butt;stroke-linejoin:miter;stroke-opacity:1" />
  <path
     d="m 1571.4195,396.42835 -21,366.68853 c -5.4503,4.40392 -33.5822,31.91287 -33.5822,31.91287 l 35.0729,-30.53445 -33.6492,32.31415 35.4288,-30.35648"
     id="path7523"
     style="fill:none;stroke:#000000;stroke-width:1.42376542px;stroke-linecap:butt;stroke-linejoin:miter;stroke-opacity:1" />
  <g
     transform="translate(-114.99997,-3.576262)"
     id="g3351">
    <path
       d="m 569.20131,625.26914 c -21.47956,-0.36551 -55.49744,5.58913 -65.63416,9.48786 -11.58478,4.45569 -20.49845,6.22878 -35.6478,8.9022 -14.95134,2.63847 -73.23104,31.3141 -111.58978,49.19633 l -0.19523,-0.35141 c 0,0 -57.94148,15.78719 -76.21526,23.34874 -18.27376,7.56156 -34.04812,25.80969 -38.45904,30.22061 -4.4109,4.41091 -17.01067,11.97276 -32.13379,22.68496 -15.12311,10.71222 -20.80114,30.23802 -26.47231,32.75852 -5.67117,2.52049 -34.65004,21.43126 -37.17056,26.47231 -2.52052,5.04104 -13.24157,18.26981 -12.61144,27.72175 0.63013,9.45193 12.62456,11.9867 20.18611,11.98672 7.56156,0 30.87155,-2e-5 45.99467,0 15.12311,0 6.28848,5.68656 15.1103,16.39876 8.82181,10.71222 30.11828,20.45263 38.10763,25.80856 6.85499,4.59547 1.94006,51.10654 10.6592,51.53901 22.93385,3.64576 60.37471,-38.5512 81.68152,-49.6258 8.04524,-4.96122 12.61146,-20.78492 12.61146,-28.34647 0,-7.56156 24.54173,-8.19169 22.02122,0 -2.52053,8.19167 -16.99988,17.63538 -33.38324,32.75851 -16.38336,15.12309 -20.62873,16.84679 -28.19027,23.77821 -7.56157,6.93145 -11.8012,14.40683 -13.39234,23.66112 -3.12405,24.45225 -1.48685,56.46047 17.84343,73.24787 6.30129,6.3013 23.10594,5.3209 33.18799,4.0606 10.0821,-1.2602 8.82412,-35.906 8.8241,-42.2073 0,-6.30128 5.68543,-13.24501 11.98674,-25.84759 6.28021,-12.56043 73.71487,-72.90043 88.51434,-85.78122 18.85815,3.98553 21.44219,7.84797 39.16186,7.84797 17.82274,0 24.51317,-7.15893 31.19671,-8.94122 6.68354,-1.78228 3.1006,-12.9238 2.65505,-20.49846 -0.44557,-7.57469 0.0368,-6.67666 9.83926,-6.67666 9.80252,0 211.17218,-30.29869 246.37211,-37.87336 35.19996,-7.57468 77.32921,-8.47038 83.78994,-3.12358 6.46076,5.34683 40.52613,13.1466 50.32861,12.92379 9.80251,-0.22278 25.38824,6.93849 31.62622,6.71568 6.23797,-0.22277 23.16729,12.68495 36.31159,17.14064 13.14425,4.45569 39.54425,6.13692 45.44805,7.02806 5.9038,0.89113 10.6948,-3.37508 12.1429,-3.70926 4.1512,-5.14301 5.4826,-2.43678 8.8241,-5.50531 2.562,0.44557 4.8025,-10.42491 4.8025,-14.21227 -3.2454,-7.95047 -5.606,-12.22599 -9.4879,-17.25775 -4.4557,-8.02025 -48.1329,-36.51371 -72.19365,-52.55419 -24.06072,-16.04047 -85.55386,-49.03094 -101.59432,-57.94233 -16.04048,-8.91138 -96.20844,-53.4614 -116.70464,-59.69936 -20.49616,-6.23797 -110.51029,-27.60691 -127.44191,-17.80439 -16.93163,9.80252 -42.78843,-4.47177 -62.39345,-7.14518 -2.45063,-0.33417 -5.248,-0.53345 -8.31652,-0.58567 z"
       id="path7640"
       style="fill:#b2b2ba;fill-opacity:0.48837208;fill-rule:evenodd;stroke:#000000;stroke-width:5;stroke-linecap:butt;stroke-linejoin:miter;stroke-miterlimit:4;stroke-opacity:0.51744187;stroke-dasharray:none" />
    <path
       d="m 1036.8863,803.03147 c -23.1696,0.89112 -26.2708,4.61319 -44.98469,-4.29818 -18.7139,-8.91139 -30.29869,-19.60504 -45.44804,-19.60504 -15.14934,0 -42.77463,-8.02025 -69.50876,-12.47592 -26.73414,-4.4557 -60.59738,-8.02026 -60.59738,-8.02026"
       id="path7638"
       style="fill:none;stroke:#000000;stroke-width:5;stroke-linecap:butt;stroke-linejoin:miter;stroke-miterlimit:4;stroke-opacity:0.51744187;stroke-dasharray:none" />
    <path
       d="m 462.78842,886.62178 c -19.15949,-4.01012 -36.75944,5.23543 -47.45311,-13.92404 -10.69366,-19.15945 -16.48606,-24.06072 -16.48606,-37.42778 0,-13.36707 -1.33669,-20.05062 -1.33669,-36.0911 0,-16.0405 0,-26.28856 0,-26.28856"
       id="path7642"
       style="fill:none;stroke:#000000;stroke-width:5;stroke-linecap:butt;stroke-linejoin:miter;stroke-miterlimit:4;stroke-opacity:0.51744187;stroke-dasharray:none" />
    <path
       d="m 281.98426,772.04001 c 14.33684,15.3197 76.06812,45.99369 80.11173,49.83816 6.12141,5.81995 16.44127,27.56622 11.40023,35.75791 -5.04103,8.19169 -15.93316,23.9264 -15.93316,23.9264"
       id="path7644"
       style="fill:none;stroke:#000000;stroke-width:5;stroke-linecap:butt;stroke-linejoin:miter;stroke-miterlimit:4;stroke-opacity:0.51744187;stroke-dasharray:none" />
    <path
       d="m 434.0492,707.83721 c 32.97211,1.78228 50.79489,-1.78227 50.79489,14.2582 0,16.0405 7.1291,65.05309 0.89112,72.18218 -6.23797,7.1291 -22.27845,29.40756 -15.14934,31.18985 7.12909,1.78226 32.95818,2.6734 42.77463,11.58479 3.87027,4.10751 7.77207,5.10032 12.28967,7.96272 3.15064,1.89038 11.97247,5.04104 11.97247,10.08209 0,5.04104 0.63011,10.08207 0.63011,10.08207"
       id="path7646"
       style="fill:none;stroke:#000000;stroke-width:5;stroke-linecap:butt;stroke-linejoin:miter;stroke-miterlimit:4;stroke-opacity:0.51744187;stroke-dasharray:none" />
  </g>
  <rect
     width="109.33468"
     height="109.33468"
     x="-1564.761"
     y="222.28876"
     transform="scale(-1,1)"
     id="rect7802"
     style="fill:#000000;fill-opacity:1;stroke:#000000;stroke-width:2.84753084;stroke-linejoin:bevel;stroke-miterlimit:4;stroke-opacity:1;stroke-dasharray:none;stroke-dashoffset:0;display:inline" />
  <path
     d="m 1455.4262,222.26195 -45.8133,-27.59271 0,108.50721 45.8133,28.42018 0,-109.33468 z"
     id="path7804"
     style="fill:#4b43f1;fill-opacity:1;stroke:#000000;stroke-width:2.84753084;stroke-linejoin:bevel;stroke-miterlimit:4;stroke-opacity:1;stroke-dasharray:none;stroke-dashoffset:0;display:inline" />
  <path
     d="m 1518.8486,194.608 -109.3347,0 45.9657,27.70739 109.3345,0 -45.9655,-27.70739 z"
     id="path7806"
     style="fill:#4b43f1;fill-opacity:1;stroke:#000000;stroke-width:2.84800005;stroke-linejoin:round;stroke-miterlimit:4;stroke-opacity:1;stroke-dasharray:none;stroke-dashoffset:0;display:inline" />
  <g
     transform="matrix(0.1771807,0,0,0.1752865,1510.571,277.11256)"
     id="g7808"
     style="fill:#f1cd43;fill-opacity:1">
    <path
       d="M 264.33964,-111.81925 C 323.62695,36.157731 254.04363,204.94724 108.58457,265.99862 -36.874502,327.05 -203.61437,257.44894 -264.64541,110.20382 c -61.03101,-147.245117 6.55348,-316.86897 151.28093,-379.6855 144.727444,-62.8165 312.27748,4.75118 375.04346,151.24327"
       id="path7810"
       style="opacity:0.9;fill:#000000;fill-opacity:1;fill-rule:evenodd;stroke:#000000;stroke-width:20.85027122;stroke-linecap:round;stroke-linejoin:round;stroke-miterlimit:4;stroke-opacity:1;stroke-dasharray:none;stroke-dashoffset:0" />
    <circle
       cx="0"
       cy="0"
       r="50"
       id="circle7812" />
    <path
       d="m 75,0 c 3.4e-5,-26.794953 -14.29489,-51.554523 -37.5,-64.952 L 125,-216.506 C 202.35016,-171.84786 249.99987,-89.316272 250,0 L 75,0 z"
       id="path7814" />
    <path
       d="m -37.5,64.951905 c 23.205093,13.397506 51.794971,13.397524 75.000082,4.7e-5 L 124.9997,216.50617 C 47.649532,261.16431 -47.649775,261.16437 -125,216.50635 L -37.5,64.951905 z"
       id="use7816" />
    <path
       d="M -37.5,-64.951905 C -60.705127,-51.554458 -75.000081,-26.794906 -75.000082,4.75e-5 L -249.9997,-1.75e-4 c 1e-5,-89.316273 47.6496,-171.847925 124.9997,-216.506175 l 87.5,151.554445 z"
       id="use7818" />
  </g>
  <path
     d="m 1303.1964,838.42394 c -32.6933,-3.63274 -93.1658,2.15638 -116.2424,-12.10864 -24.7965,-15.32811 -123.0039,-4.06199 -69.0187,32.6933 55.6753,37.90582 -70.0417,83.58479 75.073,62.96429 44.8019,-4.84329 115.0316,6.05456 133.1944,6.05456 18.1629,0 76.2839,-2.42182 66.5969,-31.48251 -9.6867,-29.06068 -33.9041,-59.33191 -46.0125,-59.33191 -12.1085,0 -44.8018,2.4217 -43.5907,1.21091 z"
     id="path2518"
     style="fill:#22b716;fill-opacity:0.63529412;fill-rule:evenodd;stroke:#000000;stroke-width:1.71241009px;stroke-linecap:butt;stroke-linejoin:miter;stroke-opacity:1" />
  <path
     d="m 1342.1635,876.23799 -111.8951,0 c 3.6069,7.1333 8.416,13.52125 14.3414,18.78333 1.7835,0.40232 3.4584,0.82856 5.4047,1.17712 3.358,0.60148 6.9269,1.12852 10.7025,1.552 3.7754,0.42349 7.772,0.74041 11.8799,0.96303 4.1081,0.22287 8.3269,0.37477 12.6827,0.37477 4.3553,0 8.6279,-0.15142 12.7357,-0.37477 4.1082,-0.22286 8.0513,-0.53954 11.8264,-0.96303 3.7757,-0.42372 7.3976,-0.95052 10.7563,-1.552 2.8117,-0.50383 5.3479,-1.09822 7.8126,-1.71246 5.6676,-5.16525 10.2743,-11.33696 13.7529,-18.24799 z"
     id="path2520"
     style="fill:#23b716;fill-opacity:0.63372091;stroke:#000000;stroke-width:0.84174585;stroke-linecap:round;stroke-linejoin:bevel;stroke-miterlimit:4;stroke-opacity:1;stroke-dasharray:none;stroke-dashoffset:0" />
  <path
     d="m 1623.5432,561.63974 c -1.6235,2.9841 -2.7547,7.1484 0.6573,10.5959 3.0356,3.0671 6.4232,2.611 9.0692,1.3986 -1.5701,-0.1087 -3.1652,-0.7571 -4.6768,-2.2972 -3.8481,-3.9209 -1.9128,-8.8112 0.024,-11.8457 1.2923,-2.9527 3.4478,-5.1136 3.4478,-5.1136 l 120.4242,-137.9045 -0.1156,-4.4998 -126.0041,145.785 c -2e-4,3e-4 -1.5636,1.5607 -2.8264,3.8813 z"
     id="path2522"
     style="fill:#9291a4;fill-opacity:1;fill-rule:evenodd;stroke:#000000;stroke-width:1.41343939;stroke-linecap:butt;stroke-linejoin:miter;stroke-miterlimit:4;stroke-opacity:1;stroke-dasharray:none" />
  <path
     d="m 1752.0633,416.26794 -121.1936,140.345 c 0,0 -8.3151,8.5668 -2.2692,14.7271 6.0464,6.1602 13.7038,-1.9132 13.7038,-1.9132 l 109.7189,-120.9311 0,-22.0684 0.04,-10.1594 z"
     id="path2524"
     style="fill:#f4f4f6;fill-opacity:1;fill-rule:evenodd;stroke:#000000;stroke-width:1.42376542px;stroke-linecap:butt;stroke-linejoin:miter;stroke-opacity:1" />
  <path
     d="m 3145.011,-113.65304 a 3.1204045,3.1204045 0 1 1 -6.2408,0 3.1204045,3.1204045 0 1 1 6.2408,0 z"
     transform="matrix(0.6817156,-1.2499487,1.2499487,0.6817156,-363.2486,4568.3653)"
     id="path2526"
     style="fill:#1b1a20;fill-opacity:1;stroke:#000000;stroke-width:1;stroke-linecap:round;stroke-linejoin:bevel;stroke-miterlimit:4;stroke-opacity:1;stroke-dasharray:none;stroke-dashoffset:0" />
  <path
     d="m 1259.5934,834.76571 c 0,0 -5.1468,6.0566 -10.5958,11.50522 -2.7242,2.72443 -5.4889,5.31392 -7.7593,6.90333 -1.1352,0.79429 -2.1484,1.35283 -2.9432,1.55189 -0.7946,0.19869 -1.4094,0.0702 -1.7125,-0.53534 -0.6053,-1.21079 -2.3315,-2.99312 -4.6019,-4.92315 -2.2704,-1.92966 -5.0886,-4.02555 -7.8129,-5.99346 -0.1951,-0.14084 -0.1805,-0.12833 -0.3746,-0.26761 -0.1419,1.72304 -0.5351,3.37812 -0.5351,5.13748 -2e-4,9.54393 2.2923,18.4889 6.1004,26.59556 0.251,0.53449 0.6441,0.97301 0.9099,1.49836 l 111.8951,0 c 0.1415,-0.28119 0.3438,-0.51849 0.4817,-0.80246 1.3987,-2.88548 2.3359,-6.00452 3.3176,-9.09711 l -7.6522,-7.33126 c 0,0 -36.3081,2.40799 -41.1515,2.40799 -1.2109,0 -2.3495,-0.48987 -3.3711,-1.2844 -1.0217,-0.79441 -1.9189,-1.88336 -2.6757,-2.94321 -1.5136,-2.11897 -2.4614,-4.22749 -2.4617,-4.22749 l -27.8267,23.01058 -1.2305,-41.20492 z"
     id="path2528"
     style="fill:#ffffff;fill-opacity:0.63372091;stroke:#000000;stroke-width:0.84174585;stroke-linecap:round;stroke-linejoin:bevel;stroke-miterlimit:4;stroke-opacity:1;stroke-dasharray:none;stroke-dashoffset:0" />
  <path
     d="m 1620.7775,837.25621 c -15.9533,-2.36374 -319.9908,1.07091 -319.9908,1.07091 l -0.7734,31.18808 316.6536,17.85133 4.1106,-50.11032 z"
     id="path2530"
     style="fill:url(#linearGradient2572);fill-opacity:1;fill-rule:evenodd;stroke:#000000;stroke-width:1.12869048px;stroke-linecap:butt;stroke-linejoin:miter;stroke-opacity:1" />
  <g
     transform="matrix(1.7124102,0,0,1.7124102,-3948.649,-999.11851)"
     id="g2532">
    <path
       d="m 3098.7845,1055.9014 0,12.7187 -23.5312,0.125 -1.9376,32.0938 -0.7187,0 0,11.625 -0.062,1.0312 0.062,0.031 0,0.125 0.1875,0 14.75,9.75 17.2812,-9.5625 2.75,-45.25 -0.094,0 0,-12.6875 -8.6875,0 z"
       id="path2534"
       style="fill:#2a2a31;fill-opacity:1;fill-rule:evenodd;stroke:#000000;stroke-width:1;stroke-linecap:butt;stroke-linejoin:miter;stroke-miterlimit:4;stroke-opacity:1;stroke-dasharray:none" />
    <path
       d="m 3075.2351,1055.9349 -2.742,44.7474 14.9961,9.9002 17.3079,-9.5538 2.7413,-45.2383 -32.3033,0.1445 z"
       id="path2536"
       style="fill:url(#linearGradient2574);fill-opacity:1;fill-rule:evenodd;stroke:#000000;stroke-width:0.47939259px;stroke-linecap:butt;stroke-linejoin:miter;stroke-opacity:1" />
    <path
       d="m 3087.4434,1110.4784 0.088,12.8605"
       id="path2538"
       style="fill:none;stroke:#000000;stroke-width:1;stroke-linecap:butt;stroke-linejoin:miter;stroke-miterlimit:4;stroke-opacity:1;stroke-dasharray:none" />
    <path
       d="m 3104.8117,1101.0651 0.044,12.7279"
       id="path2540"
       style="fill:none;stroke:#000000;stroke-width:1;stroke-linecap:butt;stroke-linejoin:miter;stroke-miterlimit:4;stroke-opacity:1;stroke-dasharray:none" />
  </g>
  <path
     d="m 1636.0753,563.55374 c -11.749,11.5619 -5.6291,111.5032 0,129.5627 5.7613,14.0764 17.0736,24.6093 25.6278,37.0178 22.067,29.4386 35.5942,39.8014 35.5942,76.8835 3.0979,45.0595 -59.9998,21.4789 -89.769,26.0524 -6.5148,1.0007 -100.5557,0.8898 -106.9504,2.4884 -10.8684,2.7171 5.0844,43.3475 -6.1492,45.2196"
     id="path2542"
     style="fill:none;stroke:#000000;stroke-width:1.42376542px;stroke-linecap:butt;stroke-linejoin:miter;stroke-opacity:1" />
  <path
     d="m 1494.8752,880.59141 c -0.6424,-2.35435 -1.7126,-46.44908 -1.7126,-46.44908 l -1.4984,44.73675 -1.0701,-44.73675"
     id="path2544"
     style="fill:none;stroke:#000000;stroke-width:1.71241009px;stroke-linecap:butt;stroke-linejoin:miter;stroke-opacity:1" />
  <path
     d="m 1136.7812,790.29669 c -11.2536,12.51576 -17.2734,29.25336 -16.1072,46.39555 l -59.9342,20.65599 10.4883,30.39511 59.8272,-20.7095 c 9.452,14.17782 24.2323,23.69457 40.6165,26.86365 -0.016,-0.40051 -0.038,-0.72357 -0.054,-1.12384 -0.1108,-2.76688 -0.162,-4.82007 -0.2676,-7.54546 l -8.6157,-10.48856 8.1876,0 c -0.2208,-5.92118 -0.4739,-12.6471 -0.6421,-17.3914 l -8.134,-6.79617 7.6523,-7.92 c 0,-0.1412 -0.053,-1.71257 -0.053,-1.71257 l -4.2278,-7.86612 -4.6019,0.5351 0.6422,-7.8666 -2.4616,-4.65542 -6.0469,4.0134 -7.8666,-2.99673 3.0504,-12.09372 2.1404,-5.2444 -3.4782,-6.47491 -10.8096,2.62195 0.6955,-10.59535 z"
     id="path2546"
     style="fill:#ffffff;fill-opacity:0.63372091;stroke:#000000;stroke-width:0.84174585;stroke-linecap:round;stroke-linejoin:bevel;stroke-miterlimit:4;stroke-opacity:1;stroke-dasharray:none;stroke-dashoffset:0" />
  <rect
     width="50.466606"
     height="10.093321"
     x="-1198.4429"
     y="721.62701"
     transform="matrix(-0.32648981,-0.94520072,0.94520072,-0.32648981,0,0)"
     id="rect2548"
     style="fill:#ffffff;fill-opacity:0.63372091;stroke:#000000;stroke-width:1.18950927;stroke-linecap:round;stroke-linejoin:bevel;stroke-miterlimit:4;stroke-opacity:1;stroke-dasharray:none;stroke-dashoffset:0" />
  <path
     d="m 2971.9698,1059.2852 a 11.667262,3.1819806 0 1 1 -23.3346,0 11.667262,3.1819806 0 1 1 23.3346,0 z"
     transform="matrix(1.7124102,0,0,1.7124102,-3864.7408,-999.11851)"
     id="path2550"
     style="fill:#22b716;fill-opacity:0.63529412;stroke:#000000;stroke-width:1;stroke-linecap:round;stroke-linejoin:bevel;stroke-miterlimit:4;stroke-opacity:1;stroke-dasharray:none;stroke-dashoffset:0" />
  <path
     d="m 3050.4587,1140.6024 a 10.960155,8.1317282 0 1 1 -21.9203,0 10.960155,8.1317282 0 1 1 21.9203,0 z"
     transform="matrix(2.5608217,0,0,1.4871267,-6452.9048,-743.87204)"
     id="path2552"
     style="fill:#22b716;fill-opacity:0.63529412;stroke:#000000;stroke-width:1;stroke-linecap:round;stroke-linejoin:bevel;stroke-miterlimit:4;stroke-opacity:1;stroke-dasharray:none;stroke-dashoffset:0" />
  <path
     d="m 3122.5835,1126.1068 a 9.1923885,2.1213202 0 1 1 -18.3848,0 9.1923885,2.1213202 0 1 1 18.3848,0 z"
     transform="matrix(1.7124102,0,0,1.7124102,-4082.2169,-977.71339)"
     id="path2554"
     style="fill:#22b716;fill-opacity:0.63529412;stroke:#000000;stroke-width:1;stroke-linecap:round;stroke-linejoin:bevel;stroke-miterlimit:4;stroke-opacity:1;stroke-dasharray:none;stroke-dashoffset:0" />
  <path
     d="m 3140.2612,1111.6111 a 8.8388348,5.3033009 0 1 1 -17.6777,0 8.8388348,5.3033009 0 1 1 17.6777,0 z"
     transform="matrix(1.7124102,0,0,1.7124102,-3886.1459,-986.27545)"
     id="path2556"
     style="fill:#22b716;fill-opacity:0.63529412;stroke:#000000;stroke-width:1;stroke-linecap:round;stroke-linejoin:bevel;stroke-miterlimit:4;stroke-opacity:1;stroke-dasharray:none;stroke-dashoffset:0" />
  <path
     d="m 2866.6108,1116.9144 a 4.2426405,2.1213202 0 1 1 -8.4853,0 4.2426405,2.1213202 0 1 1 8.4853,0 z"
     transform="matrix(1.7124102,0,0,1.7124102,-3864.7408,-999.11851)"
     id="path2558"
     style="fill:#22b716;fill-opacity:0.63529412;stroke:#000000;stroke-width:1;stroke-linecap:round;stroke-linejoin:bevel;stroke-miterlimit:4;stroke-opacity:1;stroke-dasharray:none;stroke-dashoffset:0" />
  <path
     d="m 3122.5835,1126.1068 a 9.1923885,2.1213202 0 1 1 -18.3848,0 9.1923885,2.1213202 0 1 1 18.3848,0 z"
     transform="matrix(1.7124102,0,0,1.7124102,-3934.7632,-993.308)"
     id="path2560"
     style="fill:#22b716;fill-opacity:0.63529412;stroke:#000000;stroke-width:1;stroke-linecap:round;stroke-linejoin:bevel;stroke-miterlimit:4;stroke-opacity:1;stroke-dasharray:none;stroke-dashoffset:0" />
  <path
     d="m 3122.5835,1126.1068 a 9.1923885,2.1213202 0 1 1 -18.3848,0 9.1923885,2.1213202 0 1 1 18.3848,0 z"
     transform="matrix(1.7124102,0,0,1.7124102,-4030.6582,-1105.4709)"
     id="path2562"
     style="fill:#22b716;fill-opacity:0.63529412;stroke:#000000;stroke-width:1;stroke-linecap:round;stroke-linejoin:bevel;stroke-miterlimit:4;stroke-opacity:1;stroke-dasharray:none;stroke-dashoffset:0" />
  <path
     d="m 3122.5835,1126.1068 a 9.1923885,2.1213202 0 1 1 -18.3848,0 9.1923885,2.1213202 0 1 1 18.3848,0 z"
     transform="matrix(1.7124102,0,0,1.7124102,-4092.3049,-1132.0133)"
     id="path2564"
     style="fill:#22b716;fill-opacity:0.63529412;stroke:#000000;stroke-width:1;stroke-linecap:round;stroke-linejoin:bevel;stroke-miterlimit:4;stroke-opacity:1;stroke-dasharray:none;stroke-dashoffset:0" />
  <path
     d="m 3122.5835,1126.1068 a 9.1923885,2.1213202 0 1 1 -18.3848,0 9.1923885,2.1213202 0 1 1 18.3848,0 z"
     transform="matrix(1.7124102,0,0,1.7124102,-4306.3561,-1039.5431)"
     id="path2566"
     style="fill:#22b716;fill-opacity:0.63529412;stroke:#000000;stroke-width:1;stroke-linecap:round;stroke-linejoin:bevel;stroke-miterlimit:4;stroke-opacity:1;stroke-dasharray:none;stroke-dashoffset:0" />
  <path
     d="m 1417.8111,544.42654 577.4688,514.99626"
     id="path2570"
     style="fill:none;stroke:#000000;stroke-width:1.76834655px;stroke-linecap:butt;stroke-linejoin:miter;stroke-opacity:1" />
  <path
     d="M 1513.0803,275.96684 1731.25,404.44644"
     id="path7734"
     style="fill:none;stroke:#ff0e0e;stroke-width:7.11882734;stroke-linecap:butt;stroke-linejoin:miter;stroke-miterlimit:4;stroke-opacity:1;stroke-dasharray:14.23765503, 7.11882752;stroke-dashoffset:0" />
</svg>
